  0
SECTION
  2
HEADER
  9
$ACADVER
  1
AC1015
  9
$ACADMAINTVER
 70
    20
  9
$DWGCODEPAGE
  3
ANSI_936
  9
$INSBASE
 10
0.0
 20
0.0
 30
0.0
  9
$EXTMIN
 10
110.6805137818541
 20
48.9626865351687
 30
-0.00000001
  9
$EXTMAX
 10
407.680513781174
 20
258.9626865343287
 30
0.00000001
  9
$LIMMIN
 10
0.0
 20
0.0
  9
$LIMMAX
 10
420.0
 20
297.0
  9
$ORTHOMODE
 70
     0
  9
$REGENMODE
 70
     1
  9
$FILLMODE
 70
     1
  9
$QTEXTMODE
 70
     0
  9
$MIRRTEXT
 70
     0
  9
$LTSCALE
 40
1.0
  9
$ATTMODE
 70
     1
  9
$TEXTSIZE
 40
2.5
  9
$TRACEWID
 40
1.0
  9
$TEXTSTYLE
  7
Standard
  9
$CLAYER
  8
0
  9
$CELTYPE
  6
ByLayer
  9
$CECOLOR
 62
   256
  9
$CELTSCALE
 40
1.0
  9
$DISPSILH
 70
     0
  9
$DIMSCALE
 40
1.0
  9
$DIMASZ
 40
2.5
  9
$DIMEXO
 40
0.625
  9
$DIMDLI
 40
3.75
  9
$DIMRND
 40
0.0
  9
$DIMDLE
 40
0.0
  9
$DIMEXE
 40
1.25
  9
$DIMTP
 40
0.0
  9
$DIMTM
 40
0.0
  9
$DIMTXT
 40
2.5
  9
$DIMCEN
 40
2.5
  9
$DIMTSZ
 40
0.0
  9
$DIMTOL
 70
     0
  9
$DIMLIM
 70
     0
  9
$DIMTIH
 70
     0
  9
$DIMTOH
 70
     0
  9
$DIMSE1
 70
     0
  9
$DIMSE2
 70
     0
  9
$DIMTAD
 70
     1
  9
$DIMZIN
 70
     8
  9
$DIMBLK
  1

  9
$DIMASO
 70
     1
  9
$DIMSHO
 70
     1
  9
$DIMPOST
  1

  9
$DIMAPOST
  1

  9
$DIMALT
 70
     0
  9
$DIMALTD
 70
     3
  9
$DIMALTF
 40
0.03937007874016
  9
$DIMLFAC
 40
1.0
  9
$DIMTOFL
 70
     1
  9
$DIMTVP
 40
0.0
  9
$DIMTIX
 70
     0
  9
$DIMSOXD
 70
     0
  9
$DIMSAH
 70
     0
  9
$DIMBLK1
  1

  9
$DIMBLK2
  1

  9
$DIMSTYLE
  2
ISO-25
  9
$DIMCLRD
 70
     0
  9
$DIMCLRE
 70
     0
  9
$DIMCLRT
 70
     0
  9
$DIMTFAC
 40
1.0
  9
$DIMGAP
 40
0.625
  9
$DIMJUST
 70
     0
  9
$DIMSD1
 70
     0
  9
$DIMSD2
 70
     0
  9
$DIMTOLJ
 70
     0
  9
$DIMTZIN
 70
     8
  9
$DIMALTZ
 70
     0
  9
$DIMALTTZ
 70
     0
  9
$DIMUPT
 70
     0
  9
$DIMDEC
 70
     2
  9
$DIMTDEC
 70
     2
  9
$DIMALTU
 70
     2
  9
$DIMALTTD
 70
     3
  9
$DIMTXSTY
  7
Standard
  9
$DIMAUNIT
 70
     0
  9
$DIMADEC
 70
     0
  9
$DIMALTRND
 40
0.0
  9
$DIMAZIN
 70
     0
  9
$DIMDSEP
 70
    46
  9
$DIMATFIT
 70
     3
  9
$DIMFRAC
 70
     0
  9
$DIMLDRBLK
  1

  9
$DIMLUNIT
 70
     2
  9
$DIMLWD
 70
    -2
  9
$DIMLWE
 70
    -2
  9
$DIMTMOVE
 70
     0
  9
$LUNITS
 70
     2
  9
$LUPREC
 70
     4
  9
$SKETCHINC
 40
1.0
  9
$FILLETRAD
 40
0.0
  9
$AUNITS
 70
     0
  9
$AUPREC
 70
     0
  9
$MENU
  1
.
  9
$ELEVATION
 40
0.0
  9
$PELEVATION
 40
0.0
  9
$THICKNESS
 40
0.0
  9
$LIMCHECK
 70
     0
  9
$CHAMFERA
 40
0.0
  9
$CHAMFERB
 40
0.0
  9
$CHAMFERC
 40
0.0
  9
$CHAMFERD
 40
0.0
  9
$SKPOLY
 70
     0
  9
$TDCREATE
 40
2458025.415138935
  9
$TDUCREATE
 40
2458025.081805602
  9
$TDUPDATE
 40
2458025.420142385
  9
$TDUUPDATE
 40
2458025.086809051
  9
$TDINDWG
 40
0.0050037500
  9
$TDUSRTIMER
 40
0.0050037384
  9
$USRTIMER
 70
     1
  9
$ANGBASE
 50
0.0
  9
$ANGDIR
 70
     0
  9
$PDMODE
 70
     0
  9
$PDSIZE
 40
0.0
  9
$PLINEWID
 40
0.0
  9
$SPLFRAME
 70
     0
  9
$SPLINETYPE
 70
     6
  9
$SPLINESEGS
 70
     8
  9
$HANDSEED
  5
19A
  9
$SURFTAB1
 70
     6
  9
$SURFTAB2
 70
     6
  9
$SURFTYPE
 70
     6
  9
$SURFU
 70
     6
  9
$SURFV
 70
     6
  9
$UCSBASE
  2

  9
$UCSNAME
  2

  9
$UCSORG
 10
0.0
 20
0.0
 30
0.0
  9
$UCSXDIR
 10
1.0
 20
0.0
 30
0.0
  9
$UCSYDIR
 10
0.0
 20
1.0
 30
0.0
  9
$UCSORTHOREF
  2

  9
$UCSORTHOVIEW
 70
     0
  9
$UCSORGTOP
 10
0.0
 20
0.0
 30
0.0
  9
$UCSORGBOTTOM
 10
0.0
 20
0.0
 30
0.0
  9
$UCSORGLEFT
 10
0.0
 20
0.0
 30
0.0
  9
$UCSORGRIGHT
 10
0.0
 20
0.0
 30
0.0
  9
$UCSORGFRONT
 10
0.0
 20
0.0
 30
0.0
  9
$UCSORGBACK
 10
0.0
 20
0.0
 30
0.0
  9
$PUCSBASE
  2

  9
$PUCSNAME
  2

  9
$PUCSORG
 10
0.0
 20
0.0
 30
0.0
  9
$PUCSXDIR
 10
1.0
 20
0.0
 30
0.0
  9
$PUCSYDIR
 10
0.0
 20
1.0
 30
0.0
  9
$PUCSORTHOREF
  2

  9
$PUCSORTHOVIEW
 70
     0
  9
$PUCSORGTOP
 10
0.0
 20
0.0
 30
0.0
  9
$PUCSORGBOTTOM
 10
0.0
 20
0.0
 30
0.0
  9
$PUCSORGLEFT
 10
0.0
 20
0.0
 30
0.0
  9
$PUCSORGRIGHT
 10
0.0
 20
0.0
 30
0.0
  9
$PUCSORGFRONT
 10
0.0
 20
0.0
 30
0.0
  9
$PUCSORGBACK
 10
0.0
 20
0.0
 30
0.0
  9
$USERI1
 70
     0
  9
$USERI2
 70
     0
  9
$USERI3
 70
     0
  9
$USERI4
 70
     0
  9
$USERI5
 70
     0
  9
$USERR1
 40
0.0
  9
$USERR2
 40
0.0
  9
$USERR3
 40
0.0
  9
$USERR4
 40
0.0
  9
$USERR5
 40
0.0
  9
$WORLDVIEW
 70
     1
  9
$SHADEDGE
 70
     3
  9
$SHADEDIF
 70
    70
  9
$TILEMODE
 70
     1
  9
$MAXACTVP
 70
    64
  9
$PINSBASE
 10
0.0
 20
0.0
 30
0.0
  9
$PLIMCHECK
 70
     0
  9
$PEXTMIN
 10
1.000000000000000E+20
 20
1.000000000000000E+20
 30
1.000000000000000E+20
  9
$PEXTMAX
 10
-1.000000000000000E+20
 20
-1.000000000000000E+20
 30
-1.000000000000000E+20
  9
$PLIMMIN
 10
0.0
 20
0.0
  9
$PLIMMAX
 10
420.0
 20
297.0
  9
$UNITMODE
 70
     0
  9
$VISRETAIN
 70
     1
  9
$PLINEGEN
 70
     0
  9
$PSLTSCALE
 70
     1
  9
$TREEDEPTH
 70
  3020
  9
$CMLSTYLE
  2
Standard
  9
$CMLJUST
 70
     0
  9
$CMLSCALE
 40
20.0
  9
$PROXYGRAPHICS
 70
     1
  9
$MEASUREMENT
 70
     1
  9
$CELWEIGHT
370
    -1
  9
$ENDCAPS
280
     0
  9
$JOINSTYLE
280
     0
  9
$LWDISPLAY
290
     0
  9
$INSUNITS
 70
     4
  9
$HYPERLINKBASE
  1

  9
$STYLESHEET
  1

  9
$XEDIT
290
     1
  9
$CEPSNTYPE
380
     0
  9
$PSTYLEMODE
290
     1
  9
$FINGERPRINTGUID
  2
{3B76BCC9-FFDF-444D-A7FE-4114ED451396}
  9
$VERSIONGUID
  2
{DA2CFABA-C901-41A7-9650-8ACCFE9B4DC0}
  9
$EXTNAMES
290
     1
  9
$PSVPSCALE
 40
0.0
  9
$OLESTARTUP
290
     0
  0
ENDSEC
  0
SECTION
  2
CLASSES
  0
CLASS
  1
ACDBDICTIONARYWDFLT
  2
AcDbDictionaryWithDefault
  3
ObjectDBX Classes
 90
        0
280
     0
281
     0
  0
CLASS
  1
MATERIAL
  2
AcDbMaterial
  3
ObjectDBX Classes
 90
        0
280
     0
281
     0
  0
CLASS
  1
TABLESTYLE
  2
AcDbTableStyle
  3
ObjectDBX Classes
 90
     4095
280
     0
281
     0
  0
CLASS
  1
MLEADERSTYLE
  2
AcDbMLeaderStyle
  3
ACDB_MLEADERSTYLE_CLASS
 90
     4095
280
     0
281
     0
  0
CLASS
  1
SORTENTSTABLE
  2
AcDbSortentsTable
  3
ObjectDBX Classes
 90
        0
280
     0
281
     0
  0
CLASS
  1
DIMASSOC
  2
AcDbDimAssoc
  3
"ZcDbDimAssoc|Product Desc:     ZwDim ZRX App For Dimension|Company:          ZwSoft.|WEB Address:      www.zwsoft.com"
 90
        0
280
     0
281
     0
  0
CLASS
  1
MULTILEADER
  2
AcDbMLeader
  3
ACDB_MLEADER_CLASS
 90
     1025
280
     0
281
     1
  0
CLASS
  1
DICTIONARYVAR
  2
AcDbDictionaryVar
  3
ObjectDBX Classes
 90
        0
280
     0
281
     0
  0
CLASS
  1
ACDBPLACEHOLDER
  2
AcDbPlaceHolder
  3
ObjectDBX Classes
 90
        0
280
     0
281
     0
  0
CLASS
  1
LAYOUT
  2
AcDbLayout
  3
ObjectDBX Classes
 90
        0
280
     0
281
     0
  0
ENDSEC
  0
SECTION
  2
TABLES
  0
TABLE
  2
VPORT
  5
8
330
0
100
AcDbSymbolTable
 70
    11
  0
VPORT
  5
181
330
8
100
AcDbSymbolTableRecord
100
AcDbViewportTableRecord
  2
*Active
 70
     0
 10
0.0
 20
0.0
 11
1.0
 21
1.0
 12
222.4490480749046
 22
100.9688582122034
 13
0.0
 23
0.0
 14
10.0
 24
10.0
 15
10.0
 25
10.0
 16
0.0
 26
0.0
 36
1.0
 17
0.0
 27
0.0
 37
0.0
 40
82.43148548522201
 41
1.686141304347826
 42
50.0
 43
0.0
 44
0.0
 50
0.0
 51
0.0
 71
     0
 72
  1000
 73
     1
 74
     3
 75
     0
 76
     0
 77
     0
 78
     0
281
     0
 65
     1
110
0.0
120
0.0
130
0.0
111
1.0
121
0.0
131
0.0
112
0.0
122
1.0
132
0.0
 79
     0
146
0.0
  0
ENDTAB
  0
TABLE
  2
LTYPE
  5
5
330
0
100
AcDbSymbolTable
 70
     6
  0
LTYPE
  5
14
330
5
100
AcDbSymbolTableRecord
100
AcDbLinetypeTableRecord
  2
ByBlock
 70
     0
  3

 72
    65
 73
     0
 40
0.0
  0
LTYPE
  5
15
330
5
100
AcDbSymbolTableRecord
100
AcDbLinetypeTableRecord
  2
ByLayer
 70
     0
  3

 72
    65
 73
     0
 40
0.0
  0
LTYPE
  5
16
330
5
100
AcDbSymbolTableRecord
100
AcDbLinetypeTableRecord
  2
Continuous
 70
     0
  3
Solid line
 72
    65
 73
     0
 40
0.0
  0
LTYPE
  5
34
330
5
100
AcDbSymbolTableRecord
100
AcDbLinetypeTableRecord
  2
CENTER
 70
     0
  3
____ _ ____ _ ____ _ ____ _ ____ _ ____ _ ____
 72
    65
 73
     4
 40
0.6
 49
0.375
 74
     0
 49
-0.075
 74
     0
 49
0.075
 74
     0
 49
-0.075
 74
     0
  0
LTYPE
  5
35
330
5
100
AcDbSymbolTableRecord
100
AcDbLinetypeTableRecord
  2
HIDDEN
 70
     0
  3
- - - - - - - - - - - - - - - - - - - -
 72
    65
 73
     2
 40
0.2
 49
0.1
 74
     0
 49
-0.1
 74
     0
  0
LTYPE
  5
36
330
5
100
AcDbSymbolTableRecord
100
AcDbLinetypeTableRecord
  2
PHANTOM
 70
     0
  3
_____ _ _ _____ _ _ _____ _ _ _____
 72
    65
 73
     6
 40
0.8
 49
0.45
 74
     0
 49
-0.05
 74
     0
 49
0.1
 74
     0
 49
-0.05
 74
     0
 49
0.1
 74
     0
 49
-0.05
 74
     0
  0
LTYPE
  5
37
330
5
100
AcDbSymbolTableRecord
100
AcDbLinetypeTableRecord
  2
DOT
 70
     0
  3
. . . . . . . . . . . . . . . . . . . .
 72
    65
 73
     2
 40
0.2
 49
0.1
 74
     0
 49
-0.1
 74
     0
  0
LTYPE
  5
38
330
5
100
AcDbSymbolTableRecord
100
AcDbLinetypeTableRecord
  2
DASHED
 70
     0
  3
- - - - - - - - - - - - - - - - - - - -
 72
    65
 73
     2
 40
0.2
 49
0.1
 74
     0
 49
-0.1
 74
     0
  0
ENDTAB
  0
TABLE
  2
LAYER
  5
2
330
0
100
AcDbSymbolTable
 70
     5
  0
LAYER
  5
10
330
2
100
AcDbSymbolTableRecord
100
AcDbLayerTableRecord
  2
0
 70
     0
 62
     7
  6
Continuous
370
    -3
390
F
  0
LAYER
  5
39
330
2
100
AcDbSymbolTableRecord
100
AcDbLayerTableRecord
  2
DEFAULT_1
 70
     0
 62
     7
  6
CENTER
370
    -3
390
F
  0
LAYER
  5
3A
330
2
100
AcDbSymbolTableRecord
100
AcDbLayerTableRecord
  2
DEFAULT_2
 70
     0
 62
     8
  6
HIDDEN
370
    -3
390
F
  0
LAYER
  5
3B
330
2
100
AcDbSymbolTableRecord
100
AcDbLayerTableRecord
  2
DEFAULT_3
 70
     0
 62
     7
  6
PHANTOM
370
    -3
390
F
  0
LAYER
  5
111
330
2
100
AcDbSymbolTableRecord
100
AcDbLayerTableRecord
  2
Defpoints
 70
     0
 62
     7
  6
Continuous
290
     0
370
    -3
390
F
  0
ENDTAB
  0
TABLE
  2
STYLE
  5
3
330
0
100
AcDbSymbolTable
 70
     2
  0
STYLE
  5
11
330
3
100
AcDbSymbolTableRecord
100
AcDbTextStyleTableRecord
  2
Standard
 70
     0
 40
0.0
 41
1.0
 50
0.0
 71
     0
 42
2.5
  3
txt.shx
  4

  0
STYLE
  5
3C
330
3
100
AcDbSymbolTableRecord
100
AcDbTextStyleTableRecord
  2
TEXTSTYLE_1
 70
     0
 40
0.0
 41
0.8
 50
0.0
 71
     0
 42
0.2
  3
gdt
  4

  0
ENDTAB
  0
TABLE
  2
VIEW
  5
6
330
0
100
AcDbSymbolTable
 70
     0
  0
ENDTAB
  0
TABLE
  2
UCS
  5
7
330
0
100
AcDbSymbolTable
 70
     0
  0
ENDTAB
  0
TABLE
  2
APPID
  5
9
330
0
100
AcDbSymbolTable
 70
     2
  0
APPID
  5
12
330
9
100
AcDbSymbolTableRecord
100
AcDbRegAppTableRecord
  2
ACAD
 70
     0
  0
APPID
  5
184
330
9
100
AcDbSymbolTableRecord
100
AcDbRegAppTableRecord
  2
ACAD_MLEADERVER
 70
     0
  0
ENDTAB
  0
TABLE
  2
DIMSTYLE
  5
A
330
0
100
AcDbSymbolTable
 70
     2
100
AcDbDimStyleTable
 71
     1
340
30
  0
DIMSTYLE
105
30
102
{ACAD_REACTORS
330
110
102
}
330
A
100
AcDbSymbolTableRecord
100
AcDbDimStyleTableRecord
  2
ISO-25
 70
     0
 41
2.5
 42
0.625
 43
3.75
 44
1.25
 73
     0
 74
     0
 77
     1
 78
     8
140
2.5
141
2.5
143
0.03937007874016
147
0.625
171
     3
172
     1
271
     2
272
     2
274
     3
283
     0
284
     8
340
11
  0
DIMSTYLE
105
3D
330
A
100
AcDbSymbolTableRecord
100
AcDbDimStyleTableRecord
  2
STANDARD
 70
     0
 41
0.1875
 44
0.125
 47
0.01
 48
0.01
 78
     4
140
0.15625
271
     2
272
     2
284
     4
340
11
  0
ENDTAB
  0
TABLE
  2
BLOCK_RECORD
  5
1
330
0
100
AcDbSymbolTable
 70
    11
  0
BLOCK_RECORD
  5
28
102
{ACAD_XDICTIONARY
360
10E
102
}
330
1
100
AcDbSymbolTableRecord
100
AcDbBlockTableRecord
  2
*Model_Space
340
2B
  0
BLOCK_RECORD
  5
24
330
1
100
AcDbSymbolTableRecord
100
AcDbBlockTableRecord
  2
*Paper_Space
340
27
  0
BLOCK_RECORD
  5
2C
330
1
100
AcDbSymbolTableRecord
100
AcDbBlockTableRecord
  2
*Paper_Space0
340
2F
  0
BLOCK_RECORD
  5
3E
330
1
100
AcDbSymbolTableRecord
100
AcDbBlockTableRecord
  2
main-pcb
340
0
1001
ACAD
1000
DesignCenter Data
1002
{
1070
     1
1070
     1
1002
}
  0
BLOCK_RECORD
  5
112
330
1
100
AcDbSymbolTableRecord
100
AcDbBlockTableRecord
  2
*D2
340
0
  0
ENDTAB
  0
ENDSEC
  0
SECTION
  2
BLOCKS
  0
BLOCK
  5
29
330
28
100
AcDbEntity
  8
0
100
AcDbBlockBegin
  2
*Model_Space
 70
     0
 10
0.0
 20
0.0
 30
0.0
  3
*Model_Space
  1

  0
ENDBLK
  5
2A
330
28
100
AcDbEntity
  8
0
100
AcDbBlockEnd
  0
BLOCK
  5
25
330
24
100
AcDbEntity
 67
     1
  8
0
100
AcDbBlockBegin
  2
*Paper_Space
 70
     0
 10
0.0
 20
0.0
 30
0.0
  3
*Paper_Space
  1

  0
ENDBLK
  5
26
330
24
100
AcDbEntity
 67
     1
  8
0
100
AcDbBlockEnd
  0
BLOCK
  5
2D
330
2C
100
AcDbEntity
  8
0
100
AcDbBlockBegin
  2
*Paper_Space0
 70
     0
 10
0.0
 20
0.0
 30
0.0
  3
*Paper_Space0
  1

  0
ENDBLK
  5
2E
330
2C
100
AcDbEntity
  8
0
100
AcDbBlockEnd
  0
BLOCK
  5
A5
330
3E
100
AcDbEntity
  8
0
100
AcDbBlockBegin
  2
main-pcb
 70
     0
 10
0.0
 20
0.0
 30
0.0
  3
main-pcb
  1

  0
LINE
  5
3F
330
3E
100
AcDbEntity
  8
0
  6
Continuous
 62
     7
100
AcDbLine
 10
0.0
 20
0.0
 30
0.0
 11
0.0
 21
8.267716535399999
 31
0.0
  0
LINE
  5
40
330
3E
100
AcDbEntity
  8
0
  6
Continuous
 62
     7
100
AcDbLine
 10
0.0
 20
0.0
 30
0.0
 11
11.6929133858
 21
0.0
 31
0.0
  0
LINE
  5
41
330
3E
100
AcDbEntity
  8
0
  6
Continuous
 62
     7
100
AcDbLine
 10
0.0
 20
8.267716535399999
 30
0.0
 11
11.6929133858
 21
8.267716535399999
 31
0.0
  0
LINE
  5
42
330
3E
100
AcDbEntity
  8
0
  6
Continuous
 62
     7
100
AcDbLine
 10
11.6929133858
 20
0.0
 30
0.0
 11
11.6929133858
 21
8.267716535399999
 31
0.0
  0
LINE
  5
43
330
3E
100
AcDbEntity
  8
0
  6
Continuous
 62
     7
100
AcDbLine
 10
2.928288233299999
 20
2.8470267966
 30
0.0
 11
2.928288233299999
 21
1.744664591899999
 31
0.0
  0
LINE
  5
44
330
3E
100
AcDbEntity
  8
0
  6
Continuous
 62
     7
100
AcDbLine
 10
3.046398469599999
 20
1.626554355699999
 30
0.0
 11
4.5030913829
 21
1.626554355699999
 31
0.0
  0
LINE
  5
45
330
3E
100
AcDbEntity
  8
0
  6
Continuous
 62
     7
100
AcDbLine
 10
3.217658312099999
 20
2.7289165604
 30
0.0
 11
3.217658312099999
 21
2.965137032799999
 31
0.0
  0
LINE
  5
46
330
3E
100
AcDbEntity
  8
DEFAULT_2
  6
HIDDEN
 62
     8
100
AcDbLine
 10
3.5680520129
 20
1.917892938299999
 30
0.0
 11
3.6152961074
 21
1.917892938299999
 31
0.0
  0
LINE
  5
47
330
3E
100
AcDbEntity
  8
DEFAULT_2
  6
HIDDEN
 62
     8
100
AcDbLine
 10
3.934193745099999
 20
1.917892938299999
 30
0.0
 11
3.981437839599999
 21
1.917892938299999
 31
0.0
  0
LINE
  5
48
330
3E
100
AcDbEntity
  8
0
  6
Continuous
 62
     7
100
AcDbLine
 10
3.524744926299999
 20
2.7289165604
 30
0.0
 11
3.524744926299999
 21
2.9257669541
 31
0.0
  0
LINE
  5
49
330
3E
100
AcDbEntity
  8
DEFAULT_2
  6
HIDDEN
 62
     8
100
AcDbLine
 10
3.5286819341
 20
2.713168528899999
 30
0.0
 11
3.5286819341
 21
1.9572630171
 31
0.0
  0
LINE
  5
4A
330
3E
100
AcDbEntity
  8
DEFAULT_2
  6
HIDDEN
 62
     8
100
AcDbLine
 10
3.6546661861
 20
1.9572630171
 30
0.0
 11
3.6546661861
 21
2.713168528899999
 31
0.0
  0
LINE
  5
4B
330
3E
100
AcDbEntity
  8
DEFAULT_2
  6
HIDDEN
 62
     8
100
AcDbLine
 10
3.894823666399999
 20
2.713168528899999
 30
0.0
 11
3.894823666399999
 21
1.9572630171
 31
0.0
  0
LINE
  5
4C
330
3E
100
AcDbEntity
  8
DEFAULT_2
  6
HIDDEN
 62
     8
100
AcDbLine
 10
4.0208079184
 20
1.9572630171
 30
0.0
 11
4.0208079184
 21
2.713168528899999
 31
0.0
  0
LINE
  5
4D
330
3E
100
AcDbEntity
  8
0
  6
Continuous
 62
     7
100
AcDbLine
 10
4.0247449263
 20
2.9257669541
 30
0.0
 11
4.0247449263
 21
2.7289165604
 31
0.0
  0
LINE
  5
4E
330
3E
100
AcDbEntity
  8
0
  6
Continuous
 62
     7
100
AcDbLine
 10
3.217658312099999
 20
2.7289165604
 30
0.0
 11
3.524744926299999
 21
2.7289165604
 31
0.0
  0
LINE
  5
4F
330
3E
100
AcDbEntity
  8
0
  6
Continuous
 62
     7
100
AcDbLine
 10
4.0247449263
 20
2.7289165604
 30
0.0
 11
4.3318315404
 21
2.7289165604
 31
0.0
  0
LINE
  5
50
330
3E
100
AcDbEntity
  8
DEFAULT_2
  6
HIDDEN
 62
     8
100
AcDbLine
 10
3.981437839599999
 20
2.7525386076
 30
0.0
 11
3.934193745099999
 21
2.7525386076
 31
0.0
  0
LINE
  5
51
330
3E
100
AcDbEntity
  8
DEFAULT_2
  6
HIDDEN
 62
     8
100
AcDbLine
 10
3.6152961074
 20
2.7525386076
 30
0.0
 11
3.5680520129
 21
2.7525386076
 31
0.0
  0
LINE
  5
52
330
3E
100
AcDbEntity
  8
0
  6
Continuous
 62
     7
100
AcDbLine
 10
4.3318315404
 20
2.965137032799999
 30
0.0
 11
4.3318315404
 21
2.7289165604
 31
0.0
  0
LINE
  5
53
330
3E
100
AcDbEntity
  8
0
  6
Continuous
 62
     7
100
AcDbLine
 10
3.524744926299999
 20
2.9257669541
 30
0.0
 11
4.0247449263
 21
2.9257669541
 31
0.0
  0
LINE
  5
54
330
3E
100
AcDbEntity
  8
0
  6
Continuous
 62
     7
100
AcDbLine
 10
4.5030913829
 20
2.965137032799999
 30
0.0
 11
4.3318315404
 21
2.965137032799999
 31
0.0
  0
LINE
  5
55
330
3E
100
AcDbEntity
  8
0
  6
Continuous
 62
     7
100
AcDbLine
 10
3.217658312099999
 20
2.965137032799999
 30
0.0
 11
3.046398469599999
 21
2.965137032799999
 31
0.0
  0
LINE
  5
56
330
3E
100
AcDbEntity
  8
0
  6
Continuous
 62
     7
100
AcDbLine
 10
4.621201619199999
 20
1.744664591899999
 30
0.0
 11
4.621201619199999
 21
2.8470267966
 31
0.0
  0
LINE
  5
57
330
3E
100
AcDbEntity
  8
0
  6
Continuous
 62
     7
100
AcDbLine
 10
5.850603668099999
 20
1.626554355699999
 30
0.0
 11
5.897847762599999
 21
1.626554355699999
 31
0.0
  0
LINE
  5
58
330
3E
100
AcDbEntity
  8
0
  6
Continuous
 62
     7
100
AcDbLine
 10
5.850603668099999
 20
1.744664591899999
 30
0.0
 11
5.897847762599999
 21
1.744664591899999
 31
0.0
  0
LINE
  5
59
330
3E
100
AcDbEntity
  8
DEFAULT_2
  6
HIDDEN
 62
     8
100
AcDbLine
 10
5.897847762599999
 20
1.866711835999999
 30
0.0
 11
5.850603668099999
 21
1.866711835999999
 31
0.0
  0
LINE
  5
5A
330
3E
100
AcDbEntity
  8
DEFAULT_2
  6
HIDDEN
 62
     8
100
AcDbLine
 10
5.897847762599999
 20
1.9375779777
 30
0.0
 11
5.850603668099999
 21
1.9375779777
 31
0.0
  0
LINE
  5
5B
330
3E
100
AcDbEntity
  8
DEFAULT_2
  6
HIDDEN
 62
     8
100
AcDbLine
 10
5.897847762599999
 20
2.250570103699999
 30
0.0
 11
5.850603668099999
 21
2.250570103699999
 31
0.0
  0
LINE
  5
5C
330
3E
100
AcDbEntity
  8
0
  6
Continuous
 62
     7
100
AcDbLine
 10
5.850603668099999
 20
1.626554355699999
 30
0.0
 11
5.850603668099999
 21
2.248428994
 31
0.0
  0
LINE
  5
5D
330
3E
100
AcDbEntity
  8
0
  6
Continuous
 62
     4
100
AcDbLine
 10
5.850603668099999
 20
2.248428994
 30
0.0
 11
5.850603668099999
 21
2.343262394399999
 31
0.0
  0
LINE
  5
5E
330
3E
100
AcDbEntity
  8
0
  6
Continuous
 62
     7
100
AcDbLine
 10
5.850603668099999
 20
2.343262394399999
 30
0.0
 11
5.850603668099999
 21
2.965137032799999
 31
0.0
  0
LINE
  5
5F
330
3E
100
AcDbEntity
  8
0
  6
Continuous
 62
     7
100
AcDbLine
 10
5.897847762599999
 20
1.626554355699999
 30
0.0
 11
5.897847762599999
 21
2.965137032799999
 31
0.0
  0
LINE
  5
60
330
3E
100
AcDbEntity
  8
DEFAULT_2
  6
HIDDEN
 62
     8
100
AcDbLine
 10
5.897847762599999
 20
2.341121284799999
 30
0.0
 11
5.850603668099999
 21
2.341121284799999
 31
0.0
  0
LINE
  5
61
330
3E
100
AcDbEntity
  8
DEFAULT_2
  6
HIDDEN
 62
     8
100
AcDbLine
 10
5.850603668099999
 20
2.7289165604
 30
0.0
 11
5.897847762599999
 21
2.7289165604
 31
0.0
  0
LINE
  5
62
330
3E
100
AcDbEntity
  8
0
  6
Continuous
 62
     7
100
AcDbLine
 10
5.850603668099999
 20
2.8470267966
 30
0.0
 11
5.897847762599999
 21
2.8470267966
 31
0.0
  0
LINE
  5
63
330
3E
100
AcDbEntity
  8
DEFAULT_2
  6
HIDDEN
 62
     8
100
AcDbLine
 10
5.897847762599999
 20
2.8509638045
 30
0.0
 11
5.850603668099999
 21
2.8509638045
 31
0.0
  0
LINE
  5
64
330
3E
100
AcDbEntity
  8
DEFAULT_2
  6
HIDDEN
 62
     8
100
AcDbLine
 10
5.897847762599999
 20
2.921829946199999
 30
0.0
 11
5.850603668099999
 21
2.921829946199999
 31
0.0
  0
LINE
  5
65
330
3E
100
AcDbEntity
  8
DEFAULT_2
  6
HIDDEN
 62
     8
100
AcDbLine
 10
5.897847762599999
 20
2.9257669541
 30
0.0
 11
5.850603668099999
 21
2.9257669541
 31
0.0
  0
LINE
  5
66
330
3E
100
AcDbEntity
  8
0
  6
Continuous
 62
     7
100
AcDbLine
 10
5.850603668099999
 20
2.965137032799999
 30
0.0
 11
5.897847762599999
 21
2.965137032799999
 31
0.0
  0
LINE
  5
67
330
3E
100
AcDbEntity
  8
0
  6
Continuous
 62
     7
100
AcDbLine
 10
7.5144901048
 20
1.988546215099999
 30
0.0
 11
7.5144901048
 21
1.882247002599999
 31
0.0
  0
LINE
  5
68
330
3E
100
AcDbEntity
  8
0
  6
Continuous
 62
     4
100
AcDbLine
 10
7.559765695399999
 20
1.370435978899999
 30
0.0
 11
7.559765695399999
 21
2.157837553699999
 31
0.0
  0
LINE
  5
69
330
3E
100
AcDbEntity
  8
0
  6
Continuous
 62
     4
100
AcDbLine
 10
7.638505852799999
 20
2.157837553699999
 30
0.0
 11
7.638505852799999
 21
1.370435978899999
 31
0.0
  0
LINE
  5
6A
330
3E
100
AcDbEntity
  8
0
  6
Continuous
 62
     7
100
AcDbLine
 10
8.583387742599999
 20
1.370435978899999
 30
0.0
 11
7.638505852799999
 21
1.370435978899999
 31
0.0
  0
LINE
  5
6B
330
3E
100
AcDbEntity
  8
0
  6
Continuous
 62
     4
100
AcDbLine
 10
7.638505852799999
 20
1.370435978899999
 30
0.0
 11
7.559765695399999
 21
1.370435978899999
 31
0.0
  0
LINE
  5
6C
330
3E
100
AcDbEntity
  8
0
  6
Continuous
 62
     4
100
AcDbLine
 10
8.583387742599999
 20
1.370435978899999
 30
0.0
 11
8.662127900099999
 21
1.370435978899999
 31
0.0
  0
LINE
  5
6D
330
3E
100
AcDbEntity
  8
0
  6
Continuous
 62
     4
100
AcDbLine
 10
7.835356246499999
 20
2.157837553699999
 30
0.0
 11
7.835356246499999
 21
1.992483222999999
 31
0.0
  0
LINE
  5
6E
330
3E
100
AcDbEntity
  8
0
  6
Continuous
 62
     7
100
AcDbLine
 10
7.5144901048
 20
1.882247002599999
 30
0.0
 11
7.559765695399999
 21
1.882247002599999
 31
0.0
  0
LINE
  5
6F
330
3E
100
AcDbEntity
  8
0
  6
Continuous
 62
     7
100
AcDbLine
 10
8.662127900099999
 20
1.882247002599999
 30
0.0
 11
8.707403490599999
 21
1.882247002599999
 31
0.0
  0
LINE
  5
70
330
3E
100
AcDbEntity
  8
0
  6
Continuous
 62
     7
100
AcDbLine
 10
8.707403490599999
 20
1.988546215099999
 30
0.0
 11
8.662127900099999
 21
1.988546215099999
 31
0.0
  0
LINE
  5
71
330
3E
100
AcDbEntity
  8
0
  6
Continuous
 62
     7
100
AcDbLine
 10
7.559765695399999
 20
1.988546215099999
 30
0.0
 11
7.5144901048
 21
1.988546215099999
 31
0.0
  0
LINE
  5
72
330
3E
100
AcDbEntity
  8
0
  6
Continuous
 62
     4
100
AcDbLine
 10
7.835356246499999
 20
1.992483222999999
 30
0.0
 11
7.559765695399999
 21
1.992483222999999
 31
0.0
  0
LINE
  5
73
330
3E
100
AcDbEntity
  8
0
  6
Continuous
 62
     4
100
AcDbLine
 10
8.386537348899999
 20
1.992483222999999
 30
0.0
 11
8.662127900099999
 21
1.992483222999999
 31
0.0
  0
LINE
  5
74
330
3E
100
AcDbEntity
  8
0
  6
Continuous
 62
     4
100
AcDbLine
 10
8.386537348899999
 20
2.157837553699999
 30
0.0
 11
8.386537348899999
 21
1.992483222999999
 31
0.0
  0
LINE
  5
75
330
3E
100
AcDbEntity
  8
0
  6
Continuous
 62
     4
100
AcDbLine
 10
8.662127900099999
 20
2.157837553699999
 30
0.0
 11
8.386537348899999
 21
2.157837553699999
 31
0.0
  0
LINE
  5
76
330
3E
100
AcDbEntity
  8
0
  6
Continuous
 62
     4
100
AcDbLine
 10
7.559765695399999
 20
2.157837553699999
 30
0.0
 11
7.835356246499999
 21
2.157837553699999
 31
0.0
  0
LINE
  5
77
330
3E
100
AcDbEntity
  8
0
  6
Continuous
 62
     7
100
AcDbLine
 10
7.835356246499999
 20
2.157837553699999
 30
0.0
 11
8.386537348899999
 21
2.157837553699999
 31
0.0
  0
LINE
  5
78
330
3E
100
AcDbEntity
  8
0
  6
Continuous
 62
     4
100
AcDbLine
 10
8.583387742599999
 20
2.157837553699999
 30
0.0
 11
8.583387742599999
 21
1.370435978899999
 31
0.0
  0
LINE
  5
79
330
3E
100
AcDbEntity
  8
0
  6
Continuous
 62
     4
100
AcDbLine
 10
8.662127900099999
 20
1.370435978899999
 30
0.0
 11
8.662127900099999
 21
2.157837553699999
 31
0.0
  0
LINE
  5
7A
330
3E
100
AcDbEntity
  8
0
  6
Continuous
 62
     7
100
AcDbLine
 10
8.707403490599999
 20
1.882247002599999
 30
0.0
 11
8.707403490599999
 21
1.988546215099999
 31
0.0
  0
LINE
  5
7B
330
3E
100
AcDbEntity
  8
0
  6
Continuous
 62
     7
100
AcDbLine
 10
9.66483968
 20
1.370435978899999
 30
0.0
 11
9.712083774499999
 21
1.370435978899999
 31
0.0
  0
LINE
  5
7C
330
3E
100
AcDbEntity
  8
DEFAULT_2
  6
HIDDEN
 62
     8
100
AcDbLine
 10
9.712083774499999
 20
1.4708296797
 30
0.0
 11
9.66483968
 21
1.4708296797
 31
0.0
  0
LINE
  5
7D
330
3E
100
AcDbEntity
  8
DEFAULT_2
  6
HIDDEN
 62
     8
100
AcDbLine
 10
9.712083774499999
 20
1.506262750599999
 30
0.0
 11
9.66483968
 21
1.506262750599999
 31
0.0
  0
LINE
  5
7E
330
3E
100
AcDbEntity
  8
DEFAULT_2
  6
HIDDEN
 62
     8
100
AcDbLine
 10
9.712083774499999
 20
1.549569837199999
 30
0.0
 11
9.66483968
 21
1.549569837199999
 31
0.0
  0
LINE
  5
7F
330
3E
100
AcDbEntity
  8
DEFAULT_2
  6
HIDDEN
 62
     8
100
AcDbLine
 10
9.712083774499999
 20
1.5850029081
 30
0.0
 11
9.66483968
 21
1.5850029081
 31
0.0
  0
LINE
  5
80
330
3E
100
AcDbEntity
  8
0
  6
Continuous
 62
     4
100
AcDbLine
 10
9.66483968
 20
1.370435978899999
 30
0.0
 11
9.66483968
 21
1.882247002599999
 31
0.0
  0
LINE
  5
81
330
3E
100
AcDbEntity
  8
0
  6
Continuous
 62
     7
100
AcDbLine
 10
9.66483968
 20
1.882247002599999
 30
0.0
 11
9.66483968
 21
1.988546215099999
 31
0.0
  0
LINE
  5
82
330
3E
100
AcDbEntity
  8
0
  6
Continuous
 62
     4
100
AcDbLine
 10
9.66483968
 20
1.988546215099999
 30
0.0
 11
9.66483968
 21
2.157837553699999
 31
0.0
  0
LINE
  5
83
330
3E
100
AcDbEntity
  8
0
  6
Continuous
 62
     7
100
AcDbLine
 10
9.712083774499999
 20
1.370435978899999
 30
0.0
 11
9.712083774499999
 21
2.157837553699999
 31
0.0
  0
LINE
  5
84
330
3E
100
AcDbEntity
  8
0
  6
Continuous
 62
     7
100
AcDbLine
 10
9.66483968
 20
1.882247002599999
 30
0.0
 11
9.712083774499999
 21
1.882247002599999
 31
0.0
  0
LINE
  5
85
330
3E
100
AcDbEntity
  8
0
  6
Continuous
 62
     7
100
AcDbLine
 10
9.66483968
 20
1.988546215099999
 30
0.0
 11
9.712083774499999
 21
1.988546215099999
 31
0.0
  0
LINE
  5
86
330
3E
100
AcDbEntity
  8
0
  6
Continuous
 62
     7
100
AcDbLine
 10
9.66483968
 20
2.157837553699999
 30
0.0
 11
9.712083774499999
 21
2.157837553699999
 31
0.0
  0
ARC
  5
87
330
3E
100
AcDbEntity
  8
0
  6
Continuous
 62
     7
100
AcDbCircle
 10
4.5030913829
 20
2.8470267966
 30
0.0
 40
0.1181102362
100
AcDbArc
 50
0.0
 51
90.0
  0
ARC
  5
88
330
3E
100
AcDbEntity
  8
0
  6
Continuous
 62
     7
100
AcDbCircle
 10
4.5030913829
 20
1.744664591899999
 30
0.0
 40
0.1181102362
100
AcDbArc
 50
270.0
 51
360.0
  0
ARC
  5
89
330
3E
100
AcDbEntity
  8
0
  6
Continuous
 62
     7
100
AcDbCircle
 10
3.046398469599999
 20
1.744664591899999
 30
0.0
 40
0.1181102362
100
AcDbArc
 50
180.0
 51
270.0
  0
ARC
  5
8A
330
3E
100
AcDbEntity
  8
0
  6
Continuous
 62
     7
100
AcDbCircle
 10
3.046398469599999
 20
2.8470267966
 30
0.0
 40
0.1181102362
100
AcDbArc
 50
90.0
 51
180.0
  0
CIRCLE
  5
8B
330
3E
100
AcDbEntity
  8
0
  6
Continuous
 62
     4
100
AcDbCircle
 10
3.007028390799999
 20
2.2958456942
 30
0.0
 40
0.0984251969
  0
CIRCLE
  5
8C
330
3E
100
AcDbEntity
  8
0
  6
Continuous
 62
     4
100
AcDbCircle
 10
4.5424614617
 20
2.2958456942
 30
0.0
 40
0.0984251969
  0
CIRCLE
  5
8D
330
3E
100
AcDbEntity
  8
DEFAULT_2
  6
HIDDEN
 62
     8
100
AcDbCircle
 10
4.463721304199999
 20
2.886396875299999
 30
0.0
 40
0.0787401575
  0
CIRCLE
  5
8E
330
3E
100
AcDbEntity
  8
DEFAULT_2
  6
HIDDEN
 62
     8
100
AcDbCircle
 10
3.085768548299999
 20
2.886396875299999
 30
0.0
 40
0.0787401575
  0
CIRCLE
  5
8F
330
3E
100
AcDbEntity
  8
DEFAULT_2
  6
HIDDEN
 62
     8
100
AcDbCircle
 10
3.774744926299999
 20
1.9021449068
 30
0.0
 40
0.0787401575
  0
CIRCLE
  5
90
330
3E
100
AcDbEntity
  8
0
  6
Continuous
 62
     7
100
AcDbCircle
 10
3.007028390799999
 20
2.2958456942
 30
0.0
 40
0.0452755906
  0
CIRCLE
  5
91
330
3E
100
AcDbEntity
  8
0
  6
Continuous
 62
     7
100
AcDbCircle
 10
4.5424614617
 20
2.2958456942
 30
0.0
 40
0.0452755906
  0
ARC
  5
92
330
3E
100
AcDbEntity
  8
DEFAULT_2
  6
HIDDEN
 62
     8
100
AcDbCircle
 10
3.981437839599999
 20
1.9572630171
 30
0.0
 40
0.0393700787
100
AcDbArc
 50
270.0
 51
360.0
  0
ARC
  5
93
330
3E
100
AcDbEntity
  8
DEFAULT_2
  6
HIDDEN
 62
     8
100
AcDbCircle
 10
3.981437839599999
 20
2.713168528899999
 30
0.0
 40
0.0393700787
100
AcDbArc
 50
0.0
 51
90.0
  0
ARC
  5
94
330
3E
100
AcDbEntity
  8
DEFAULT_2
  6
HIDDEN
 62
     8
100
AcDbCircle
 10
3.934193745099999
 20
2.713168528899999
 30
0.0
 40
0.0393700787
100
AcDbArc
 50
90.0
 51
180.0
  0
ARC
  5
95
330
3E
100
AcDbEntity
  8
DEFAULT_2
  6
HIDDEN
 62
     8
100
AcDbCircle
 10
3.934193745099999
 20
1.9572630171
 30
0.0
 40
0.0393700787
100
AcDbArc
 50
180.0
 51
270.0
  0
ARC
  5
96
330
3E
100
AcDbEntity
  8
DEFAULT_2
  6
HIDDEN
 62
     8
100
AcDbCircle
 10
3.6152961074
 20
2.713168528899999
 30
0.0
 40
0.0393700787
100
AcDbArc
 50
0.0
 51
90.0
  0
ARC
  5
97
330
3E
100
AcDbEntity
  8
DEFAULT_2
  6
HIDDEN
 62
     8
100
AcDbCircle
 10
3.5680520129
 20
2.713168528899999
 30
0.0
 40
0.0393700787
100
AcDbArc
 50
90.0
 51
180.0
  0
ARC
  5
98
330
3E
100
AcDbEntity
  8
DEFAULT_2
  6
HIDDEN
 62
     8
100
AcDbCircle
 10
3.5680520129
 20
1.9572630171
 30
0.0
 40
0.0393700787
100
AcDbArc
 50
180.0
 51
270.0
  0
ARC
  5
99
330
3E
100
AcDbEntity
  8
DEFAULT_2
  6
HIDDEN
 62
     8
100
AcDbCircle
 10
3.6152961074
 20
1.9572630171
 30
0.0
 40
0.0393700787
100
AcDbArc
 50
270.0
 51
360.0
  0
CIRCLE
  5
9A
330
3E
100
AcDbEntity
  8
0
  6
Continuous
 62
     7
100
AcDbCircle
 10
3.085768548299999
 20
2.886396875299999
 30
0.0
 40
0.0354330709
  0
CIRCLE
  5
9B
330
3E
100
AcDbEntity
  8
0
  6
Continuous
 62
     7
100
AcDbCircle
 10
4.463721304199999
 20
2.886396875299999
 30
0.0
 40
0.0354330709
  0
CIRCLE
  5
9C
330
3E
100
AcDbEntity
  8
0
  6
Continuous
 62
     7
100
AcDbCircle
 10
3.774744926299999
 20
1.9021449068
 30
0.0
 40
0.0354330709
  0
CIRCLE
  5
9D
330
3E
100
AcDbEntity
  8
0
  6
Continuous
 62
     7
100
AcDbCircle
 10
7.847954671699999
 20
1.567286372599999
 30
0.0
 40
0.0177165354
  0
CIRCLE
  5
9E
330
3E
100
AcDbEntity
  8
0
  6
Continuous
 62
     7
100
AcDbCircle
 10
8.005434986699999
 20
1.567286372599999
 30
0.0
 40
0.0177165354
  0
CIRCLE
  5
9F
330
3E
100
AcDbEntity
  8
0
  6
Continuous
 62
     7
100
AcDbCircle
 10
7.847954671699999
 20
1.488546215099999
 30
0.0
 40
0.0177165354
  0
CIRCLE
  5
A0
330
3E
100
AcDbEntity
  8
0
  6
Continuous
 62
     7
100
AcDbCircle
 10
8.005434986699999
 20
1.488546215099999
 30
0.0
 40
0.0177165354
  0
CIRCLE
  5
A1
330
3E
100
AcDbEntity
  8
0
  6
Continuous
 62
     7
100
AcDbCircle
 10
8.3739389237
 20
1.567286372599999
 30
0.0
 40
0.0177165354
  0
CIRCLE
  5
A2
330
3E
100
AcDbEntity
  8
0
  6
Continuous
 62
     7
100
AcDbCircle
 10
8.216458608699999
 20
1.567286372599999
 30
0.0
 40
0.0177165354
  0
CIRCLE
  5
A3
330
3E
100
AcDbEntity
  8
0
  6
Continuous
 62
     7
100
AcDbCircle
 10
8.3739389237
 20
1.488546215099999
 30
0.0
 40
0.0177165354
  0
CIRCLE
  5
A4
330
3E
100
AcDbEntity
  8
0
  6
Continuous
 62
     7
100
AcDbCircle
 10
8.216458608699999
 20
1.488546215099999
 30
0.0
 40
0.0177165354
  0
ENDBLK
  5
A6
330
3E
100
AcDbEntity
  8
0
100
AcDbBlockEnd
  0
BLOCK
  5
11E
330
112
100
AcDbEntity
  8
0
100
AcDbBlockBegin
  2
*D2
 70
     1
 10
0.0
 20
0.0
 30
0.0
  3
*D2
  1

  0
LINE
  5
121
330
112
100
AcDbEntity
  8
0
 62
     0
370
    -2
100
AcDbLine
 10
259.2858469515941
 20
124.9021671682887
 30
0.0
 11
259.2858469515941
 21
126.0139135820919
 31
0.0
  0
LINE
  5
122
330
112
100
AcDbEntity
  8
0
 62
     0
370
    -2
100
AcDbLine
 10
260.485846951894
 20
124.9021671682887
 30
0.0
 11
260.485846951894
 21
126.0139135820919
 31
0.0
  0
LINE
  5
123
330
112
100
AcDbEntity
  8
0
 62
     0
370
    -2
100
AcDbLine
 10
262.985846951894
 20
124.7639135820919
 30
0.0
 11
270.9025136185607
 21
124.7639135820919
 31
0.0
  0
LINE
  5
124
330
112
100
AcDbEntity
  8
0
 62
     0
370
    -2
100
AcDbLine
 10
259.2858469515941
 20
124.7639135820919
 30
0.0
 11
260.485846951894
 21
124.7639135820919
 31
0.0
  0
LINE
  5
125
330
112
100
AcDbEntity
  8
0
 62
     0
370
    -2
100
AcDbLine
 10
256.785846951594
 20
124.7639135820919
 30
0.0
 11
254.2858469515941
 21
124.7639135820919
 31
0.0
  0
SOLID
  5
126
330
112
100
AcDbEntity
  8
0
 62
     0
100
AcDbTrace
 10
256.785846951594
 20
124.3472469154253
 30
0.0
 11
256.785846951594
 21
125.1805802487586
 31
0.0
 12
259.2858469515941
 22
124.7639135820919
 32
0.0
 13
259.2858469515941
 23
124.7639135820919
 33
0.0
  0
SOLID
  5
127
330
112
100
AcDbEntity
  8
0
 62
     0
100
AcDbTrace
 10
262.985846951894
 20
125.1805802487586
 30
0.0
 11
262.985846951894
 21
124.3472469154253
 31
0.0
 12
260.485846951894
 22
124.7639135820919
 32
0.0
 13
260.485846951894
 23
124.7639135820919
 33
0.0
  0
MTEXT
  5
128
330
112
100
AcDbEntity
  8
0
 62
     0
100
AcDbMText
 10
268.1941802852274
 20
126.6389135820919
 30
0.0
 40
2.5
 41
0.0
 71
     5
 72
     5
  1
1.2
 73
     1
 44
1.0
  0
POINT
  5
129
330
112
100
AcDbEntity
  8
Defpoints
 62
     0
100
AcDbPoint
 10
259.2858469515941
 20
124.2771671682887
 30
0.0
  0
POINT
  5
12A
330
112
100
AcDbEntity
  8
Defpoints
 62
     0
100
AcDbPoint
 10
260.485846951894
 20
124.2771671682887
 30
0.0
  0
POINT
  5
12B
330
112
100
AcDbEntity
  8
Defpoints
 62
     0
100
AcDbPoint
 10
260.485846951894
 20
124.7639135820919
 30
0.0
  0
ENDBLK
  5
11F
330
112
100
AcDbEntity
  8
0
100
AcDbBlockEnd
  0
ENDSEC
  0
SECTION
  2
ENTITIES
  0
LINE
  5
AC
330
28
100
AcDbEntity
  8
0
  6
Continuous
 62
     7
100
AcDbLine
 10
185.059034907674
 20
121.2771671688087
 30
0.0
 11
185.059034907674
 21
93.2771671694287
 31
0.0
  0
LINE
  5
AD
330
28
100
AcDbEntity
  8
0
  6
Continuous
 62
     7
100
AcDbLine
 10
188.059034909694
 20
90.2771671699487
 30
0.0
 11
225.0590349075141
 21
90.2771671699487
 31
0.0
  0
LINE
  5
AE
330
28
100
AcDbEntity
  8
0
  6
Continuous
 62
     7
100
AcDbLine
 10
192.409034909194
 20
118.2771671693287
 30
0.0
 11
192.409034909194
 21
124.2771671682887
 31
0.0
  0
LINE
  5
AF
330
28
100
AcDbEntity
  8
DEFAULT_2
  6
ByBlock
 62
     1
100
AcDbLine
 10
201.3090349095141
 20
97.6771671679887
 30
0.0
 11
202.5090349098141
 21
97.6771671679887
 31
0.0
  0
LINE
  5
B0
330
28
100
AcDbEntity
  8
DEFAULT_2
  6
ByBlock
 62
     1
100
AcDbLine
 10
210.609034907394
 20
97.6771671679887
 30
0.0
 11
211.8090349076941
 21
97.6771671679887
 31
0.0
  0
LINE
  5
B1
330
28
100
AcDbEntity
  8
0
  6
Continuous
 62
     7
100
AcDbLine
 10
200.209034909874
 20
118.2771671693287
 30
0.0
 11
200.209034909874
 21
123.2771671693087
 31
0.0
  0
LINE
  5
B2
330
28
100
AcDbEntity
  8
DEFAULT_2
  6
ByBlock
 62
     1
100
AcDbLine
 10
200.3090349079941
 20
117.8771671692287
 30
0.0
 11
200.3090349079941
 21
98.67716716950869
 31
0.0
  0
LINE
  5
B3
330
28
100
AcDbEntity
  8
DEFAULT_2
  6
ByBlock
 62
     1
100
AcDbLine
 10
203.5090349087941
 20
98.67716716950869
 30
0.0
 11
203.5090349087941
 21
117.8771671692287
 31
0.0
  0
LINE
  5
B4
330
28
100
AcDbEntity
  8
DEFAULT_2
  6
ByBlock
 62
     1
100
AcDbLine
 10
209.609034908414
 20
117.8771671692287
 30
0.0
 11
209.609034908414
 21
98.67716716950869
 31
0.0
  0
LINE
  5
B5
330
28
100
AcDbEntity
  8
DEFAULT_2
  6
ByBlock
 62
     1
100
AcDbLine
 10
212.8090349092141
 20
98.67716716950869
 30
0.0
 11
212.8090349092141
 21
117.8771671692287
 31
0.0
  0
LINE
  5
B6
330
28
100
AcDbEntity
  8
0
  6
Continuous
 62
     7
100
AcDbLine
 10
212.9090349098741
 20
123.2771671693087
 30
0.0
 11
212.9090349098741
 21
118.2771671693287
 31
0.0
  0
LINE
  5
B7
330
28
100
AcDbEntity
  8
0
  6
Continuous
 62
     7
100
AcDbLine
 10
192.409034909194
 20
118.2771671693287
 30
0.0
 11
200.209034909874
 21
118.2771671693287
 31
0.0
  0
LINE
  5
B8
330
28
100
AcDbEntity
  8
0
  6
Continuous
 62
     7
100
AcDbLine
 10
212.9090349098741
 20
118.2771671693287
 30
0.0
 11
220.7090349080141
 21
118.2771671693287
 31
0.0
  0
LINE
  5
B9
330
28
100
AcDbEntity
  8
DEFAULT_2
  6
ByBlock
 62
     1
100
AcDbLine
 10
211.8090349076941
 20
118.8771671682087
 30
0.0
 11
210.609034907394
 21
118.8771671682087
 31
0.0
  0
LINE
  5
BA
330
28
100
AcDbEntity
  8
DEFAULT_2
  6
ByBlock
 62
     1
100
AcDbLine
 10
202.5090349098141
 20
118.8771671682087
 30
0.0
 11
201.3090349095141
 21
118.8771671682087
 31
0.0
  0
LINE
  5
BB
330
28
100
AcDbEntity
  8
0
  6
Continuous
 62
     7
100
AcDbLine
 10
220.7090349080141
 20
124.2771671682887
 30
0.0
 11
220.7090349080141
 21
118.2771671693287
 31
0.0
  0
LINE
  5
BC
330
28
100
AcDbEntity
  8
0
  6
Continuous
 62
     7
100
AcDbLine
 10
200.209034909874
 20
123.2771671693087
 30
0.0
 11
212.9090349098741
 21
123.2771671693087
 31
0.0
  0
LINE
  5
BD
330
28
100
AcDbEntity
  8
0
  6
Continuous
 62
     7
100
AcDbLine
 10
225.0590349075141
 20
124.2771671682887
 30
0.0
 11
220.7090349080141
 21
124.2771671682887
 31
0.0
  0
LINE
  5
BE
330
28
100
AcDbEntity
  8
0
  6
Continuous
 62
     7
100
AcDbLine
 10
192.409034909194
 20
124.2771671682887
 30
0.0
 11
188.059034909694
 21
124.2771671682887
 31
0.0
  0
LINE
  5
BF
330
28
100
AcDbEntity
  8
0
  6
Continuous
 62
     7
100
AcDbLine
 10
228.0590349095341
 20
93.2771671694287
 30
0.0
 11
228.0590349095341
 21
121.2771671688087
 31
0.0
  0
LINE
  5
C0
330
28
100
AcDbEntity
  8
0
  6
Continuous
 62
     7
100
AcDbLine
 10
259.2858469515941
 20
90.2771671699487
 30
0.0
 11
260.485846951894
 21
90.2771671699487
 31
0.0
  0
LINE
  5
C1
330
28
100
AcDbEntity
  8
0
  6
Continuous
 62
     7
100
AcDbLine
 10
259.2858469515941
 20
93.2771671694287
 30
0.0
 11
260.485846951894
 21
93.2771671694287
 31
0.0
  0
LINE
  5
C2
330
28
100
AcDbEntity
  8
DEFAULT_2
  6
HIDDEN
 62
     8
100
AcDbLine
 10
260.485846951894
 20
96.3771671695687
 30
0.0
 11
259.2858469515941
 21
96.3771671695687
 31
0.0
  0
LINE
  5
C3
330
28
100
AcDbEntity
  8
DEFAULT_2
  6
HIDDEN
 62
     8
100
AcDbLine
 10
260.485846951894
 20
98.17716716874869
 30
0.0
 11
259.2858469515941
 21
98.17716716874869
 31
0.0
  0
LINE
  5
C4
330
28
100
AcDbEntity
  8
DEFAULT_2
  6
HIDDEN
 62
     8
100
AcDbLine
 10
260.485846951894
 20
106.1271671691487
 30
0.0
 11
259.2858469515941
 21
106.1271671691487
 31
0.0
  0
LINE
  5
C5
330
28
100
AcDbEntity
  8
0
  6
Continuous
 62
     7
100
AcDbLine
 10
259.2858469515941
 20
90.2771671699487
 30
0.0
 11
259.2858469515941
 21
106.0727829827687
 31
0.0
  0
LINE
  5
C6
330
28
100
AcDbEntity
  8
0
  6
Continuous
 62
     4
100
AcDbLine
 10
259.2858469515941
 20
106.0727829827687
 30
0.0
 11
259.2858469515941
 21
108.4815513529287
 31
0.0
  0
LINE
  5
C7
330
28
100
AcDbEntity
  8
0
  6
Continuous
 62
     7
100
AcDbLine
 10
259.2858469515941
 20
108.4815513529287
 30
0.0
 11
259.2858469515941
 21
124.2771671682887
 31
0.0
  0
LINE
  5
C8
330
28
100
AcDbEntity
  8
0
  6
Continuous
 62
     7
100
AcDbLine
 10
260.485846951894
 20
90.2771671699487
 30
0.0
 11
260.485846951894
 21
124.2771671682887
 31
0.0
  0
LINE
  5
C9
330
28
100
AcDbEntity
  8
DEFAULT_2
  6
HIDDEN
 62
     8
100
AcDbLine
 10
260.485846951894
 20
108.4271671690887
 30
0.0
 11
259.2858469515941
 21
108.4271671690887
 31
0.0
  0
LINE
  5
CA
330
28
100
AcDbEntity
  8
DEFAULT_2
  6
HIDDEN
 62
     8
100
AcDbLine
 10
259.2858469515941
 20
118.2771671693287
 30
0.0
 11
260.485846951894
 21
118.2771671693287
 31
0.0
  0
LINE
  5
CB
330
28
100
AcDbEntity
  8
0
  6
Continuous
 62
     7
100
AcDbLine
 10
259.2858469515941
 20
121.2771671688087
 30
0.0
 11
260.485846951894
 21
121.2771671688087
 31
0.0
  0
LINE
  5
CC
330
28
100
AcDbEntity
  8
DEFAULT_2
  6
HIDDEN
 62
     8
100
AcDbLine
 10
260.485846951894
 20
121.3771671694687
 30
0.0
 11
259.2858469515941
 21
121.3771671694687
 31
0.0
  0
LINE
  5
CD
330
28
100
AcDbEntity
  8
DEFAULT_2
  6
HIDDEN
 62
     8
100
AcDbLine
 10
260.485846951894
 20
123.1771671686487
 30
0.0
 11
259.2858469515941
 21
123.1771671686487
 31
0.0
  0
LINE
  5
CE
330
28
100
AcDbEntity
  8
DEFAULT_2
  6
HIDDEN
 62
     8
100
AcDbLine
 10
260.485846951894
 20
123.2771671693087
 30
0.0
 11
259.2858469515941
 21
123.2771671693087
 31
0.0
  0
LINE
  5
CF
102
{ACAD_REACTORS
330
12C
102
}
330
28
100
AcDbEntity
  8
0
  6
Continuous
 62
     7
100
AcDbLine
 10
259.2858469515941
 20
124.2771671682887
 30
0.0
 11
260.485846951894
 21
124.2771671682887
 31
0.0
  0
LINE
  5
D0
330
28
100
AcDbEntity
  8
0
  6
Continuous
 62
     7
100
AcDbLine
 10
301.5485624437741
 20
99.47176039870869
 30
0.0
 11
301.5485624437741
 21
96.77176040120869
 31
0.0
  0
LINE
  5
D1
330
28
100
AcDbEntity
  8
0
  6
Continuous
 62
     4
100
AcDbLine
 10
302.6985624450141
 20
83.7717603992287
 30
0.0
 11
302.6985624450141
 21
103.7717603991487
 31
0.0
  0
LINE
  5
D2
330
28
100
AcDbEntity
  8
0
  6
Continuous
 62
     4
100
AcDbLine
 10
304.6985624429741
 20
99.5717603993687
 30
0.0
 11
304.6985624429741
 21
83.7717603992287
 31
0.0
  0
LINE
  5
D3
330
28
100
AcDbEntity
  8
0
  6
Continuous
 62
     7
100
AcDbLine
 10
328.6985624438941
 20
83.7717603992287
 30
0.0
 11
304.6985624429741
 21
83.7717603992287
 31
0.0
  0
LINE
  5
D4
330
28
100
AcDbEntity
  8
0
  6
Continuous
 62
     4
100
AcDbLine
 10
304.6985624429741
 20
83.7717603992287
 30
0.0
 11
302.6985624450141
 21
83.7717603992287
 31
0.0
  0
LINE
  5
D5
330
28
100
AcDbEntity
  8
0
  6
Continuous
 62
     4
100
AcDbLine
 10
328.6985624438941
 20
83.7717603992287
 30
0.0
 11
330.6985624443941
 21
83.7717603992287
 31
0.0
  0
LINE
  5
D6
330
28
100
AcDbEntity
  8
0
  6
Continuous
 62
     1
100
AcDbLine
 10
309.6985624429541
 20
103.7717603991487
 30
0.0
 11
309.6985624429541
 21
99.5717603993687
 31
0.0
  0
LINE
  5
D7
330
28
100
AcDbEntity
  8
0
  6
Continuous
 62
     7
100
AcDbLine
 10
301.5485624437741
 20
96.77176040120869
 30
0.0
 11
302.6985624450141
 21
96.77176040120869
 31
0.0
  0
LINE
  5
D8
330
28
100
AcDbEntity
  8
0
  6
Continuous
 62
     7
100
AcDbLine
 10
330.6985624443941
 20
96.77176040120869
 30
0.0
 11
331.848562443094
 21
96.77176040120869
 31
0.0
  0
LINE
  5
D9
330
28
100
AcDbEntity
  8
0
  6
Continuous
 62
     7
100
AcDbLine
 10
331.848562443094
 20
99.47176039870869
 30
0.0
 11
330.6985624443941
 21
99.47176039870869
 31
0.0
  0
LINE
  5
DA
330
28
100
AcDbEntity
  8
0
  6
Continuous
 62
     7
100
AcDbLine
 10
302.6985624450141
 20
99.47176039870869
 30
0.0
 11
301.5485624437741
 21
99.47176039870869
 31
0.0
  0
LINE
  5
DB
330
28
100
AcDbEntity
  8
0
  6
Continuous
 62
     1
100
AcDbLine
 10
309.6985624429541
 20
99.5717603993687
 30
0.0
 11
302.6985624450141
 21
99.5717603993687
 31
0.0
  0
LINE
  5
DC
330
28
100
AcDbEntity
  8
0
  6
Continuous
 62
     1
100
AcDbLine
 10
323.6985624439141
 20
99.5717603993687
 30
0.0
 11
330.6985624443941
 21
99.5717603993687
 31
0.0
  0
LINE
  5
DD
330
28
100
AcDbEntity
  8
0
  6
Continuous
 62
     1
100
AcDbLine
 10
323.6985624439141
 20
103.7717603991487
 30
0.0
 11
323.6985624439141
 21
99.5717603993687
 31
0.0
  0
LINE
  5
DE
330
28
100
AcDbEntity
  8
0
  6
Continuous
 62
     1
100
AcDbLine
 10
330.6985624443941
 20
103.7717603991487
 30
0.0
 11
323.6985624439141
 21
103.7717603991487
 31
0.0
  0
LINE
  5
DF
330
28
100
AcDbEntity
  8
0
  6
Continuous
 62
     1
100
AcDbLine
 10
302.6985624450141
 20
103.7717603991487
 30
0.0
 11
309.6985624429541
 21
103.7717603991487
 31
0.0
  0
LINE
  5
E0
330
28
100
AcDbEntity
  8
0
  6
Continuous
 62
     7
100
AcDbLine
 10
309.6985624429541
 20
103.7717603991487
 30
0.0
 11
323.6985624439141
 21
103.7717603991487
 31
0.0
  0
LINE
  5
E1
330
28
100
AcDbEntity
  8
0
  6
Continuous
 62
     4
100
AcDbLine
 10
328.698562443894
 20
99.5717603993687
 30
0.0
 11
328.6985624438941
 21
83.7717603992287
 31
0.0
  0
LINE
  5
E2
330
28
100
AcDbEntity
  8
0
  6
Continuous
 62
     4
100
AcDbLine
 10
330.6985624443941
 20
83.7717603992287
 30
0.0
 11
330.6985624443941
 21
103.7717603991487
 31
0.0
  0
LINE
  5
E3
330
28
100
AcDbEntity
  8
0
  6
Continuous
 62
     7
100
AcDbLine
 10
331.848562443094
 20
96.77176040120869
 30
0.0
 11
331.848562443094
 21
99.47176039870869
 31
0.0
  0
LINE
  5
E4
330
28
100
AcDbEntity
  8
0
  6
Continuous
 62
     7
100
AcDbLine
 10
356.1674416538541
 20
83.7717603992287
 30
0.0
 11
357.367441654154
 21
83.7717603992287
 31
0.0
  0
LINE
  5
E5
330
28
100
AcDbEntity
  8
DEFAULT_2
  6
HIDDEN
 62
     8
100
AcDbLine
 10
357.367441654154
 20
86.3217603995487
 30
0.0
 11
356.1674416538541
 21
86.3217603995487
 31
0.0
  0
LINE
  5
E6
330
28
100
AcDbEntity
  8
DEFAULT_2
  6
HIDDEN
 62
     8
100
AcDbLine
 10
357.367441654154
 20
87.22176040040869
 30
0.0
 11
356.1674416538541
 21
87.22176040040869
 31
0.0
  0
LINE
  5
E7
330
28
100
AcDbEntity
  8
DEFAULT_2
  6
HIDDEN
 62
     8
100
AcDbLine
 10
357.367441654154
 20
88.3217604000487
 30
0.0
 11
356.1674416538541
 21
88.3217604000487
 31
0.0
  0
LINE
  5
E8
330
28
100
AcDbEntity
  8
DEFAULT_2
  6
HIDDEN
 62
     8
100
AcDbLine
 10
357.367441654154
 20
89.22176040090869
 30
0.0
 11
356.1674416538541
 21
89.22176040090869
 31
0.0
  0
LINE
  5
E9
330
28
100
AcDbEntity
  8
0
  6
Continuous
 62
     4
100
AcDbLine
 10
356.1674416538541
 20
83.7717603992287
 30
0.0
 11
356.1674416538541
 21
96.77176040120869
 31
0.0
  0
LINE
  5
EA
330
28
100
AcDbEntity
  8
0
  6
Continuous
 62
     7
100
AcDbLine
 10
356.1674416538541
 20
96.77176040120869
 30
0.0
 11
356.1674416538541
 21
99.47176039870869
 31
0.0
  0
LINE
  5
EB
330
28
100
AcDbEntity
  8
0
  6
Continuous
 62
     4
100
AcDbLine
 10
356.1674416538541
 20
99.47176039870869
 30
0.0
 11
356.1674416538541
 21
103.7717603991487
 31
0.0
  0
LINE
  5
EC
330
28
100
AcDbEntity
  8
0
  6
Continuous
 62
     7
100
AcDbLine
 10
357.367441654154
 20
83.7717603992287
 30
0.0
 11
357.367441654154
 21
103.7717603991487
 31
0.0
  0
LINE
  5
ED
330
28
100
AcDbEntity
  8
0
  6
Continuous
 62
     7
100
AcDbLine
 10
356.1674416538541
 20
96.77176040120869
 30
0.0
 11
357.367441654154
 21
96.77176040120869
 31
0.0
  0
LINE
  5
EE
330
28
100
AcDbEntity
  8
0
  6
Continuous
 62
     7
100
AcDbLine
 10
356.1674416538541
 20
99.47176039870869
 30
0.0
 11
357.367441654154
 21
99.47176039870869
 31
0.0
  0
LINE
  5
EF
330
28
100
AcDbEntity
  8
0
  6
Continuous
 62
     7
100
AcDbLine
 10
356.1674416538541
 20
103.7717603991487
 30
0.0
 11
357.367441654154
 21
103.7717603991487
 31
0.0
  0
ARC
  5
F0
330
28
100
AcDbEntity
  8
0
  6
Continuous
 62
     7
100
AcDbCircle
 10
225.0590349075141
 20
121.2771671688087
 30
0.0
 40
2.999999999479999
100
AcDbArc
 50
0.0
 51
90.0
  0
ARC
  5
F1
330
28
100
AcDbEntity
  8
0
  6
Continuous
 62
     7
100
AcDbCircle
 10
225.0590349075141
 20
93.2771671694287
 30
0.0
 40
2.999999999479999
100
AcDbArc
 50
270.0
 51
0.0
  0
ARC
  5
F2
330
28
100
AcDbEntity
  8
0
  6
Continuous
 62
     7
100
AcDbCircle
 10
188.059034909694
 20
93.2771671694287
 30
0.0
 40
2.999999999479999
100
AcDbArc
 50
180.0
 51
270.0
  0
ARC
  5
F3
330
28
100
AcDbEntity
  8
0
  6
Continuous
 62
     7
100
AcDbCircle
 10
188.059034909694
 20
121.2771671688087
 30
0.0
 40
2.999999999479999
100
AcDbArc
 50
90.0
 51
180.0
  0
CIRCLE
  5
F4
330
28
100
AcDbEntity
  8
0
  6
Continuous
 62
     4
100
AcDbCircle
 10
187.059034908174
 20
107.2771671678487
 30
0.0
 40
2.500000001259999
  0
CIRCLE
  5
F5
330
28
100
AcDbEntity
  8
0
  6
Continuous
 62
     4
100
AcDbCircle
 10
226.0590349090341
 20
107.2771671678487
 30
0.0
 40
2.500000001259999
  0
CIRCLE
  5
F6
330
28
100
AcDbEntity
  8
DEFAULT_2
  6
ByBlock
 62
     1
100
AcDbCircle
 10
224.0590349085341
 20
122.2771671677887
 30
0.0
 40
2.0000000005
  0
CIRCLE
  5
F7
330
28
100
AcDbEntity
  8
DEFAULT_2
  6
ByBlock
 62
     1
100
AcDbCircle
 10
189.059034908674
 20
122.2771671677887
 30
0.0
 40
2.0000000005
  0
CIRCLE
  5
F8
330
28
100
AcDbEntity
  8
DEFAULT_2
  6
ByBlock
 62
     1
100
AcDbCircle
 10
206.5590349098741
 20
97.2771671678887
 30
0.0
 40
2.0000000005
  0
CIRCLE
  5
F9
330
28
100
AcDbEntity
  8
0
  6
Continuous
 62
     7
100
AcDbCircle
 10
187.059034908174
 20
107.2771671678487
 30
0.0
 40
1.150000001239999
  0
CIRCLE
  5
FA
330
28
100
AcDbEntity
  8
0
  6
Continuous
 62
     7
100
AcDbCircle
 10
226.0590349090341
 20
107.2771671678487
 30
0.0
 40
1.150000001239999
  0
ARC
  5
FB
330
28
100
AcDbEntity
  8
DEFAULT_2
  6
ByBlock
 62
     1
100
AcDbCircle
 10
211.8090349076941
 20
98.67716716950869
 30
0.0
 40
0.9999999989799999
100
AcDbArc
 50
270.0
 51
0.0
  0
ARC
  5
FC
330
28
100
AcDbEntity
  8
DEFAULT_2
  6
ByBlock
 62
     1
100
AcDbCircle
 10
211.8090349076941
 20
117.8771671692287
 30
0.0
 40
0.9999999989799999
100
AcDbArc
 50
0.0
 51
90.0
  0
ARC
  5
FD
330
28
100
AcDbEntity
  8
DEFAULT_2
  6
ByBlock
 62
     1
100
AcDbCircle
 10
210.609034907394
 20
117.8771671692287
 30
0.0
 40
0.9999999989799999
100
AcDbArc
 50
90.0
 51
180.0
  0
ARC
  5
FE
330
28
100
AcDbEntity
  8
DEFAULT_2
  6
ByBlock
 62
     1
100
AcDbCircle
 10
210.609034907394
 20
98.67716716950869
 30
0.0
 40
0.9999999989799999
100
AcDbArc
 50
180.0
 51
270.0
  0
ARC
  5
FF
330
28
100
AcDbEntity
  8
DEFAULT_2
  6
ByBlock
 62
     1
100
AcDbCircle
 10
202.5090349098141
 20
117.8771671692287
 30
0.0
 40
0.9999999989799999
100
AcDbArc
 50
0.0
 51
90.0
  0
ARC
  5
100
330
28
100
AcDbEntity
  8
DEFAULT_2
  6
ByBlock
 62
     1
100
AcDbCircle
 10
201.3090349095141
 20
117.8771671692287
 30
0.0
 40
0.9999999989799999
100
AcDbArc
 50
90.0
 51
180.0
  0
ARC
  5
101
330
28
100
AcDbEntity
  8
DEFAULT_2
  6
ByBlock
 62
     1
100
AcDbCircle
 10
201.3090349095141
 20
98.67716716950869
 30
0.0
 40
0.9999999989799999
100
AcDbArc
 50
180.0
 51
270.0
  0
ARC
  5
102
330
28
100
AcDbEntity
  8
DEFAULT_2
  6
ByBlock
 62
     1
100
AcDbCircle
 10
202.5090349098141
 20
98.67716716950869
 30
0.0
 40
0.9999999989799999
100
AcDbArc
 50
270.0
 51
0.0
  0
CIRCLE
  5
103
330
28
100
AcDbEntity
  8
0
  6
Continuous
 62
     7
100
AcDbCircle
 10
189.059034908674
 20
122.2771671677887
 30
0.0
 40
0.9000000008599998
  0
CIRCLE
  5
104
330
28
100
AcDbEntity
  8
0
  6
Continuous
 62
     7
100
AcDbCircle
 10
224.0590349085341
 20
122.2771671677887
 30
0.0
 40
0.9000000008599998
  0
CIRCLE
  5
105
330
28
100
AcDbEntity
  8
0
  6
Continuous
 62
     7
100
AcDbCircle
 10
206.5590349098741
 20
97.2771671678887
 30
0.0
 40
0.9000000008599998
  0
CIRCLE
  5
106
330
28
100
AcDbEntity
  8
0
  6
Continuous
 62
     7
100
AcDbCircle
 10
310.018562443034
 20
88.77176039920868
 30
0.0
 40
0.4499999991600001
  0
CIRCLE
  5
107
330
28
100
AcDbEntity
  8
0
  6
Continuous
 62
     7
100
AcDbCircle
 10
314.018562444034
 20
88.77176039920868
 30
0.0
 40
0.4499999991600001
  0
CIRCLE
  5
108
330
28
100
AcDbEntity
  8
0
  6
Continuous
 62
     7
100
AcDbCircle
 10
310.018562443034
 20
86.7717603987087
 30
0.0
 40
0.4499999991600001
  0
CIRCLE
  5
109
330
28
100
AcDbEntity
  8
0
  6
Continuous
 62
     7
100
AcDbCircle
 10
314.018562444034
 20
86.7717603987087
 30
0.0
 40
0.4499999991600001
  0
CIRCLE
  5
10A
330
28
100
AcDbEntity
  8
0
  6
Continuous
 62
     7
100
AcDbCircle
 10
323.3785624438341
 20
88.77176039920868
 30
0.0
 40
0.4499999991600001
  0
CIRCLE
  5
10B
330
28
100
AcDbEntity
  8
0
  6
Continuous
 62
     7
100
AcDbCircle
 10
319.3785624428341
 20
88.77176039920868
 30
0.0
 40
0.4499999991600001
  0
CIRCLE
  5
10C
330
28
100
AcDbEntity
  8
0
  6
Continuous
 62
     7
100
AcDbCircle
 10
323.3785624438341
 20
86.7717603987087
 30
0.0
 40
0.4499999991600001
  0
CIRCLE
  5
10D
330
28
100
AcDbEntity
  8
0
  6
Continuous
 62
     7
100
AcDbCircle
 10
319.3785624428341
 20
86.7717603987087
 30
0.0
 40
0.4499999991600001
  0
DIMENSION
  5
110
102
{ACAD_XDICTIONARY
360
120
102
}
102
{ACAD_REACTORS
330
12C
102
}
330
28
100
AcDbEntity
  8
0
100
AcDbDimension
  2
*D2
 10
260.485846951894
 20
124.7639135820919
 30
0.0
 11
268.1941802852274
 21
126.6389135820919
 31
0.0
 70
    32
 71
     5
 42
1.200000000299999
  3
ISO-25
100
AcDbAlignedDimension
 13
259.2858469515941
 23
124.2771671682887
 33
0.0
 14
260.485846951894
 24
124.2771671682887
 34
0.0
100
AcDbRotatedDimension
  0
MTEXT
  5
12E
330
28
100
AcDbEntity
  8
0
100
AcDbMText
 10
303.5989347179831
 20
102.8069077078781
 30
0.0
 40
0.5
 41
13.83603911055201
 71
     1
 72
     5
  1
4PIN{\fSimSun|b0|i0|c134|p2;\P}
 73
     1
 44
1.0
1001
ACAD
1000
ACAD_MTEXT_DEFINED_HEIGHT_BEGIN
1070
    46
1040
0.7833474416130457
1000
ACAD_MTEXT_DEFINED_HEIGHT_END
  0
MTEXT
  5
138
330
28
100
AcDbEntity
  8
0
100
AcDbMText
 10
324.9971220500068
 20
102.6321500557306
 30
0.0
 40
0.5
 41
13.83603911055201
 71
     1
 72
     5
  1
4PIN{\fSimSun|b0|i0|c134|p2;\P}
 73
     1
 44
1.0
  0
MULTILEADER
  5
139
330
28
100
AcDbEntity
  8
0
 92
      548
310
24020000120000000C00000016000000000000C00C00000013000000993A0000A80000000B00000092B6413F35587240384DB5D6B7515340000000000000000000000000000000000000000000000000000000000000F03F000000000000F03F00000000000000000000000000000000B2BBD2AAB7C5D6C3D4AABCFE7D0037
310
0E0C00000001000000000000000000E03F000000000000F03F0000000000000000000000000000F03F0000000000000000000000000000000000000000CBCECCE500CFD07E000000000C00000010000000000000000C00000016000000000000C00C00000013000000112700003C0000000600000002000000E2B0E68E2FA3
310
7240E8521087BD6453400000000000000000EC878AFF6C9D7240E8521087BD64534000000000000000000C00000010000000000000000C00000013000000010000000C0000001400000001000000540000000700000003000000FF2C772AEAF37240810EF41BE96755400000000000000000B2E57F9EDBF5724070023B99A0
310
7055400000000000000000A6FE9FFCB9F47240AC4EAE62DC65554000000000000000000C00000014000000010000000C00000013000000891300003C0000000600000002000000D2958B1352F47240972E51BFE26655400000000000000000E2B0E68E2FA37240E8521087BD64534000000000000000000C00000013000000
310
9A3A00000C00000016000000000000C00C00000012000000FF7F00000C00000017000000FFFFFFFF
100
AcDbMLeader
300
CONTEXT_DATA{
 40
1.0
 10
293.4618886682965
 20
77.5740678462422
 30
0.0
 41
0.5
140
0.18
145
0.09
174
     1
175
     1
176
     2
177
     0
290
     1
304
{\fSimSun|b0|i0|c134|p2;}
 11
0.0
 21
0.0
 31
1.0
340
11
 12
297.7491108905186
 22
77.86017895735331
 32
0.0
 13
1.0
 23
0.0
 33
0.0
 42
0.0
 43
0.0
 44
0.36
 45
1.0
170
     1
 90
-1073741824
171
     3
172
     5
 91
-1073741824
141
0.0
 92
 14029616
291
     0
292
     0
173
     0
293
     0
142
0.0
143
0.0
294
     0
295
     0
296
     0
110
303.3661179538714
120
85.75980215799949
130
0.0
111
1.0
121
0.0
131
0.0
112
0.0
122
1.0
132
0.0
297
     0
302
LEADER{
290
     1
291
     1
 10
298.1991108905187
 20
77.5740678462422
 30
0.0
 11
-1.0
 21
0.0
 31
0.0
 90
        0
 40
0.36
304
LEADER_LINE{
 10
303.3661179538714
 20
85.75980215799949
 30
0.0
 91
        0
305
}
303
}
301
}
340
23
 90
 17122304
170
     1
 91
-1056964608
341
14
171
    -2
290
     0
291
     1
 41
0.36
 42
0.18
172
     2
343
11
173
     1
 95
        1
174
     1
175
     2
 92
-1056964608
292
     0
 93
-1056964608
 10
1.0
 20
1.0
 30
1.0
 43
0.0
176
     0
293
     0
294
     0
178
     0
179
     3
 45
1.0
1001
ACAD_MLEADERVER
1070
     2
  0
MULTILEADER
  5
142
330
28
100
AcDbEntity
  8
0
 92
      548
310
24020000120000000C00000016000000000000C00C00000013000000993A0000A80000000B000000A64B8B26F7017440486F71303CFA5240000000000000000000000000000000000000000000000000000000000000F03F000000000000F03F00000000000000000000000000000000B2BBD2AAB7C5D6C3D4AABCFE7D0037
310
0E0C00000001000000000000000000E03F000000000000F03F0000000000000000000000000000F03F0000000000000000000000000000000000000000CBCECCE500CFD07E000000000C00000010000000000000000C00000016000000000000C00C00000013000000112700003C0000000600000002000000F6453076F14C
310
7440F874CCE0410D53400000000000000000001DD4E62E477440F874CCE0410D534000000000000000000C00000010000000000000000C00000013000000010000000C000000140000000100000054000000070000000300000013C2C011AC9D74409130B0756D1055400000000000000000C67AC9859D9F74408024F7F224
310
1955400000000000000000BA93E9E37B9E7440BC706ABC600E554000000000000000000C00000014000000010000000C00000013000000891300003C0000000600000002000000E62AD5FA139E7440A7500D19670F55400000000000000000F6453076F14C7440F874CCE0410D534000000000000000000C00000013000000
310
9A3A00000C00000016000000000000C00C00000012000000FF7F00000C00000017000000FFFFFFFF
100
AcDbMLeader
300
CONTEXT_DATA{
 40
1.0
 10
320.0717283818041
 20
76.2071458813333
 30
0.0
 41
0.5
140
0.18
145
0.09
174
     1
175
     1
176
     2
177
     0
290
     1
304
{\fSimSun|b0|i0|c134|p2;}
 11
0.0
 21
0.0
 31
1.0
340
11
 12
324.3589506040263
 22
76.49325699244442
 32
0.0
 13
1.0
 23
0.0
 33
0.0
 42
0.0
 43
0.0
 44
0.36
 45
1.0
170
     1
 90
-1073741824
171
     3
172
     5
 91
-1073741824
141
0.0
 92
        0
291
     0
292
     0
173
     0
293
     0
142
0.0
143
0.0
294
     0
295
     0
296
     0
110
329.975957667379
120
84.3928801930906
130
0.0
111
1.0
121
0.0
131
0.0
112
0.0
122
1.0
132
0.0
297
     0
302
LEADER{
290
     1
291
     1
 10
324.8089506040263
 20
76.2071458813333
 30
0.0
 11
-0.9999999999999998
 21
0.0
 31
0.0
 90
        0
 40
0.3599999999999999
304
LEADER_LINE{
 10
329.975957667379
 20
84.3928801930906
 30
0.0
 91
        0
305
}
303
}
301
}
340
23
 90
 17122304
170
     1
 91
-1056964608
341
14
171
    -2
290
     0
291
     1
 41
0.36
 42
0.18
172
     2
343
11
173
     1
 95
        1
174
     1
175
     2
 92
-1056964608
292
     0
 93
-1056964608
 10
1.0
 20
1.0
 30
1.0
 43
0.0
176
     0
293
     0
294
     0
178
     0
179
     3
 45
1.0
1001
ACAD_MLEADERVER
1070
     2
  0
MULTILEADER
  5
14B
330
28
100
AcDbEntity
  8
0
 92
      544
310
20020000120000000C00000016000000000000C00C00000013000000993A0000A40000000B000000C6B101BFCE1A73407B1BAB6B157A5340000000000000000000000000000000000000000000000000000000000000F03F000000000000F03F00000000000000000000000000000000B9E2F1EED7F9D7D37D00BCFE080000
310
0001000000000000000000E03F000000000000F03F0000000000000000000000000000F03F0000000000000000000000000000000000000000CBCECCE500CECCE500CFD07E0C00000010000000000000000C00000016000000000000C00C00000013000000112700003C00000006000000020000004ADFD941FC4E7340A8F3
310
2D99ED8C5340000000000000000054B67DB239497340A8F32D99ED8C534000000000000000000C00000010000000000000000C00000013000000010000000C0000001400000001000000540000000700000003000000675B6ADDB69F734041AF112E1990554000000000000000001A147351A8A1734030A358ABD098554000
310
000000000000000E2D93AF86A073406CEFCB740C8E554000000000000000000C00000014000000010000000C00000013000000891300003C00000006000000020000003AC47EC61EA0734057CF6ED1128F554000000000000000004ADFD941FC4E7340A8F32D99ED8C534000000000000000000C000000130000009A3A0000
310
0C00000016000000000000C00C00000012000000FF7F00000C00000017000000FFFFFFFF
100
AcDbMLeader
300
CONTEXT_DATA{
 40
1.0
 10
305.6188084601901
 20
78.20200185286978
 30
0.0
 41
0.5
140
0.18
145
0.09
174
     1
175
     1
176
     2
177
     0
290
     1
304
{\fSimSun|b0|i0|c134|p2;}
 11
0.0
 21
0.0
 31
1.0
340
11
 12
308.4865862379678
 22
78.48811296398089
 32
0.0
 13
1.0
 23
0.0
 33
0.0
 42
0.0
 43
0.0
 44
1.0
 45
1.0
170
     1
 90
-1073741824
171
     3
172
     5
 91
-1073741824
141
0.0
 92
        0
291
     0
292
     0
173
     0
293
     0
142
0.0
143
0.0
294
     0
295
     0
296
     0
110
314.1035933013205
120
86.38773616462708
130
0.0
111
1.0
121
0.0
131
0.0
112
0.0
122
1.0
132
0.0
297
     0
302
LEADER{
290
     1
291
     1
 10
308.9365862379679
 20
78.20200185286978
 30
0.0
 11
-0.9999999999999998
 21
0.0
 31
0.0
 90
        0
 40
0.3599999999999998
304
LEADER_LINE{
 10
314.1035933013205
 20
86.38773616462708
 30
0.0
 91
        0
305
}
303
}
301
}
340
23
 90
 17122304
170
     1
 91
-1056964608
341
14
171
    -2
290
     0
291
     1
 41
0.36
 42
0.18
172
     2
343
11
173
     1
 95
        1
174
     1
175
     2
 92
-1056964608
292
     0
 93
-1056964608
 10
1.0
 20
1.0
 30
1.0
 43
0.0
176
     0
293
     0
294
     0
178
     0
179
     3
 45
1.0
1001
ACAD_MLEADERVER
1070
     2
  0
LWPOLYLINE
  5
14D
330
28
100
AcDbEntity
  8
0
 62
     2
100
AcDbPolyline
 90
        4
 70
     1
 43
0.0
 10
309.6985624429541
 20
99.5717603993687
 10
323.6927103807228
 20
99.5717603993687
 10
323.6927103807228
 20
101.2633921397041
 10
309.6985624429541
 20
101.2633921397041
  0
MULTILEADER
  5
156
330
28
100
AcDbEntity
  8
0
 92
      548
310
24020000120000000C00000016000000000000C00C00000013000000993A0000A80000000B000000D20A73C39530734040336E0639EB5640000000000000000000000000000000000000000000000000000000000000F03F000000000000F03F00000000000000000000000000000000B2BBD2AAB7C5D6C3D4AABCFE7D0000
310
000C00000001000000000000000000E03F000000000000F03F0000000000000000000000000000F03F0000000000000000000000000000000000000000CBCECCE500CFD07E000000000C00000010000000000000000C00000016000000000000C00C00000013000000112700003C000000060000000200000022051813907B
310
7340F038C9B63EFE564000000000000000002CDCBB83CD757340F038C9B63EFE564000000000000000000C00000010000000000000000C00000013000000010000000C00000014000000010000005400000007000000030000003F81A8AE4ACC734089F4AC4B6A0159400000000000000000F239B1223CCE734078E8F3C821
310
0A59400000000000000000E652D1801ACD7340B43467925DFF584000000000000000000C00000014000000010000000C00000013000000891300003C000000060000000200000012EABC97B2CC73409F140AEF63005940000000000000000022051813907B7340F038C9B63EFE564000000000000000000C00000013000000
310
9A3A00000C00000016000000000000C00C00000012000000FF7F00000C00000017000000FFFFFFFF
100
AcDbMLeader
300
CONTEXT_DATA{
 40
1.0
 10
306.9854522370714
 20
91.97257775927187
 30
0.0
 41
0.5
140
0.18
145
0.09
174
     1
175
     1
176
     2
177
     0
290
     1
304
{\fSimSun|b0|i0|c134|p2;}
 11
0.0
 21
0.0
 31
1.0
340
11
 12
311.2726744592936
 22
92.25868887038298
 32
0.0
 13
1.0
 23
0.0
 33
0.0
 42
0.0
 43
0.0
 44
0.36
 45
1.0
170
     1
 90
-1073741824
171
     3
172
     5
 91
-1073741824
141
0.0
 92
        0
291
     0
292
     0
173
     0
293
     0
142
0.0
143
0.0
294
     0
295
     0
296
     0
110
316.8896815226464
120
100.1583120710291
130
0.0
111
1.0
121
0.0
131
0.0
112
0.0
122
1.0
132
0.0
297
     0
302
LEADER{
290
     1
291
     1
 10
311.7226744592937
 20
91.97257775927187
 30
0.0
 11
-0.9999999999999998
 21
0.0
 31
0.0
 90
        0
 40
0.3599999999999999
304
LEADER_LINE{
 10
316.8896815226464
 20
100.1583120710291
 30
0.0
 91
        0
305
}
303
}
301
}
340
23
 90
 17122304
170
     1
 91
-1056964608
341
14
171
    -2
290
     0
291
     1
 41
0.36
 42
0.18
172
     2
343
11
173
     1
 95
        1
174
     1
175
     2
 92
-1056964608
292
     0
 93
-1056964608
 10
1.0
 20
1.0
 30
1.0
 43
0.0
176
     0
293
     0
294
     0
178
     0
179
     3
 45
1.0
1001
ACAD_MLEADERVER
1070
     2
  0
MULTILEADER
  5
15F
330
28
100
AcDbEntity
  8
0
 92
      548
310
24020000120000000C00000016000000000000C00C00000013000000993A0000A80000000B00000010FF5501D7E867409D1E865E43D15640000000000000000000000000000000000000000000000000000000000000F03F000000000000F03F00000000000000000000000000000000B1B3C3E6CFDEB8DF302E396D6D7D00
310
000D00000001000000000000000000E03F000000000000F03F0000000000000000000000000000F03F0000000000000000000000000000000000000000CBCECCE500CFD07E000000000C00000010000000000000000C00000016000000000000C00C00000013000000112700003C0000000600000002000000F437E4E40F8B
310
6840D051B99176E45640000000000000000008E62BC68A7F6840D051B99176E4564000000000000000000C00000010000000000000000C00000013000000010000000C00000014000000010000005400000007000000030000002D30051C852C6940690D9D26A2E75840000000000000000094A11604683069405801E4A359
310
F0584000000000000000007CD356C0242E6940944D576D95E5584000000000000000000C00000014000000010000000C00000013000000891300003C0000000600000002000000D5012EEE542D69407F2DFAC99BE658400000000000000000F437E4E40F8B6840D051B99176E4564000000000000000000C00000013000000
310
9A3A00000C00000016000000000000C00C00000012000000FF7F00000C00000017000000FFFFFFFF
100
AcDbMLeader
300
CONTEXT_DATA{
 40
1.0
 10
191.2251346430942
 20
91.56973689172378
 30
0.0
 41
0.5
140
0.18
145
0.09
174
     1
175
     1
176
     2
177
     0
290
     1
304
{\fSimSun|b0|i0|c134|p2;0.9mm}
 11
0.0
 21
0.0
 31
1.0
340
11
 12
195.8956901986497
 22
91.85584800283489
 32
0.0
 13
1.0
 23
0.0
 33
0.0
 42
0.0
 43
0.0
 44
1.0
 45
1.0
170
     1
 90
-1073741824
171
     3
172
     5
 91
-1073741824
141
0.0
 92
        0
291
     0
292
     0
173
     0
293
     0
142
0.0
143
0.0
294
     0
295
     0
296
     0
110
201.5126972620024
120
99.75547120348108
130
0.0
111
1.0
121
0.0
131
0.0
112
0.0
122
1.0
132
0.0
297
     0
302
LEADER{
290
     1
291
     1
 10
196.3456901986497
 20
91.56973689172378
 30
0.0
 11
-0.9999999999999998
 21
0.0
 31
0.0
 90
        0
 40
0.3599999999999999
304
LEADER_LINE{
 10
201.5126972620024
 20
99.75547120348108
 30
0.0
 91
        0
305
}
303
}
301
}
340
23
 90
 17122304
170
     1
 91
-1056964608
341
14
171
    -2
290
     0
291
     1
 41
0.36
 42
0.18
172
     2
343
11
173
     1
 95
        1
174
     1
175
     2
 92
-1056964608
292
     0
 93
-1056964608
 10
1.0
 20
1.0
 30
1.0
 43
0.0
176
     0
293
     0
294
     0
178
     0
179
     3
 45
1.0
1001
ACAD_MLEADERVER
1070
     2
  0
MULTILEADER
  5
168
330
28
100
AcDbEntity
  8
0
 92
      548
310
24020000120000000C00000016000000000000C00C00000013000000993A0000A80000000B000000207EEEE8A53369406D65CA22F6C25640000000000000000000000000000000000000000000000000000000000000F03F000000000000F03F00000000000000000000000000000000B1B3C3E6CFDEB8DF302E396D6D7D00
310
000D00000001000000000000000000E03F000000000000F03F0000000000000000000000000000F03F0000000000000000000000000000000000000000CBCECCE500CFD07E000000000C00000010000000000000000C00000016000000000000C00C00000013000000112700003C000000060000000200000004B77CCCDED5
310
6940A098FD5529D6564000000000000000001865C4AD59CA6940A098FD5529D6564000000000000000000C00000010000000000000000C00000013000000010000000C00000014000000010000005400000007000000030000003DAF9D0354776A403954E1EA54D958400000000000000000A420AFEB367B6A40284828680C
310
E2584000000000000000008C52EFA7F3786A4064949B3148D7584000000000000000000C00000014000000010000000C00000013000000891300003C0000000600000002000000E580C6D523786A404F743E8E4ED85840000000000000000004B77CCCDED56940A098FD5529D6564000000000000000000C00000013000000
310
9A3A00000C00000016000000000000C00C00000012000000FF7F00000C00000017000000FFFFFFFF
100
AcDbMLeader
300
CONTEXT_DATA{
 40
1.0
 10
201.5628915608993
 20
91.34627294316533
 30
0.0
 41
0.5
140
0.18
145
0.09
174
     1
175
     1
176
     2
177
     0
290
     1
304
{\fSimSun|b0|i0|c134|p2;0.9mm}
 11
0.0
 21
0.0
 31
1.0
340
11
 12
206.2334471164549
 22
91.63238405427645
 32
0.0
 13
1.0
 23
0.0
 33
0.0
 42
0.0
 43
0.0
 44
1.0
 45
1.0
170
     1
 90
-1073741824
171
     3
172
     5
 91
-1073741824
141
0.0
 92
        0
291
     0
292
     0
173
     0
293
     0
142
0.0
143
0.0
294
     0
295
     0
296
     0
110
211.8504541798076
120
99.53200725492264
130
0.0
111
1.0
121
0.0
131
0.0
112
0.0
122
1.0
132
0.0
297
     0
302
LEADER{
290
     1
291
     1
 10
206.6834471164549
 20
91.34627294316533
 30
0.0
 11
-0.9999999999999998
 21
0.0
 31
0.0
 90
        0
 40
0.3599999999999998
304
LEADER_LINE{
 10
211.8504541798076
 20
99.53200725492264
 30
0.0
 91
        0
305
}
303
}
301
}
340
23
 90
 17122304
170
     1
 91
-1056964608
341
14
171
    -2
290
     0
291
     1
 41
0.36
 42
0.18
172
     2
343
11
173
     1
 95
        1
174
     1
175
     2
 92
-1056964608
292
     0
 93
-1056964608
 10
1.0
 20
1.0
 30
1.0
 43
0.0
176
     0
293
     0
294
     0
178
     0
179
     3
 45
1.0
1001
ACAD_MLEADERVER
1070
     2
  0
MULTILEADER
  5
171
330
28
100
AcDbEntity
  8
0
 92
      548
310
24020000120000000C00000016000000000000C00C00000013000000993A0000A80000000B0000007C1C92FD774E6640D8D76E4F5D145C40000000000000000000000000000000000000000000000000000000000000F03F000000000000F03F00000000000000000000000000000000B2BBD2AAB7C5D6C3D4AABCFE7D0000
310
000C00000001000000000000000000E03F000000000000F03F0000000000000000000000000000F03F0000000000000000000000000000000000000000CBCECCE500CFD07E000000000C00000010000000000000000C00000016000000000000C00C00000013000000112700003C00000006000000020000001C11DC9C6CE4
310
664088DDC9FF62275C40000000000000000030BF237EE7D8664088DDC9FF62275C4000000000000000000C00000010000000000000000C00000013000000010000000C00000014000000010000005400000007000000030000005509FDD3E18567402199AD948E2A5E400000000000000000BC7A0EBCC4896740108DF41146
310
335E400000000000000000A4AC4E78818767404CD967DB81285E4000000000000000000C00000014000000010000000C00000013000000891300003C0000000600000002000000FDDA25A6B186674037B90A3888295E4000000000000000001C11DC9C6CE4664088DDC9FF62275C4000000000000000000C00000013000000
310
9A3A00000C00000016000000000000C00C00000012000000FF7F00000C00000017000000FFFFFFFF
100
AcDbMLeader
300
CONTEXT_DATA{
 40
1.0
 10
178.4010361680308
 20
112.6154174300519
 30
0.0
 41
0.5
140
0.18
145
0.09
174
     1
175
     1
176
     2
177
     0
290
     1
304
{\fSimSun|b0|i0|c134|p2;}
 11
0.0
 21
0.0
 31
1.0
340
11
 12
182.6882583902531
 22
112.901528541163
 32
0.0
 13
1.0
 23
0.0
 33
0.0
 42
0.0
 43
0.0
 44
0.36
 45
1.0
170
     1
 90
-1073741824
171
     3
172
     5
 91
-1073741824
141
0.0
 92
        0
291
     0
292
     0
173
     0
293
     0
142
0.0
143
0.0
294
     0
295
     0
296
     0
110
188.3052654536058
120
120.8011517418092
130
0.0
111
1.0
121
0.0
131
0.0
112
0.0
122
1.0
132
0.0
297
     0
302
LEADER{
290
     1
291
     1
 10
183.1382583902531
 20
112.6154174300519
 30
0.0
 11
-0.9999999999999998
 21
0.0
 31
0.0
 90
        0
 40
0.3599999999999999
304
LEADER_LINE{
 10
188.3052654536058
 20
120.8011517418092
 30
0.0
 91
        0
305
}
303
}
301
}
340
23
 90
 17122304
170
     1
 91
-1056964608
341
14
171
    -2
290
     0
291
     1
 41
0.36
 42
0.18
172
     2
343
11
173
     1
 95
        1
174
     1
175
     2
 92
-1056964608
292
     0
 93
-1056964608
 10
1.0
 20
1.0
 30
1.0
 43
0.0
176
     0
293
     0
294
     0
178
     0
179
     3
 45
1.0
1001
ACAD_MLEADERVER
1070
     2
  0
MULTILEADER
  5
17A
330
28
100
AcDbEntity
  8
0
 92
      548
310
24020000120000000C00000016000000000000C00C00000013000000993A0000A80000000B000000C4BAB11E8AF465407817125D45C45840000000000000000000000000000000000000000000000000000000000000F03F000000000000F03F00000000000000000000000000000000B2BBD2AAB7C5D6C3D4AABCFE7D0000
310
000C00000001000000000000000000E03F000000000000F03F0000000000000000000000000000F03F0000000000000000000000000000000000000000CBCECCE500CFD07E000000000C00000010000000000000000C00000016000000000000C00C00000013000000112700003C000000060000000200000064AFFBBD7E8A
310
6640281D6D0D4BD758400000000000000000785D439FF97E6640281D6D0D4BD7584000000000000000000C00000010000000000000000C00000013000000010000000C00000014000000010000005400000007000000030000009DA71CF5F32B6740C1D850A276DA5A40000000000000000004192EDDD62F6740B0CC971F2E
310
E35A400000000000000000EC4A6E99932D6740EC180BE969D85A4000000000000000000C00000014000000010000000C00000013000000891300003C0000000600000002000000457945C7C32C6740D7F8AD4570D95A40000000000000000064AFFBBD7E8A6640281D6D0D4BD7584000000000000000000C00000013000000
310
9A3A00000C00000016000000000000C00C00000012000000FF7F00000C00000017000000FFFFFFFF
100
AcDbMLeader
300
CONTEXT_DATA{
 40
1.0
 10
175.5907492281757
 20
99.3639558377805
 30
0.0
 41
0.5
140
0.18
145
0.09
174
     1
175
     1
176
     2
177
     0
290
     1
304
{\fSimSun|b0|i0|c134|p2;}
 11
0.0
 21
0.0
 31
1.0
340
11
 12
179.8779714503979
 22
99.65006694889162
 32
0.0
 13
1.0
 23
0.0
 33
0.0
 42
0.0
 43
0.0
 44
0.36
 45
1.0
170
     1
 90
-1073741824
171
     3
172
     5
 91
-1073741824
141
0.0
 92
        0
291
     0
292
     0
173
     0
293
     0
142
0.0
143
0.0
294
     0
295
     0
296
     0
110
185.4949785137506
120
107.5496901495378
130
0.0
111
1.0
121
0.0
131
0.0
112
0.0
122
1.0
132
0.0
297
     0
302
LEADER{
290
     1
291
     1
 10
180.3279714503979
 20
99.3639558377805
 30
0.0
 11
-0.9999999999999998
 21
0.0
 31
0.0
 90
        0
 40
0.3599999999999998
304
LEADER_LINE{
 10
185.4949785137506
 20
107.5496901495378
 30
0.0
 91
        0
305
}
303
}
301
}
340
23
 90
 17122304
170
     1
 91
-1056964608
341
14
171
    -2
290
     0
291
     1
 41
0.36
 42
0.18
172
     2
343
11
173
     1
 95
        1
174
     1
175
     2
 92
-1056964608
292
     0
 93
-1056964608
 10
1.0
 20
1.0
 30
1.0
 43
0.0
176
     0
293
     0
294
     0
178
     0
179
     3
 45
1.0
1001
ACAD_MLEADERVER
1070
     2
  0
ENDSEC
  0
SECTION
  2
OBJECTS
  0
DICTIONARY
  5
C
330
0
100
AcDbDictionary
281
     1
  3
ACAD_COLOR
350
1F
  3
ACAD_GROUP
350
D
  3
ACAD_LAYOUT
350
1A
  3
ACAD_MATERIAL
350
1B
  3
ACAD_MLEADERSTYLE
350
22
  3
ACAD_MLINESTYLE
350
17
  3
ACAD_PLOTSETTINGS
350
19
  3
ACAD_PLOTSTYLENAME
350
E
  3
ACAD_TABLESTYLE
350
20
  3
ACDBHEADERROUNDTRIPXREC
350
183
  3
AcDbVariableDictionary
350
17B
  3
DWGPROPS
350
182
  0
DICTIONARY
  5
10E
330
28
100
AcDbDictionary
280
     1
281
     1
  3
ACAD_SORTENTS
360
10F
  0
DICTIONARY
  5
120
330
110
100
AcDbDictionary
280
     1
281
     1
  3
ACAD_DIMASSOC
360
12C
  0
DICTIONARY
  5
1F
102
{ACAD_REACTORS
330
C
102
}
330
C
100
AcDbDictionary
281
     1
  0
DICTIONARY
  5
D
102
{ACAD_REACTORS
330
C
102
}
330
C
100
AcDbDictionary
281
     1
  0
DICTIONARY
  5
1A
102
{ACAD_REACTORS
330
C
102
}
330
C
100
AcDbDictionary
281
     1
  3
Model
350
2B
  3
1
350
27
  3
2
350
2F
  0
DICTIONARY
  5
1B
102
{ACAD_REACTORS
330
C
102
}
330
C
100
AcDbDictionary
281
     1
  3
ByBlock
350
1D
  3
ByLayer
350
1C
  3
Global
350
1E
  0
DICTIONARY
  5
22
102
{ACAD_REACTORS
330
C
102
}
330
C
100
AcDbDictionary
281
     1
  3
Standard
350
23
  0
DICTIONARY
  5
17
102
{ACAD_REACTORS
330
C
102
}
330
C
100
AcDbDictionary
281
     1
  3
Standard
350
18
  0
DICTIONARY
  5
19
102
{ACAD_REACTORS
330
C
102
}
330
C
100
AcDbDictionary
281
     1
  0
ACDBDICTIONARYWDFLT
  5
E
102
{ACAD_REACTORS
330
C
102
}
330
C
100
AcDbDictionary
281
     1
  3
Normal
350
F
100
AcDbDictionaryWithDefault
340
F
  0
DICTIONARY
  5
20
102
{ACAD_REACTORS
330
C
102
}
330
C
100
AcDbDictionary
281
     1
  3
Standard
350
21
  0
DICTIONARY
  5
183
102
{ACAD_REACTORS
330
C
102
}
330
C
100
AcDbDictionary
281
     1
  0
DICTIONARY
  5
17B
102
{ACAD_REACTORS
330
C
102
}
330
C
100
AcDbDictionary
281
     1
  3
CMLEADERSTYLE
350
17D
  3
CTABLESTYLE
350
17C
  3
DIMASSOC
350
17F
  3
HIDETEXT
350
17E
  3
PROJECTNAME
350
180
  0
XRECORD
  5
182
102
{ACAD_REACTORS
330
C
102
}
330
C
100
AcDbXrecord
280
     1
  1
DWGPROPS COOKIE
  2

  3

  4

  6

  7

  8
Administrator
  9

300
=
301
=
302
=
303
=
304
=
305
=
306
=
307
=
308
=
309
=
 40
0.0050036342592593
 41
2458025.415138935
 42
2458025.420142385
  1

 90
        0
  0
SORTENTSTABLE
  5
10F
102
{ACAD_REACTORS
330
10E
102
}
330
10E
100
AcDbSortentsTable
330
28
331
FE
  5
FE
331
E4
  5
E4
331
C2
  5
C2
331
D3
  5
D3
331
B1
  5
B1
331
FC
  5
FC
331
E2
  5
E2
331
C0
  5
C0
331
10D
  5
10D
331
D1
  5
D1
331
AF
  5
AF
331
FA
  5
FA
331
E0
  5
E0
331
BE
  5
BE
331
10B
  5
10B
331
CF
  5
CF
331
AD
  5
AD
331
F8
  5
F8
331
DE
  5
DE
331
BC
  5
BC
331
109
  5
109
331
EF
  5
EF
331
CD
  5
CD
331
F6
  5
F6
331
DC
  5
DC
331
BA
  5
BA
331
107
  5
107
331
ED
  5
ED
331
CB
  5
CB
331
F4
  5
F4
331
DA
  5
DA
331
105
  5
105
331
EB
  5
EB
331
C9
  5
C9
331
B8
  5
B8
331
F2
  5
F2
331
D8
  5
D8
331
103
  5
103
331
E9
  5
E9
331
C7
  5
C7
331
B6
  5
B6
331
F0
  5
F0
331
101
  5
101
331
E7
  5
E7
331
C5
  5
C5
331
D6
  5
D6
331
B4
  5
B4
331
FF
  5
FF
331
E5
  5
E5
331
C3
  5
C3
331
D4
  5
D4
331
B2
  5
B2
331
FD
  5
FD
331
E3
  5
E3
331
C1
  5
C1
331
D2
  5
D2
331
B0
  5
B0
331
FB
  5
FB
331
E1
  5
E1
331
BF
  5
BF
331
10C
  5
10C
331
D0
  5
D0
331
AE
  5
AE
331
F9
  5
F9
331
DF
  5
DF
331
BD
  5
BD
331
10A
  5
10A
331
CE
  5
CE
331
AC
  5
AC
331
F7
  5
F7
331
DD
  5
DD
331
BB
  5
BB
331
108
  5
108
331
EE
  5
EE
331
CC
  5
CC
331
F5
  5
F5
331
DB
  5
DB
331
B9
  5
B9
331
106
  5
106
331
EC
  5
EC
331
CA
  5
CA
331
F3
  5
F3
331
D9
  5
D9
331
104
  5
104
331
EA
  5
EA
331
C8
  5
C8
331
B7
  5
B7
331
F1
  5
F1
331
102
  5
102
331
E8
  5
E8
331
C6
  5
C6
331
D7
  5
D7
331
B5
  5
B5
331
100
  5
100
331
E6
  5
E6
331
C4
  5
C4
331
D5
  5
D5
331
B3
  5
B3
  0
DIMASSOC
  5
12C
102
{ACAD_REACTORS
330
120
102
}
330
120
100
AcDbDimAssoc
330
110
 90
        3
 70
     0
 71
     0
  1
AcDbOsnapPointRef
 72
    13
331
CF
 73
     2
 91
        0
 40
0.0
 10
0.0
 20
0.0
 30
2.000000000000000E+50
 75
     0
  1
AcDbOsnapPointRef
 72
     1
331
CF
 73
     2
 91
        0
 40
1.0
 10
0.0
 20
0.0
 30
2.000000000000000E+50
 75
     0
  0
LAYOUT
  5
2B
102
{ACAD_XDICTIONARY
360
187
102
}
102
{ACAD_REACTORS
330
1A
102
}
330
1A
100
AcDbPlotSettings
  1

  2

  4

  6

 40
0.0
 41
0.0
 42
0.0
 43
0.0
 44
0.0
 45
0.0
 46
0.0
 47
0.0
 48
0.0
 49
0.0
140
0.0
141
0.0
142
1.0
143
1.0
 70
  1712
 72
     0
 73
     0
 74
     0
  7

 75
     0
147
1.0
148
0.0
149
0.0
100
AcDbLayout
  1
Model
 70
     1
 71
     0
 10
0.0
 20
0.0
 11
12.0
 21
9.0
 12
0.0
 22
0.0
 32
0.0
 14
0.0
 24
0.0
 34
0.0
 15
0.0
 25
0.0
 35
0.0
146
0.0
 13
0.0
 23
0.0
 33
0.0
 16
1.0
 26
0.0
 36
0.0
 17
0.0
 27
1.0
 37
0.0
 76
     0
330
28
  0
LAYOUT
  5
27
102
{ACAD_XDICTIONARY
360
185
102
}
102
{ACAD_REACTORS
330
1A
102
}
330
1A
100
AcDbPlotSettings
  1

  2

  4

  6

 40
0.0
 41
0.0
 42
0.0
 43
0.0
 44
0.0
 45
0.0
 46
0.0
 47
0.0
 48
0.0
 49
0.0
140
0.0
141
0.0
142
1.0
143
1.0
 70
   688
 72
     0
 73
     0
 74
     5
  7

 75
    16
147
1.0
148
0.0
149
0.0
100
AcDbLayout
  1
1
 70
     1
 71
     1
 10
0.0
 20
0.0
 11
420.0
 21
297.0
 12
0.0
 22
0.0
 32
0.0
 14
1.000000000000000E+20
 24
1.000000000000000E+20
 34
1.000000000000000E+20
 15
-1.000000000000000E+20
 25
-1.000000000000000E+20
 35
-1.000000000000000E+20
146
0.0
 13
0.0
 23
0.0
 33
0.0
 16
1.0
 26
0.0
 36
0.0
 17
0.0
 27
1.0
 37
0.0
 76
     0
330
24
  0
LAYOUT
  5
2F
102
{ACAD_XDICTIONARY
360
189
102
}
102
{ACAD_REACTORS
330
1A
102
}
330
1A
100
AcDbPlotSettings
  1

  2

  4

  6

 40
0.0
 41
0.0
 42
0.0
 43
0.0
 44
0.0
 45
0.0
 46
0.0
 47
0.0
 48
0.0
 49
0.0
140
0.0
141
0.0
142
1.0
143
1.0
 70
   688
 72
     0
 73
     0
 74
     5
  7

 75
    16
147
1.0
148
0.0
149
0.0
100
AcDbLayout
  1
2
 70
     1
 71
     2
 10
0.0
 20
0.0
 11
12.0
 21
9.0
 12
0.0
 22
0.0
 32
0.0
 14
0.0
 24
0.0
 34
0.0
 15
0.0
 25
0.0
 35
0.0
146
0.0
 13
0.0
 23
0.0
 33
0.0
 16
1.0
 26
0.0
 36
0.0
 17
0.0
 27
1.0
 37
0.0
 76
     0
330
2C
  0
MATERIAL
  5
1D
102
{ACAD_REACTORS
330
1B
102
}
330
1B
100
AcDbMaterial
  1
ByBlock
  2

  0
MATERIAL
  5
1C
102
{ACAD_REACTORS
330
1B
102
}
330
1B
100
AcDbMaterial
  1
ByLayer
  2

  0
MATERIAL
  5
1E
102
{ACAD_REACTORS
330
1B
102
}
330
1B
100
AcDbMaterial
  1
Global
  2

  0
MLEADERSTYLE
  5
23
102
{ACAD_REACTORS
330
22
330
139
102
}
330
22
100
AcDbMLeaderStyle
170
     2
171
     1
172
     0
 90
        2
 40
0.0
 41
0.0
173
     1
 91
-1056964608
340
14
 92
       -2
290
     1
 42
0.09
291
     1
 43
0.36
  3
Standard
341
0
 44
0.18
300

342
11
174
     1
178
     1
175
     1
176
     0
 93
-1056964608
 45
0.18
292
     0
297
     0
 46
0.18
343
0
 94
-1056964608
 47
1.0
 49
1.0
140
1.0
293
     1
141
0.0
294
     1
177
     0
142
1.0
295
     0
296
     0
143
0.125
1001
ACAD_MLEADERVER
1070
     2
  0
MLINESTYLE
  5
18
102
{ACAD_REACTORS
330
17
102
}
330
17
100
AcDbMlineStyle
  2
STANDARD
 70
     0
  3

 62
   256
 51
90.0
 52
90.0
 71
     2
 49
0.5
 62
   256
  6
BYLAYER
 49
-0.5
 62
   256
  6
BYLAYER
  0
ACDBPLACEHOLDER
  5
F
102
{ACAD_REACTORS
330
E
102
}
330
E
  0
TABLESTYLE
  5
21
102
{ACAD_REACTORS
330
20
102
}
330
20
100
AcDbTableStyle
  3
Standard
 70
     0
 71
     0
 40
1.5
 41
1.5
280
     0
281
     0
  7
Standard
140
4.5
170
     2
 62
     0
 63
   257
283
     0
274
    -2
284
     1
 64
     0
275
    -2
285
     1
 65
     0
276
    -2
286
     1
 66
     0
277
    -2
287
     1
 67
     0
278
    -2
288
     1
 68
     0
279
    -2
289
     1
 69
     0
  7
Standard
140
6.0
170
     5
 62
     0
 63
   257
283
     0
274
    -2
284
     1
 64
     0
275
    -2
285
     1
 65
     0
276
    -2
286
     1
 66
     0
277
    -2
287
     1
 67
     0
278
    -2
288
     1
 68
     0
279
    -2
289
     1
 69
     0
  7
Standard
140
4.5
170
     5
 62
     0
 63
   257
283
     0
274
    -2
284
     1
 64
     0
275
    -2
285
     1
 65
     0
276
    -2
286
     1
 66
     0
277
    -2
287
     1
 67
     0
278
    -2
288
     1
 68
     0
279
    -2
289
     1
 69
     0
  0
DICTIONARYVAR
  5
17D
102
{ACAD_REACTORS
330
17B
102
}
330
17B
100
DictionaryVariables
280
     0
  1
STANDARD
  0
DICTIONARYVAR
  5
17C
102
{ACAD_REACTORS
330
17B
102
}
330
17B
100
DictionaryVariables
280
     0
  1
STANDARD
  0
DICTIONARYVAR
  5
17F
102
{ACAD_REACTORS
330
17B
102
}
330
17B
100
DictionaryVariables
280
     0
  1
2
  0
DICTIONARYVAR
  5
17E
102
{ACAD_REACTORS
330
17B
102
}
330
17B
100
DictionaryVariables
280
     0
  1
1
  0
DICTIONARYVAR
  5
180
102
{ACAD_REACTORS
330
17B
102
}
330
17B
100
DictionaryVariables
280
     0
  1

  0
DICTIONARY
  5
187
330
2B
100
AcDbDictionary
280
     1
281
     1
  3
ACAD_XREC_ROUNDTRIP
360
188
  0
DICTIONARY
  5
185
330
27
100
AcDbDictionary
280
     1
281
     1
  3
ACAD_XREC_ROUNDTRIP
360
186
  0
DICTIONARY
  5
189
330
2F
100
AcDbDictionary
280
     1
281
     1
  3
ACAD_XREC_ROUNDTRIP
360
18A
  0
XRECORD
  5
188
102
{ACAD_REACTORS
330
187
102
}
330
187
100
AcDbXrecord
280
     1
102
SHADEPLOT
 70
     0
102
SHADEPLOTRESLEVEL
 70
     2
102
SHADEPLOTCUSTOMDPI
 70
   300
  0
XRECORD
  5
186
102
{ACAD_REACTORS
330
185
102
}
330
185
100
AcDbXrecord
280
     1
102
SHADEPLOT
 70
     0
102
SHADEPLOTRESLEVEL
 70
     2
102
SHADEPLOTCUSTOMDPI
 70
   300
  0
XRECORD
  5
18A
102
{ACAD_REACTORS
330
189
102
}
330
189
100
AcDbXrecord
280
     1
102
SHADEPLOT
 70
     0
102
SHADEPLOTRESLEVEL
 70
     2
102
SHADEPLOTCUSTOMDPI
 70
   300
  0
ENDSEC
  0
EOF
