  0
SECTION
  2
HEADER
  9
$ACADVER
  1
AC1015
  9
$ACADMAINTVER
 70
    20
  9
$DWGCODEPAGE
  3
ANSI_936
  9
$INSBASE
 10
0.0
 20
0.0
 30
0.0
  9
$EXTMIN
 10
186.1054794218976
 20
79.09476722585329
 30
-0.00000001
  9
$EXTMAX
 10
483.1054794212175
 20
289.9925368636291
 30
0.00000001
  9
$LIMMIN
 10
0.0
 20
0.0
  9
$LIMMAX
 10
420.0
 20
297.0
  9
$ORTHOMODE
 70
     1
  9
$REGENMODE
 70
     1
  9
$FILLMODE
 70
     1
  9
$QTEXTMODE
 70
     0
  9
$MIRRTEXT
 70
     0
  9
$LTSCALE
 40
1.0
  9
$ATTMODE
 70
     1
  9
$TEXTSIZE
 40
2.5
  9
$TRACEWID
 40
1.0
  9
$TEXTSTYLE
  7
Standard
  9
$CLAYER
  8
0
  9
$CELTYPE
  6
ByLayer
  9
$CECOLOR
 62
   256
  9
$CELTSCALE
 40
1.0
  9
$DISPSILH
 70
     0
  9
$DIMSCALE
 40
1.0
  9
$DIMASZ
 40
2.5
  9
$DIMEXO
 40
0.625
  9
$DIMDLI
 40
3.75
  9
$DIMRND
 40
0.0
  9
$DIMDLE
 40
0.0
  9
$DIMEXE
 40
1.25
  9
$DIMTP
 40
0.0
  9
$DIMTM
 40
0.0
  9
$DIMTXT
 40
2.5
  9
$DIMCEN
 40
2.5
  9
$DIMTSZ
 40
0.0
  9
$DIMTOL
 70
     0
  9
$DIMLIM
 70
     0
  9
$DIMTIH
 70
     0
  9
$DIMTOH
 70
     0
  9
$DIMSE1
 70
     0
  9
$DIMSE2
 70
     0
  9
$DIMTAD
 70
     1
  9
$DIMZIN
 70
     8
  9
$DIMBLK
  1

  9
$DIMASO
 70
     1
  9
$DIMSHO
 70
     1
  9
$DIMPOST
  1

  9
$DIMAPOST
  1

  9
$DIMALT
 70
     0
  9
$DIMALTD
 70
     3
  9
$DIMALTF
 40
0.03937007874016
  9
$DIMLFAC
 40
1.0
  9
$DIMTOFL
 70
     1
  9
$DIMTVP
 40
0.0
  9
$DIMTIX
 70
     0
  9
$DIMSOXD
 70
     0
  9
$DIMSAH
 70
     0
  9
$DIMBLK1
  1

  9
$DIMBLK2
  1

  9
$DIMSTYLE
  2
ISO-25
  9
$DIMCLRD
 70
     0
  9
$DIMCLRE
 70
     0
  9
$DIMCLRT
 70
     0
  9
$DIMTFAC
 40
1.0
  9
$DIMGAP
 40
0.625
  9
$DIMJUST
 70
     0
  9
$DIMSD1
 70
     0
  9
$DIMSD2
 70
     0
  9
$DIMTOLJ
 70
     0
  9
$DIMTZIN
 70
     8
  9
$DIMALTZ
 70
     0
  9
$DIMALTTZ
 70
     0
  9
$DIMUPT
 70
     0
  9
$DIMDEC
 70
     2
  9
$DIMTDEC
 70
     2
  9
$DIMALTU
 70
     2
  9
$DIMALTTD
 70
     3
  9
$DIMTXSTY
  7
Standard
  9
$DIMAUNIT
 70
     0
  9
$DIMADEC
 70
     0
  9
$DIMALTRND
 40
0.0
  9
$DIMAZIN
 70
     0
  9
$DIMDSEP
 70
    46
  9
$DIMATFIT
 70
     3
  9
$DIMFRAC
 70
     0
  9
$DIMLDRBLK
  1

  9
$DIMLUNIT
 70
     2
  9
$DIMLWD
 70
    -2
  9
$DIMLWE
 70
    -2
  9
$DIMTMOVE
 70
     0
  9
$LUNITS
 70
     2
  9
$LUPREC
 70
     4
  9
$SKETCHINC
 40
1.0
  9
$FILLETRAD
 40
0.0
  9
$AUNITS
 70
     0
  9
$AUPREC
 70
     0
  9
$MENU
  1
.
  9
$ELEVATION
 40
0.0
  9
$PELEVATION
 40
0.0
  9
$THICKNESS
 40
0.0
  9
$LIMCHECK
 70
     0
  9
$CHAMFERA
 40
0.0
  9
$CHAMFERB
 40
0.0
  9
$CHAMFERC
 40
0.0
  9
$CHAMFERD
 40
0.0
  9
$SKPOLY
 70
     0
  9
$TDCREATE
 40
2458025.444219155
  9
$TDUCREATE
 40
2458025.110885822
  9
$TDUPDATE
 40
2458025.448074259
  9
$TDUUPDATE
 40
2458025.114740926
  9
$TDINDWG
 40
0.0038552778
  9
$TDUSRTIMER
 40
0.0038552662
  9
$USRTIMER
 70
     1
  9
$ANGBASE
 50
0.0
  9
$ANGDIR
 70
     0
  9
$PDMODE
 70
     0
  9
$PDSIZE
 40
0.0
  9
$PLINEWID
 40
0.0
  9
$SPLFRAME
 70
     0
  9
$SPLINETYPE
 70
     6
  9
$SPLINESEGS
 70
     8
  9
$HANDSEED
  5
2F7
  9
$SURFTAB1
 70
     6
  9
$SURFTAB2
 70
     6
  9
$SURFTYPE
 70
     6
  9
$SURFU
 70
     6
  9
$SURFV
 70
     6
  9
$UCSBASE
  2

  9
$UCSNAME
  2

  9
$UCSORG
 10
0.0
 20
0.0
 30
0.0
  9
$UCSXDIR
 10
1.0
 20
0.0
 30
0.0
  9
$UCSYDIR
 10
0.0
 20
1.0
 30
0.0
  9
$UCSORTHOREF
  2

  9
$UCSORTHOVIEW
 70
     0
  9
$UCSORGTOP
 10
0.0
 20
0.0
 30
0.0
  9
$UCSORGBOTTOM
 10
0.0
 20
0.0
 30
0.0
  9
$UCSORGLEFT
 10
0.0
 20
0.0
 30
0.0
  9
$UCSORGRIGHT
 10
0.0
 20
0.0
 30
0.0
  9
$UCSORGFRONT
 10
0.0
 20
0.0
 30
0.0
  9
$UCSORGBACK
 10
0.0
 20
0.0
 30
0.0
  9
$PUCSBASE
  2

  9
$PUCSNAME
  2

  9
$PUCSORG
 10
0.0
 20
0.0
 30
0.0
  9
$PUCSXDIR
 10
1.0
 20
0.0
 30
0.0
  9
$PUCSYDIR
 10
0.0
 20
1.0
 30
0.0
  9
$PUCSORTHOREF
  2

  9
$PUCSORTHOVIEW
 70
     0
  9
$PUCSORGTOP
 10
0.0
 20
0.0
 30
0.0
  9
$PUCSORGBOTTOM
 10
0.0
 20
0.0
 30
0.0
  9
$PUCSORGLEFT
 10
0.0
 20
0.0
 30
0.0
  9
$PUCSORGRIGHT
 10
0.0
 20
0.0
 30
0.0
  9
$PUCSORGFRONT
 10
0.0
 20
0.0
 30
0.0
  9
$PUCSORGBACK
 10
0.0
 20
0.0
 30
0.0
  9
$USERI1
 70
     0
  9
$USERI2
 70
     0
  9
$USERI3
 70
     0
  9
$USERI4
 70
     0
  9
$USERI5
 70
     0
  9
$USERR1
 40
0.0
  9
$USERR2
 40
0.0
  9
$USERR3
 40
0.0
  9
$USERR4
 40
0.0
  9
$USERR5
 40
0.0
  9
$WORLDVIEW
 70
     1
  9
$SHADEDGE
 70
     3
  9
$SHADEDIF
 70
    70
  9
$TILEMODE
 70
     1
  9
$MAXACTVP
 70
    64
  9
$PINSBASE
 10
0.0
 20
0.0
 30
0.0
  9
$PLIMCHECK
 70
     0
  9
$PEXTMIN
 10
1.000000000000000E+20
 20
1.000000000000000E+20
 30
1.000000000000000E+20
  9
$PEXTMAX
 10
-1.000000000000000E+20
 20
-1.000000000000000E+20
 30
-1.000000000000000E+20
  9
$PLIMMIN
 10
0.0
 20
0.0
  9
$PLIMMAX
 10
420.0
 20
297.0
  9
$UNITMODE
 70
     0
  9
$VISRETAIN
 70
     1
  9
$PLINEGEN
 70
     0
  9
$PSLTSCALE
 70
     1
  9
$TREEDEPTH
 70
  3020
  9
$CMLSTYLE
  2
Standard
  9
$CMLJUST
 70
     0
  9
$CMLSCALE
 40
20.0
  9
$PROXYGRAPHICS
 70
     1
  9
$MEASUREMENT
 70
     1
  9
$CELWEIGHT
370
    -1
  9
$ENDCAPS
280
     0
  9
$JOINSTYLE
280
     0
  9
$LWDISPLAY
290
     0
  9
$INSUNITS
 70
     4
  9
$HYPERLINKBASE
  1

  9
$STYLESHEET
  1

  9
$XEDIT
290
     1
  9
$CEPSNTYPE
380
     0
  9
$PSTYLEMODE
290
     1
  9
$FINGERPRINTGUID
  2
{21B3919F-4293-48D3-A77D-FFA325DD86D0}
  9
$VERSIONGUID
  2
{5700A6FD-E559-4D10-A2D8-FAA38F2A7B0E}
  9
$EXTNAMES
290
     1
  9
$PSVPSCALE
 40
0.0
  9
$OLESTARTUP
290
     0
  0
ENDSEC
  0
SECTION
  2
CLASSES
  0
CLASS
  1
ACDBDICTIONARYWDFLT
  2
AcDbDictionaryWithDefault
  3
ObjectDBX Classes
 90
        0
280
     0
281
     0
  0
CLASS
  1
MATERIAL
  2
AcDbMaterial
  3
ObjectDBX Classes
 90
        0
280
     0
281
     0
  0
CLASS
  1
TABLESTYLE
  2
AcDbTableStyle
  3
ObjectDBX Classes
 90
     4095
280
     0
281
     0
  0
CLASS
  1
MLEADERSTYLE
  2
AcDbMLeaderStyle
  3
ACDB_MLEADERSTYLE_CLASS
 90
     4095
280
     0
281
     0
  0
CLASS
  1
SORTENTSTABLE
  2
AcDbSortentsTable
  3
ObjectDBX Classes
 90
        0
280
     0
281
     0
  0
CLASS
  1
DIMASSOC
  2
AcDbDimAssoc
  3
"ZcDbDimAssoc|Product Desc:     ZwDim ZRX App For Dimension|Company:          ZwSoft.|WEB Address:      www.zwsoft.com"
 90
        0
280
     0
281
     0
  0
CLASS
  1
MULTILEADER
  2
AcDbMLeader
  3
ACDB_MLEADER_CLASS
 90
     1025
280
     0
281
     1
  0
CLASS
  1
DICTIONARYVAR
  2
AcDbDictionaryVar
  3
ObjectDBX Classes
 90
        0
280
     0
281
     0
  0
CLASS
  1
ACDBPLACEHOLDER
  2
AcDbPlaceHolder
  3
ObjectDBX Classes
 90
        0
280
     0
281
     0
  0
CLASS
  1
LAYOUT
  2
AcDbLayout
  3
ObjectDBX Classes
 90
        0
280
     0
281
     0
  0
ENDSEC
  0
SECTION
  2
TABLES
  0
TABLE
  2
VPORT
  5
8
330
0
100
AcDbSymbolTable
 70
     8
  0
VPORT
  5
2ED
330
8
100
AcDbSymbolTableRecord
100
AcDbViewportTableRecord
  2
*Active
 70
     0
 10
0.0
 20
0.0
 11
1.0
 21
1.0
 12
348.7366581201718
 22
112.5935671914773
 13
0.0
 23
0.0
 14
10.0
 24
10.0
 15
10.0
 25
10.0
 16
0.0
 26
0.0
 36
1.0
 17
0.0
 27
0.0
 37
0.0
 40
144.6772713723386
 41
2.025815217391304
 42
50.0
 43
0.0
 44
0.0
 50
0.0
 51
0.0
 71
     0
 72
  1000
 73
     1
 74
     3
 75
     0
 76
     0
 77
     0
 78
     0
281
     0
 65
     1
110
0.0
120
0.0
130
0.0
111
1.0
121
0.0
131
0.0
112
0.0
122
1.0
132
0.0
 79
     0
146
0.0
  0
ENDTAB
  0
TABLE
  2
LTYPE
  5
5
330
0
100
AcDbSymbolTable
 70
     6
  0
LTYPE
  5
14
330
5
100
AcDbSymbolTableRecord
100
AcDbLinetypeTableRecord
  2
ByBlock
 70
     0
  3

 72
    65
 73
     0
 40
0.0
  0
LTYPE
  5
15
330
5
100
AcDbSymbolTableRecord
100
AcDbLinetypeTableRecord
  2
ByLayer
 70
     0
  3

 72
    65
 73
     0
 40
0.0
  0
LTYPE
  5
16
330
5
100
AcDbSymbolTableRecord
100
AcDbLinetypeTableRecord
  2
Continuous
 70
     0
  3
Solid line
 72
    65
 73
     0
 40
0.0
  0
LTYPE
  5
34
330
5
100
AcDbSymbolTableRecord
100
AcDbLinetypeTableRecord
  2
CENTER
 70
     0
  3
____ _ ____ _ ____ _ ____ _ ____ _ ____ _ ____
 72
    65
 73
     4
 40
0.6
 49
0.375
 74
     0
 49
-0.075
 74
     0
 49
0.075
 74
     0
 49
-0.075
 74
     0
  0
LTYPE
  5
35
330
5
100
AcDbSymbolTableRecord
100
AcDbLinetypeTableRecord
  2
HIDDEN
 70
     0
  3
- - - - - - - - - - - - - - - - - - - -
 72
    65
 73
     2
 40
0.2
 49
0.1
 74
     0
 49
-0.1
 74
     0
  0
LTYPE
  5
36
330
5
100
AcDbSymbolTableRecord
100
AcDbLinetypeTableRecord
  2
PHANTOM
 70
     0
  3
_____ _ _ _____ _ _ _____ _ _ _____
 72
    65
 73
     6
 40
0.8
 49
0.45
 74
     0
 49
-0.05
 74
     0
 49
0.1
 74
     0
 49
-0.05
 74
     0
 49
0.1
 74
     0
 49
-0.05
 74
     0
  0
LTYPE
  5
37
330
5
100
AcDbSymbolTableRecord
100
AcDbLinetypeTableRecord
  2
DOT
 70
     0
  3
. . . . . . . . . . . . . . . . . . . .
 72
    65
 73
     2
 40
0.2
 49
0.1
 74
     0
 49
-0.1
 74
     0
  0
LTYPE
  5
38
330
5
100
AcDbSymbolTableRecord
100
AcDbLinetypeTableRecord
  2
DASHED
 70
     0
  3
- - - - - - - - - - - - - - - - - - - -
 72
    65
 73
     2
 40
0.2
 49
0.1
 74
     0
 49
-0.1
 74
     0
  0
ENDTAB
  0
TABLE
  2
LAYER
  5
2
330
0
100
AcDbSymbolTable
 70
     5
  0
LAYER
  5
10
330
2
100
AcDbSymbolTableRecord
100
AcDbLayerTableRecord
  2
0
 70
     0
 62
     7
  6
Continuous
370
    -3
390
F
  0
LAYER
  5
39
330
2
100
AcDbSymbolTableRecord
100
AcDbLayerTableRecord
  2
DEFAULT_1
 70
     0
 62
     7
  6
CENTER
370
    -3
390
F
  0
LAYER
  5
3A
330
2
100
AcDbSymbolTableRecord
100
AcDbLayerTableRecord
  2
DEFAULT_2
 70
     0
 62
     8
  6
HIDDEN
370
    -3
390
F
  0
LAYER
  5
3B
330
2
100
AcDbSymbolTableRecord
100
AcDbLayerTableRecord
  2
DEFAULT_3
 70
     0
 62
     7
  6
PHANTOM
370
    -3
390
F
  0
LAYER
  5
211
330
2
100
AcDbSymbolTableRecord
100
AcDbLayerTableRecord
  2
Defpoints
 70
     0
 62
     7
  6
Continuous
290
     0
370
    -3
390
F
  0
ENDTAB
  0
TABLE
  2
STYLE
  5
3
330
0
100
AcDbSymbolTable
 70
     2
  0
STYLE
  5
11
330
3
100
AcDbSymbolTableRecord
100
AcDbTextStyleTableRecord
  2
Standard
 70
     0
 40
0.0
 41
1.0
 50
0.0
 71
     0
 42
2.5
  3
txt.shx
  4

  0
STYLE
  5
3C
330
3
100
AcDbSymbolTableRecord
100
AcDbTextStyleTableRecord
  2
TEXTSTYLE_1
 70
     0
 40
0.0
 41
0.8
 50
0.0
 71
     0
 42
0.2
  3
gdt
  4

  0
ENDTAB
  0
TABLE
  2
VIEW
  5
6
330
0
100
AcDbSymbolTable
 70
     0
  0
ENDTAB
  0
TABLE
  2
UCS
  5
7
330
0
100
AcDbSymbolTable
 70
     0
  0
ENDTAB
  0
TABLE
  2
APPID
  5
9
330
0
100
AcDbSymbolTable
 70
     2
  0
APPID
  5
12
330
9
100
AcDbSymbolTableRecord
100
AcDbRegAppTableRecord
  2
ACAD
 70
     0
  0
APPID
  5
233
330
9
100
AcDbSymbolTableRecord
100
AcDbRegAppTableRecord
  2
ACAD_MLEADERVER
 70
     0
  0
ENDTAB
  0
TABLE
  2
DIMSTYLE
  5
A
330
0
100
AcDbSymbolTable
 70
     2
100
AcDbDimStyleTable
 71
     1
340
30
  0
DIMSTYLE
105
30
330
A
100
AcDbSymbolTableRecord
100
AcDbDimStyleTableRecord
  2
ISO-25
 70
     0
 41
2.5
 42
0.625
 43
3.75
 44
1.25
 73
     0
 74
     0
 77
     1
 78
     8
140
2.5
141
2.5
143
0.03937007874016
147
0.625
171
     3
172
     1
271
     2
272
     2
274
     3
283
     0
284
     8
340
11
  0
DIMSTYLE
105
3D
330
A
100
AcDbSymbolTableRecord
100
AcDbDimStyleTableRecord
  2
STANDARD
 70
     0
 41
0.1875
 44
0.125
 47
0.01
 48
0.01
 78
     4
140
0.15625
271
     2
272
     2
284
     4
340
11
  0
ENDTAB
  0
TABLE
  2
BLOCK_RECORD
  5
1
330
0
100
AcDbSymbolTable
 70
    10
  0
BLOCK_RECORD
  5
28
102
{ACAD_XDICTIONARY
360
20E
102
}
330
1
100
AcDbSymbolTableRecord
100
AcDbBlockTableRecord
  2
*Model_Space
340
2B
  0
BLOCK_RECORD
  5
24
330
1
100
AcDbSymbolTableRecord
100
AcDbBlockTableRecord
  2
*Paper_Space
340
27
  0
BLOCK_RECORD
  5
2C
330
1
100
AcDbSymbolTableRecord
100
AcDbBlockTableRecord
  2
*Paper_Space0
340
2F
  0
BLOCK_RECORD
  5
3E
330
1
100
AcDbSymbolTableRecord
100
AcDbBlockTableRecord
  2
main-pcb-20170928
340
0
1001
ACAD
1000
DesignCenter Data
1002
{
1070
     1
1070
     1
1002
}
  0
BLOCK_RECORD
  5
212
330
1
100
AcDbSymbolTableRecord
100
AcDbBlockTableRecord
  2
*D2
340
0
  0
ENDTAB
  0
ENDSEC
  0
SECTION
  2
BLOCKS
  0
BLOCK
  5
29
330
28
100
AcDbEntity
  8
0
100
AcDbBlockBegin
  2
*Model_Space
 70
     0
 10
0.0
 20
0.0
 30
0.0
  3
*Model_Space
  1

  0
ENDBLK
  5
2A
330
28
100
AcDbEntity
  8
0
100
AcDbBlockEnd
  0
BLOCK
  5
25
330
24
100
AcDbEntity
 67
     1
  8
0
100
AcDbBlockBegin
  2
*Paper_Space
 70
     0
 10
0.0
 20
0.0
 30
0.0
  3
*Paper_Space
  1

  0
ENDBLK
  5
26
330
24
100
AcDbEntity
 67
     1
  8
0
100
AcDbBlockEnd
  0
BLOCK
  5
2D
330
2C
100
AcDbEntity
  8
0
100
AcDbBlockBegin
  2
*Paper_Space0
 70
     0
 10
0.0
 20
0.0
 30
0.0
  3
*Paper_Space0
  1

  0
ENDBLK
  5
2E
330
2C
100
AcDbEntity
  8
0
100
AcDbBlockEnd
  0
BLOCK
  5
125
330
3E
100
AcDbEntity
  8
0
100
AcDbBlockBegin
  2
main-pcb-20170928
 70
     0
 10
0.0
 20
0.0
 30
0.0
  3
main-pcb-20170928
  1

  0
LINE
  5
3F
330
3E
100
AcDbEntity
  8
0
  6
Continuous
 62
     7
100
AcDbLine
 10
0.0
 20
0.0
 30
0.0
 11
0.0
 21
8.267716535399999
 31
0.0
  0
LINE
  5
40
330
3E
100
AcDbEntity
  8
0
  6
Continuous
 62
     7
100
AcDbLine
 10
0.0
 20
0.0
 30
0.0
 11
11.6929133858
 21
0.0
 31
0.0
  0
LINE
  5
41
330
3E
100
AcDbEntity
  8
0
  6
Continuous
 62
     7
100
AcDbLine
 10
0.0
 20
8.267716535399999
 30
0.0
 11
11.6929133858
 21
8.267716535399999
 31
0.0
  0
LINE
  5
42
330
3E
100
AcDbEntity
  8
0
  6
Continuous
 62
     7
100
AcDbLine
 10
11.6929133858
 20
0.0
 30
0.0
 11
11.6929133858
 21
8.267716535399999
 31
0.0
  0
LINE
  5
43
330
3E
100
AcDbEntity
  8
0
  6
Continuous
 62
     7
100
AcDbLine
 10
2.928288233299999
 20
2.8470267966
 30
0.0
 11
2.928288233299999
 21
1.744664591899999
 31
0.0
  0
LINE
  5
44
330
3E
100
AcDbEntity
  8
0
  6
Continuous
 62
     7
100
AcDbLine
 10
3.046398469599999
 20
1.626554355699999
 30
0.0
 11
4.5030913829
 21
1.626554355699999
 31
0.0
  0
LINE
  5
45
330
3E
100
AcDbEntity
  8
0
  6
Continuous
 62
     7
100
AcDbLine
 10
3.217658312099999
 20
2.965137032799999
 30
0.0
 11
3.217658312099999
 21
2.8804913635
 31
0.0
  0
LINE
  5
46
330
3E
100
AcDbEntity
  8
0
  6
Continuous
 62
     4
100
AcDbLine
 10
3.262933902599999
 20
2.8017512061
 30
0.0
 11
3.262933902599999
 21
2.8804913635
 31
0.0
  0
LINE
  5
47
330
3E
100
AcDbEntity
  8
0
  6
Continuous
 62
     4
100
AcDbLine
 10
3.312146501099999
 20
2.8804913635
 30
0.0
 11
3.312146501099999
 21
2.8017512061
 31
0.0
  0
LINE
  5
48
330
3E
100
AcDbEntity
  8
0
  6
Continuous
 62
     4
100
AcDbLine
 10
3.327894532499999
 20
2.8017512061
 30
0.0
 11
3.327894532499999
 21
2.8804913635
 31
0.0
  0
LINE
  5
49
330
3E
100
AcDbEntity
  8
0
  6
Continuous
 62
     4
100
AcDbLine
 10
3.377107131
 20
2.8804913635
 30
0.0
 11
3.377107131
 21
2.8017512061
 31
0.0
  0
LINE
  5
4A
330
3E
100
AcDbEntity
  8
0
  6
Continuous
 62
     4
100
AcDbLine
 10
3.3928551625
 20
2.8017512061
 30
0.0
 11
3.3928551625
 21
2.8804913635
 31
0.0
  0
LINE
  5
4B
330
3E
100
AcDbEntity
  8
0
  6
Continuous
 62
     4
100
AcDbLine
 10
3.442067760899999
 20
2.8804913635
 30
0.0
 11
3.442067760899999
 21
2.8017512061
 31
0.0
  0
LINE
  5
4C
330
3E
100
AcDbEntity
  8
0
  6
Continuous
 62
     4
100
AcDbLine
 10
3.457815792399999
 20
2.8017512061
 30
0.0
 11
3.457815792399999
 21
2.8804913635
 31
0.0
  0
LINE
  5
4D
330
3E
100
AcDbEntity
  8
0
  6
Continuous
 62
     4
100
AcDbLine
 10
3.507028390799999
 20
2.8804913635
 30
0.0
 11
3.507028390799999
 21
2.8017512061
 31
0.0
  0
LINE
  5
4E
330
3E
100
AcDbEntity
  8
0
  6
Continuous
 62
     4
100
AcDbLine
 10
3.5227764223
 20
2.8017512061
 30
0.0
 11
3.5227764223
 21
2.8804913635
 31
0.0
  0
LINE
  5
4F
330
3E
100
AcDbEntity
  8
0
  6
Continuous
 62
     4
100
AcDbLine
 10
3.571989020699999
 20
2.8804913635
 30
0.0
 11
3.571989020699999
 21
2.8017512061
 31
0.0
  0
LINE
  5
50
330
3E
100
AcDbEntity
  8
0
  6
Continuous
 62
     4
100
AcDbLine
 10
3.5877370522
 20
2.8017512061
 30
0.0
 11
3.5877370522
 21
2.8804913635
 31
0.0
  0
LINE
  5
51
330
3E
100
AcDbEntity
  8
0
  6
Continuous
 62
     4
100
AcDbLine
 10
3.6369496507
 20
2.8804913635
 30
0.0
 11
3.6369496507
 21
2.8017512061
 31
0.0
  0
LINE
  5
52
330
3E
100
AcDbEntity
  8
0
  6
Continuous
 62
     4
100
AcDbLine
 10
3.6526976822
 20
2.8017512061
 30
0.0
 11
3.6526976822
 21
2.8804913635
 31
0.0
  0
LINE
  5
53
330
3E
100
AcDbEntity
  8
0
  6
Continuous
 62
     4
100
AcDbLine
 10
3.701910280599999
 20
2.8804913635
 30
0.0
 11
3.701910280599999
 21
2.8017512061
 31
0.0
  0
LINE
  5
54
330
3E
100
AcDbEntity
  8
0
  6
Continuous
 62
     4
100
AcDbLine
 10
3.717658312099999
 20
2.8017512061
 30
0.0
 11
3.717658312099999
 21
2.8804913635
 31
0.0
  0
LINE
  5
55
330
3E
100
AcDbEntity
  8
0
  6
Continuous
 62
     4
100
AcDbLine
 10
3.7668709105
 20
2.8804913635
 30
0.0
 11
3.7668709105
 21
2.8017512061
 31
0.0
  0
LINE
  5
56
330
3E
100
AcDbEntity
  8
0
  6
Continuous
 62
     4
100
AcDbLine
 10
3.782618942
 20
2.8017512061
 30
0.0
 11
3.782618942
 21
2.8804913635
 31
0.0
  0
LINE
  5
57
330
3E
100
AcDbEntity
  8
0
  6
Continuous
 62
     4
100
AcDbLine
 10
3.831831540399999
 20
2.8804913635
 30
0.0
 11
3.831831540399999
 21
2.8017512061
 31
0.0
  0
LINE
  5
58
330
3E
100
AcDbEntity
  8
0
  6
Continuous
 62
     4
100
AcDbLine
 10
3.847579571899999
 20
2.8017512061
 30
0.0
 11
3.847579571899999
 21
2.8804913635
 31
0.0
  0
LINE
  5
59
330
3E
100
AcDbEntity
  8
0
  6
Continuous
 62
     4
100
AcDbLine
 10
3.896792170299999
 20
2.8804913635
 30
0.0
 11
3.896792170299999
 21
2.8017512061
 31
0.0
  0
LINE
  5
5A
330
3E
100
AcDbEntity
  8
0
  6
Continuous
 62
     4
100
AcDbLine
 10
3.9125402018
 20
2.8017512061
 30
0.0
 11
3.9125402018
 21
2.8804913635
 31
0.0
  0
LINE
  5
5B
330
3E
100
AcDbEntity
  8
0
  6
Continuous
 62
     4
100
AcDbLine
 10
3.961752800299999
 20
2.8804913635
 30
0.0
 11
3.961752800299999
 21
2.8017512061
 31
0.0
  0
LINE
  5
5C
330
3E
100
AcDbEntity
  8
0
  6
Continuous
 62
     4
100
AcDbLine
 10
3.9775008318
 20
2.8017512061
 30
0.0
 11
3.9775008318
 21
2.8804913635
 31
0.0
  0
LINE
  5
5D
330
3E
100
AcDbEntity
  8
0
  6
Continuous
 62
     4
100
AcDbLine
 10
4.0267134302
 20
2.8804913635
 30
0.0
 11
4.0267134302
 21
2.8017512061
 31
0.0
  0
LINE
  5
5E
330
3E
100
AcDbEntity
  8
0
  6
Continuous
 62
     4
100
AcDbLine
 10
4.0424614617
 20
2.8017512061
 30
0.0
 11
4.0424614617
 21
2.8804913635
 31
0.0
  0
LINE
  5
5F
330
3E
100
AcDbEntity
  8
0
  6
Continuous
 62
     4
100
AcDbLine
 10
4.091674060099999
 20
2.8804913635
 30
0.0
 11
4.091674060099999
 21
2.8017512061
 31
0.0
  0
LINE
  5
60
330
3E
100
AcDbEntity
  8
0
  6
Continuous
 62
     4
100
AcDbLine
 10
4.1074220916
 20
2.8017512061
 30
0.0
 11
4.1074220916
 21
2.8804913635
 31
0.0
  0
LINE
  5
61
330
3E
100
AcDbEntity
  8
0
  6
Continuous
 62
     4
100
AcDbLine
 10
4.156634689999999
 20
2.8804913635
 30
0.0
 11
4.156634689999999
 21
2.8017512061
 31
0.0
  0
LINE
  5
62
330
3E
100
AcDbEntity
  8
0
  6
Continuous
 62
     4
100
AcDbLine
 10
4.1723827215
 20
2.8017512061
 30
0.0
 11
4.1723827215
 21
2.8804913635
 31
0.0
  0
LINE
  5
63
330
3E
100
AcDbEntity
  8
0
  6
Continuous
 62
     4
100
AcDbLine
 10
4.221595319999999
 20
2.8804913635
 30
0.0
 11
4.221595319999999
 21
2.8017512061
 31
0.0
  0
LINE
  5
64
330
3E
100
AcDbEntity
  8
0
  6
Continuous
 62
     4
100
AcDbLine
 10
4.237343351399999
 20
2.8017512061
 30
0.0
 11
4.237343351399999
 21
2.8804913635
 31
0.0
  0
LINE
  5
65
330
3E
100
AcDbEntity
  8
0
  6
Continuous
 62
     4
100
AcDbLine
 10
4.2865559499
 20
2.8804913635
 30
0.0
 11
4.2865559499
 21
2.8017512061
 31
0.0
  0
LINE
  5
66
330
3E
100
AcDbEntity
  8
0
  6
Continuous
 62
     4
100
AcDbLine
 10
4.2865559499
 20
2.8017512061
 30
0.0
 11
4.237343351399999
 21
2.8017512061
 31
0.0
  0
LINE
  5
67
330
3E
100
AcDbEntity
  8
0
  6
Continuous
 62
     4
100
AcDbLine
 10
4.221595319999999
 20
2.8017512061
 30
0.0
 11
4.1723827215
 21
2.8017512061
 31
0.0
  0
LINE
  5
68
330
3E
100
AcDbEntity
  8
0
  6
Continuous
 62
     4
100
AcDbLine
 10
4.156634689999999
 20
2.8017512061
 30
0.0
 11
4.1074220916
 21
2.8017512061
 31
0.0
  0
LINE
  5
69
330
3E
100
AcDbEntity
  8
0
  6
Continuous
 62
     4
100
AcDbLine
 10
4.091674060099999
 20
2.8017512061
 30
0.0
 11
4.0424614617
 21
2.8017512061
 31
0.0
  0
LINE
  5
6A
330
3E
100
AcDbEntity
  8
0
  6
Continuous
 62
     4
100
AcDbLine
 10
4.0267134302
 20
2.8017512061
 30
0.0
 11
3.9775008318
 21
2.8017512061
 31
0.0
  0
LINE
  5
6B
330
3E
100
AcDbEntity
  8
0
  6
Continuous
 62
     4
100
AcDbLine
 10
3.961752800299999
 20
2.8017512061
 30
0.0
 11
3.9125402018
 21
2.8017512061
 31
0.0
  0
LINE
  5
6C
330
3E
100
AcDbEntity
  8
0
  6
Continuous
 62
     4
100
AcDbLine
 10
3.896792170299999
 20
2.8017512061
 30
0.0
 11
3.847579571899999
 21
2.8017512061
 31
0.0
  0
LINE
  5
6D
330
3E
100
AcDbEntity
  8
0
  6
Continuous
 62
     4
100
AcDbLine
 10
3.831831540399999
 20
2.8017512061
 30
0.0
 11
3.782618942
 21
2.8017512061
 31
0.0
  0
LINE
  5
6E
330
3E
100
AcDbEntity
  8
0
  6
Continuous
 62
     4
100
AcDbLine
 10
3.7668709105
 20
2.8017512061
 30
0.0
 11
3.717658312099999
 21
2.8017512061
 31
0.0
  0
LINE
  5
6F
330
3E
100
AcDbEntity
  8
0
  6
Continuous
 62
     4
100
AcDbLine
 10
3.701910280599999
 20
2.8017512061
 30
0.0
 11
3.6526976822
 21
2.8017512061
 31
0.0
  0
LINE
  5
70
330
3E
100
AcDbEntity
  8
0
  6
Continuous
 62
     4
100
AcDbLine
 10
3.6369496507
 20
2.8017512061
 30
0.0
 11
3.5877370522
 21
2.8017512061
 31
0.0
  0
LINE
  5
71
330
3E
100
AcDbEntity
  8
0
  6
Continuous
 62
     4
100
AcDbLine
 10
3.571989020699999
 20
2.8017512061
 30
0.0
 11
3.5227764223
 21
2.8017512061
 31
0.0
  0
LINE
  5
72
330
3E
100
AcDbEntity
  8
0
  6
Continuous
 62
     4
100
AcDbLine
 10
3.507028390799999
 20
2.8017512061
 30
0.0
 11
3.457815792399999
 21
2.8017512061
 31
0.0
  0
LINE
  5
73
330
3E
100
AcDbEntity
  8
0
  6
Continuous
 62
     4
100
AcDbLine
 10
3.442067760899999
 20
2.8017512061
 30
0.0
 11
3.3928551625
 21
2.8017512061
 31
0.0
  0
LINE
  5
74
330
3E
100
AcDbEntity
  8
0
  6
Continuous
 62
     4
100
AcDbLine
 10
3.377107131
 20
2.8017512061
 30
0.0
 11
3.327894532499999
 21
2.8017512061
 31
0.0
  0
LINE
  5
75
330
3E
100
AcDbEntity
  8
0
  6
Continuous
 62
     4
100
AcDbLine
 10
3.312146501099999
 20
2.8017512061
 30
0.0
 11
3.262933902599999
 21
2.8017512061
 31
0.0
  0
LINE
  5
76
330
3E
100
AcDbEntity
  8
0
  6
Continuous
 62
     7
100
AcDbLine
 10
4.3318315404
 20
2.965137032799999
 30
0.0
 11
4.3318315404
 21
2.8804913635
 31
0.0
  0
LINE
  5
77
330
3E
100
AcDbEntity
  8
0
  6
Continuous
 62
     7
100
AcDbLine
 10
3.217658312099999
 20
2.8804913635
 30
0.0
 11
3.262933902599999
 21
2.8804913635
 31
0.0
  0
LINE
  5
78
330
3E
100
AcDbEntity
  8
0
  6
Continuous
 62
     4
100
AcDbLine
 10
3.262933902599999
 20
2.8804913635
 30
0.0
 11
3.312146501099999
 21
2.8804913635
 31
0.0
  0
LINE
  5
79
330
3E
100
AcDbEntity
  8
0
  6
Continuous
 62
     7
100
AcDbLine
 10
3.312146501099999
 20
2.8804913635
 30
0.0
 11
3.327894532499999
 21
2.8804913635
 31
0.0
  0
LINE
  5
7A
330
3E
100
AcDbEntity
  8
0
  6
Continuous
 62
     4
100
AcDbLine
 10
3.327894532499999
 20
2.8804913635
 30
0.0
 11
3.377107131
 21
2.8804913635
 31
0.0
  0
LINE
  5
7B
330
3E
100
AcDbEntity
  8
0
  6
Continuous
 62
     7
100
AcDbLine
 10
3.377107131
 20
2.8804913635
 30
0.0
 11
3.3928551625
 21
2.8804913635
 31
0.0
  0
LINE
  5
7C
330
3E
100
AcDbEntity
  8
0
  6
Continuous
 62
     4
100
AcDbLine
 10
3.3928551625
 20
2.8804913635
 30
0.0
 11
3.442067760899999
 21
2.8804913635
 31
0.0
  0
LINE
  5
7D
330
3E
100
AcDbEntity
  8
0
  6
Continuous
 62
     7
100
AcDbLine
 10
3.442067760899999
 20
2.8804913635
 30
0.0
 11
3.457815792399999
 21
2.8804913635
 31
0.0
  0
LINE
  5
7E
330
3E
100
AcDbEntity
  8
0
  6
Continuous
 62
     4
100
AcDbLine
 10
3.457815792399999
 20
2.8804913635
 30
0.0
 11
3.507028390799999
 21
2.8804913635
 31
0.0
  0
LINE
  5
7F
330
3E
100
AcDbEntity
  8
0
  6
Continuous
 62
     7
100
AcDbLine
 10
3.507028390799999
 20
2.8804913635
 30
0.0
 11
3.5227764223
 21
2.8804913635
 31
0.0
  0
LINE
  5
80
330
3E
100
AcDbEntity
  8
0
  6
Continuous
 62
     4
100
AcDbLine
 10
3.5227764223
 20
2.8804913635
 30
0.0
 11
3.571989020699999
 21
2.8804913635
 31
0.0
  0
LINE
  5
81
330
3E
100
AcDbEntity
  8
0
  6
Continuous
 62
     7
100
AcDbLine
 10
3.571989020699999
 20
2.8804913635
 30
0.0
 11
3.5877370522
 21
2.8804913635
 31
0.0
  0
LINE
  5
82
330
3E
100
AcDbEntity
  8
0
  6
Continuous
 62
     4
100
AcDbLine
 10
3.5877370522
 20
2.8804913635
 30
0.0
 11
3.6369496507
 21
2.8804913635
 31
0.0
  0
LINE
  5
83
330
3E
100
AcDbEntity
  8
0
  6
Continuous
 62
     7
100
AcDbLine
 10
3.6369496507
 20
2.8804913635
 30
0.0
 11
3.6526976822
 21
2.8804913635
 31
0.0
  0
LINE
  5
84
330
3E
100
AcDbEntity
  8
0
  6
Continuous
 62
     4
100
AcDbLine
 10
3.6526976822
 20
2.8804913635
 30
0.0
 11
3.701910280599999
 21
2.8804913635
 31
0.0
  0
LINE
  5
85
330
3E
100
AcDbEntity
  8
0
  6
Continuous
 62
     7
100
AcDbLine
 10
3.701910280599999
 20
2.8804913635
 30
0.0
 11
3.717658312099999
 21
2.8804913635
 31
0.0
  0
LINE
  5
86
330
3E
100
AcDbEntity
  8
0
  6
Continuous
 62
     4
100
AcDbLine
 10
3.717658312099999
 20
2.8804913635
 30
0.0
 11
3.7668709105
 21
2.8804913635
 31
0.0
  0
LINE
  5
87
330
3E
100
AcDbEntity
  8
0
  6
Continuous
 62
     7
100
AcDbLine
 10
3.7668709105
 20
2.8804913635
 30
0.0
 11
3.782618942
 21
2.8804913635
 31
0.0
  0
LINE
  5
88
330
3E
100
AcDbEntity
  8
0
  6
Continuous
 62
     4
100
AcDbLine
 10
3.782618942
 20
2.8804913635
 30
0.0
 11
3.831831540399999
 21
2.8804913635
 31
0.0
  0
LINE
  5
89
330
3E
100
AcDbEntity
  8
0
  6
Continuous
 62
     7
100
AcDbLine
 10
3.831831540399999
 20
2.8804913635
 30
0.0
 11
3.847579571899999
 21
2.8804913635
 31
0.0
  0
LINE
  5
8A
330
3E
100
AcDbEntity
  8
0
  6
Continuous
 62
     4
100
AcDbLine
 10
3.847579571899999
 20
2.8804913635
 30
0.0
 11
3.896792170299999
 21
2.8804913635
 31
0.0
  0
LINE
  5
8B
330
3E
100
AcDbEntity
  8
0
  6
Continuous
 62
     7
100
AcDbLine
 10
3.896792170299999
 20
2.8804913635
 30
0.0
 11
3.9125402018
 21
2.8804913635
 31
0.0
  0
LINE
  5
8C
330
3E
100
AcDbEntity
  8
0
  6
Continuous
 62
     4
100
AcDbLine
 10
3.9125402018
 20
2.8804913635
 30
0.0
 11
3.961752800299999
 21
2.8804913635
 31
0.0
  0
LINE
  5
8D
330
3E
100
AcDbEntity
  8
0
  6
Continuous
 62
     7
100
AcDbLine
 10
3.961752800299999
 20
2.8804913635
 30
0.0
 11
3.9775008318
 21
2.8804913635
 31
0.0
  0
LINE
  5
8E
330
3E
100
AcDbEntity
  8
0
  6
Continuous
 62
     4
100
AcDbLine
 10
3.9775008318
 20
2.8804913635
 30
0.0
 11
4.0267134302
 21
2.8804913635
 31
0.0
  0
LINE
  5
8F
330
3E
100
AcDbEntity
  8
0
  6
Continuous
 62
     7
100
AcDbLine
 10
4.0267134302
 20
2.8804913635
 30
0.0
 11
4.0424614617
 21
2.8804913635
 31
0.0
  0
LINE
  5
90
330
3E
100
AcDbEntity
  8
0
  6
Continuous
 62
     4
100
AcDbLine
 10
4.0424614617
 20
2.8804913635
 30
0.0
 11
4.091674060099999
 21
2.8804913635
 31
0.0
  0
LINE
  5
91
330
3E
100
AcDbEntity
  8
0
  6
Continuous
 62
     7
100
AcDbLine
 10
4.091674060099999
 20
2.8804913635
 30
0.0
 11
4.1074220916
 21
2.8804913635
 31
0.0
  0
LINE
  5
92
330
3E
100
AcDbEntity
  8
0
  6
Continuous
 62
     4
100
AcDbLine
 10
4.1074220916
 20
2.8804913635
 30
0.0
 11
4.156634689999999
 21
2.8804913635
 31
0.0
  0
LINE
  5
93
330
3E
100
AcDbEntity
  8
0
  6
Continuous
 62
     7
100
AcDbLine
 10
4.156634689999999
 20
2.8804913635
 30
0.0
 11
4.1723827215
 21
2.8804913635
 31
0.0
  0
LINE
  5
94
330
3E
100
AcDbEntity
  8
0
  6
Continuous
 62
     4
100
AcDbLine
 10
4.1723827215
 20
2.8804913635
 30
0.0
 11
4.221595319999999
 21
2.8804913635
 31
0.0
  0
LINE
  5
95
330
3E
100
AcDbEntity
  8
0
  6
Continuous
 62
     7
100
AcDbLine
 10
4.221595319999999
 20
2.8804913635
 30
0.0
 11
4.237343351399999
 21
2.8804913635
 31
0.0
  0
LINE
  5
96
330
3E
100
AcDbEntity
  8
0
  6
Continuous
 62
     4
100
AcDbLine
 10
4.237343351399999
 20
2.8804913635
 30
0.0
 11
4.2865559499
 21
2.8804913635
 31
0.0
  0
LINE
  5
97
330
3E
100
AcDbEntity
  8
0
  6
Continuous
 62
     7
100
AcDbLine
 10
4.2865559499
 20
2.8804913635
 30
0.0
 11
4.3318315404
 21
2.8804913635
 31
0.0
  0
LINE
  5
98
330
3E
100
AcDbEntity
  8
0
  6
Continuous
 62
     7
100
AcDbLine
 10
4.5030913829
 20
2.965137032799999
 30
0.0
 11
4.3318315404
 21
2.965137032799999
 31
0.0
  0
LINE
  5
99
330
3E
100
AcDbEntity
  8
0
  6
Continuous
 62
     7
100
AcDbLine
 10
3.217658312099999
 20
2.965137032799999
 30
0.0
 11
3.046398469599999
 21
2.965137032799999
 31
0.0
  0
LINE
  5
9A
330
3E
100
AcDbEntity
  8
0
  6
Continuous
 62
     7
100
AcDbLine
 10
4.621201619199999
 20
1.744664591899999
 30
0.0
 11
4.621201619199999
 21
2.8470267966
 31
0.0
  0
LINE
  5
9B
330
3E
100
AcDbEntity
  8
0
  6
Continuous
 62
     7
100
AcDbLine
 10
5.850603668099999
 20
1.626554355699999
 30
0.0
 11
5.897847762599999
 21
1.626554355699999
 31
0.0
  0
LINE
  5
9C
330
3E
100
AcDbEntity
  8
0
  6
Continuous
 62
     7
100
AcDbLine
 10
5.850603668099999
 20
1.744664591899999
 30
0.0
 11
5.897847762599999
 21
1.744664591899999
 31
0.0
  0
LINE
  5
9D
330
3E
100
AcDbEntity
  8
0
  6
Continuous
 62
     7
100
AcDbLine
 10
5.850603668099999
 20
1.626554355699999
 30
0.0
 11
5.850603668099999
 21
2.5240195452
 31
0.0
  0
LINE
  5
9E
330
3E
100
AcDbEntity
  8
0
  6
Continuous
 62
     4
100
AcDbLine
 10
5.850603668099999
 20
2.5240195452
 30
0.0
 11
5.850603668099999
 21
2.6188529456
 31
0.0
  0
LINE
  5
9F
330
3E
100
AcDbEntity
  8
0
  6
Continuous
 62
     7
100
AcDbLine
 10
5.850603668099999
 20
2.6188529456
 30
0.0
 11
5.850603668099999
 21
2.965137032799999
 31
0.0
  0
LINE
  5
A0
330
3E
100
AcDbEntity
  8
0
  6
Continuous
 62
     7
100
AcDbLine
 10
5.897847762599999
 20
1.626554355699999
 30
0.0
 11
5.897847762599999
 21
2.965137032799999
 31
0.0
  0
LINE
  5
A1
330
3E
100
AcDbEntity
  8
0
  6
Continuous
 62
     7
100
AcDbLine
 10
5.850603668099999
 20
2.8470267966
 30
0.0
 11
5.897847762599999
 21
2.8470267966
 31
0.0
  0
LINE
  5
A2
330
3E
100
AcDbEntity
  8
0
  6
Continuous
 62
     7
100
AcDbLine
 10
5.850603668099999
 20
2.965137032799999
 30
0.0
 11
5.897847762599999
 21
2.965137032799999
 31
0.0
  0
LINE
  5
A3
330
3E
100
AcDbEntity
  8
0
  6
Continuous
 62
     7
100
AcDbLine
 10
7.5144901048
 20
1.9196485774
 30
0.0
 11
7.5144901048
 21
1.813349364799999
 31
0.0
  0
LINE
  5
A4
330
3E
100
AcDbEntity
  8
0
  6
Continuous
 62
     7
100
AcDbLine
 10
7.559765695399999
 20
2.226735191499999
 30
0.0
 11
7.559765695399999
 21
2.0889399159
 31
0.0
  0
LINE
  5
A5
330
3E
100
AcDbEntity
  8
0
  6
Continuous
 62
     4
100
AcDbLine
 10
7.559765695399999
 20
1.301538341099999
 30
0.0
 11
7.559765695399999
 21
2.0889399159
 31
0.0
  0
LINE
  5
A6
330
3E
100
AcDbEntity
  8
0
  6
Continuous
 62
     4
100
AcDbLine
 10
7.599135774099999
 20
2.0692548766
 30
0.0
 11
7.599135774099999
 21
2.226735191499999
 31
0.0
  0
LINE
  5
A7
330
3E
100
AcDbEntity
  8
0
  6
Continuous
 62
     4
100
AcDbLine
 10
7.638505852799999
 20
2.0889399159
 30
0.0
 11
7.638505852799999
 21
1.301538341099999
 31
0.0
  0
LINE
  5
A8
330
3E
100
AcDbEntity
  8
0
  6
Continuous
 62
     4
100
AcDbLine
 10
7.6483483725
 20
2.226735191499999
 30
0.0
 11
7.6483483725
 21
2.0692548766
 31
0.0
  0
LINE
  5
A9
330
3E
100
AcDbEntity
  8
0
  6
Continuous
 62
     4
100
AcDbLine
 10
7.664096403999999
 20
2.0692548766
 30
0.0
 11
7.664096403999999
 21
2.226735191499999
 31
0.0
  0
LINE
  5
AA
330
3E
100
AcDbEntity
  8
0
  6
Continuous
 62
     7
100
AcDbLine
 10
8.583387742599999
 20
1.301538341099999
 30
0.0
 11
7.638505852799999
 21
1.301538341099999
 31
0.0
  0
LINE
  5
AB
330
3E
100
AcDbEntity
  8
0
  6
Continuous
 62
     4
100
AcDbLine
 10
7.638505852799999
 20
1.301538341099999
 30
0.0
 11
7.559765695399999
 21
1.301538341099999
 31
0.0
  0
LINE
  5
AC
330
3E
100
AcDbEntity
  8
0
  6
Continuous
 62
     4
100
AcDbLine
 10
8.583387742599999
 20
1.301538341099999
 30
0.0
 11
8.662127900099999
 21
1.301538341099999
 31
0.0
  0
LINE
  5
AD
330
3E
100
AcDbEntity
  8
0
  6
Continuous
 62
     4
100
AcDbLine
 10
7.713309002399999
 20
2.226735191499999
 30
0.0
 11
7.713309002399999
 21
2.0692548766
 31
0.0
  0
LINE
  5
AE
330
3E
100
AcDbEntity
  8
0
  6
Continuous
 62
     4
100
AcDbLine
 10
7.7290570339
 20
2.0692548766
 30
0.0
 11
7.7290570339
 21
2.226735191499999
 31
0.0
  0
LINE
  5
AF
330
3E
100
AcDbEntity
  8
0
  6
Continuous
 62
     4
100
AcDbLine
 10
7.778269632399999
 20
2.226735191499999
 30
0.0
 11
7.778269632399999
 21
2.0692548766
 31
0.0
  0
LINE
  5
B0
330
3E
100
AcDbEntity
  8
0
  6
Continuous
 62
     4
100
AcDbLine
 10
7.7940176639
 20
2.0692548766
 30
0.0
 11
7.7940176639
 21
2.226735191499999
 31
0.0
  0
LINE
  5
B1
330
3E
100
AcDbEntity
  8
0
  6
Continuous
 62
     4
100
AcDbLine
 10
7.835356246499999
 20
2.0889399159
 30
0.0
 11
7.835356246499999
 21
1.9235855852
 31
0.0
  0
LINE
  5
B2
330
3E
100
AcDbEntity
  8
0
  6
Continuous
 62
     4
100
AcDbLine
 10
7.8432302623
 20
2.226735191499999
 30
0.0
 11
7.8432302623
 21
2.0692548766
 31
0.0
  0
LINE
  5
B3
330
3E
100
AcDbEntity
  8
0
  6
Continuous
 62
     4
100
AcDbLine
 10
7.858978293799999
 20
2.0692548766
 30
0.0
 11
7.858978293799999
 21
2.226735191499999
 31
0.0
  0
LINE
  5
B4
330
3E
100
AcDbEntity
  8
0
  6
Continuous
 62
     4
100
AcDbLine
 10
7.9081908922
 20
2.226735191499999
 30
0.0
 11
7.9081908922
 21
2.0692548766
 31
0.0
  0
LINE
  5
B5
330
3E
100
AcDbEntity
  8
0
  6
Continuous
 62
     4
100
AcDbLine
 10
7.923938923699999
 20
2.0692548766
 30
0.0
 11
7.923938923699999
 21
2.226735191499999
 31
0.0
  0
LINE
  5
B6
330
3E
100
AcDbEntity
  8
0
  6
Continuous
 62
     4
100
AcDbLine
 10
7.9731515221
 20
2.226735191499999
 30
0.0
 11
7.9731515221
 21
2.0692548766
 31
0.0
  0
LINE
  5
B7
330
3E
100
AcDbEntity
  8
0
  6
Continuous
 62
     4
100
AcDbLine
 10
7.9888995536
 20
2.0692548766
 30
0.0
 11
7.9888995536
 21
2.226735191499999
 31
0.0
  0
LINE
  5
B8
330
3E
100
AcDbEntity
  8
0
  6
Continuous
 62
     4
100
AcDbLine
 10
8.038112152
 20
2.226735191499999
 30
0.0
 11
8.038112152
 21
2.0692548766
 31
0.0
  0
LINE
  5
B9
330
3E
100
AcDbEntity
  8
0
  6
Continuous
 62
     4
100
AcDbLine
 10
8.053860183499999
 20
2.0692548766
 30
0.0
 11
8.053860183499999
 21
2.226735191499999
 31
0.0
  0
LINE
  5
BA
330
3E
100
AcDbEntity
  8
0
  6
Continuous
 62
     4
100
AcDbLine
 10
8.103072781999999
 20
2.226735191499999
 30
0.0
 11
8.103072781999999
 21
2.0692548766
 31
0.0
  0
LINE
  5
BB
330
3E
100
AcDbEntity
  8
0
  6
Continuous
 62
     4
100
AcDbLine
 10
8.118820813500001
 20
2.0692548766
 30
0.0
 11
8.118820813500001
 21
2.226735191499999
 31
0.0
  0
LINE
  5
BC
330
3E
100
AcDbEntity
  8
0
  6
Continuous
 62
     7
100
AcDbLine
 10
7.5144901048
 20
1.813349364799999
 30
0.0
 11
7.559765695399999
 21
1.813349364799999
 31
0.0
  0
LINE
  5
BD
330
3E
100
AcDbEntity
  8
0
  6
Continuous
 62
     7
100
AcDbLine
 10
8.662127900099999
 20
1.813349364799999
 30
0.0
 11
8.707403490599999
 21
1.813349364799999
 31
0.0
  0
LINE
  5
BE
330
3E
100
AcDbEntity
  8
0
  6
Continuous
 62
     4
100
AcDbLine
 10
8.168033411899999
 20
2.226735191499999
 30
0.0
 11
8.168033411899999
 21
2.0692548766
 31
0.0
  0
LINE
  5
BF
330
3E
100
AcDbEntity
  8
0
  6
Continuous
 62
     4
100
AcDbLine
 10
8.1837814434
 20
2.0692548766
 30
0.0
 11
8.1837814434
 21
2.226735191499999
 31
0.0
  0
LINE
  5
C0
330
3E
100
AcDbEntity
  8
0
  6
Continuous
 62
     4
100
AcDbLine
 10
8.232994041799999
 20
2.226735191499999
 30
0.0
 11
8.232994041799999
 21
2.0692548766
 31
0.0
  0
LINE
  5
C1
330
3E
100
AcDbEntity
  8
0
  6
Continuous
 62
     4
100
AcDbLine
 10
8.2487420733
 20
2.0692548766
 30
0.0
 11
8.2487420733
 21
2.226735191499999
 31
0.0
  0
LINE
  5
C2
330
3E
100
AcDbEntity
  8
0
  6
Continuous
 62
     7
100
AcDbLine
 10
8.707403490599999
 20
1.9196485774
 30
0.0
 11
8.662127900099999
 21
1.9196485774
 31
0.0
  0
LINE
  5
C3
330
3E
100
AcDbEntity
  8
0
  6
Continuous
 62
     7
100
AcDbLine
 10
7.559765695399999
 20
1.9196485774
 30
0.0
 11
7.5144901048
 21
1.9196485774
 31
0.0
  0
LINE
  5
C4
330
3E
100
AcDbEntity
  8
0
  6
Continuous
 62
     4
100
AcDbLine
 10
8.297954671699999
 20
2.226735191499999
 30
0.0
 11
8.297954671699999
 21
2.0692548766
 31
0.0
  0
LINE
  5
C5
330
3E
100
AcDbEntity
  8
0
  6
Continuous
 62
     4
100
AcDbLine
 10
8.3137027032
 20
2.0692548766
 30
0.0
 11
8.3137027032
 21
2.226735191499999
 31
0.0
  0
LINE
  5
C6
330
3E
100
AcDbEntity
  8
0
  6
Continuous
 62
     4
100
AcDbLine
 10
7.835356246499999
 20
1.9235855852
 30
0.0
 11
7.559765695399999
 21
1.9235855852
 31
0.0
  0
LINE
  5
C7
330
3E
100
AcDbEntity
  8
0
  6
Continuous
 62
     4
100
AcDbLine
 10
8.386537348899999
 20
1.9235855852
 30
0.0
 11
8.662127900099999
 21
1.9235855852
 31
0.0
  0
LINE
  5
C8
330
3E
100
AcDbEntity
  8
0
  6
Continuous
 62
     4
100
AcDbLine
 10
8.362915301699999
 20
2.226735191499999
 30
0.0
 11
8.362915301699999
 21
2.0692548766
 31
0.0
  0
LINE
  5
C9
330
3E
100
AcDbEntity
  8
0
  6
Continuous
 62
     4
100
AcDbLine
 10
8.378663333099998
 20
2.0692548766
 30
0.0
 11
8.378663333099998
 21
2.226735191499999
 31
0.0
  0
LINE
  5
CA
330
3E
100
AcDbEntity
  8
0
  6
Continuous
 62
     4
100
AcDbLine
 10
8.386537348899999
 20
2.0889399159
 30
0.0
 11
8.386537348899999
 21
1.9235855852
 31
0.0
  0
LINE
  5
CB
330
3E
100
AcDbEntity
  8
0
  6
Continuous
 62
     4
100
AcDbLine
 10
8.6227578213
 20
2.0692548766
 30
0.0
 11
8.573545222899999
 21
2.0692548766
 31
0.0
  0
LINE
  5
CC
330
3E
100
AcDbEntity
  8
0
  6
Continuous
 62
     4
100
AcDbLine
 10
8.5577971914
 20
2.0692548766
 30
0.0
 11
8.508584593
 21
2.0692548766
 31
0.0
  0
LINE
  5
CD
330
3E
100
AcDbEntity
  8
0
  6
Continuous
 62
     4
100
AcDbLine
 10
8.492836561499998
 20
2.0692548766
 30
0.0
 11
8.4436239631
 21
2.0692548766
 31
0.0
  0
LINE
  5
CE
330
3E
100
AcDbEntity
  8
0
  6
Continuous
 62
     4
100
AcDbLine
 10
8.427875931599999
 20
2.0692548766
 30
0.0
 11
8.378663333099998
 21
2.0692548766
 31
0.0
  0
LINE
  5
CF
330
3E
100
AcDbEntity
  8
0
  6
Continuous
 62
     4
100
AcDbLine
 10
8.362915301699999
 20
2.0692548766
 30
0.0
 11
8.3137027032
 21
2.0692548766
 31
0.0
  0
LINE
  5
D0
330
3E
100
AcDbEntity
  8
0
  6
Continuous
 62
     4
100
AcDbLine
 10
8.297954671699999
 20
2.0692548766
 30
0.0
 11
8.2487420733
 21
2.0692548766
 31
0.0
  0
LINE
  5
D1
330
3E
100
AcDbEntity
  8
0
  6
Continuous
 62
     4
100
AcDbLine
 10
8.232994041799999
 20
2.0692548766
 30
0.0
 11
8.1837814434
 21
2.0692548766
 31
0.0
  0
LINE
  5
D2
330
3E
100
AcDbEntity
  8
0
  6
Continuous
 62
     4
100
AcDbLine
 10
8.168033411899999
 20
2.0692548766
 30
0.0
 11
8.118820813500001
 21
2.0692548766
 31
0.0
  0
LINE
  5
D3
330
3E
100
AcDbEntity
  8
0
  6
Continuous
 62
     4
100
AcDbLine
 10
8.103072781999999
 20
2.0692548766
 30
0.0
 11
8.053860183499999
 21
2.0692548766
 31
0.0
  0
LINE
  5
D4
330
3E
100
AcDbEntity
  8
0
  6
Continuous
 62
     4
100
AcDbLine
 10
8.038112152
 20
2.0692548766
 30
0.0
 11
7.9888995536
 21
2.0692548766
 31
0.0
  0
LINE
  5
D5
330
3E
100
AcDbEntity
  8
0
  6
Continuous
 62
     4
100
AcDbLine
 10
7.9731515221
 20
2.0692548766
 30
0.0
 11
7.923938923699999
 21
2.0692548766
 31
0.0
  0
LINE
  5
D6
330
3E
100
AcDbEntity
  8
0
  6
Continuous
 62
     4
100
AcDbLine
 10
7.9081908922
 20
2.0692548766
 30
0.0
 11
7.858978293799999
 21
2.0692548766
 31
0.0
  0
LINE
  5
D7
330
3E
100
AcDbEntity
  8
0
  6
Continuous
 62
     4
100
AcDbLine
 10
7.8432302623
 20
2.0692548766
 30
0.0
 11
7.7940176639
 21
2.0692548766
 31
0.0
  0
LINE
  5
D8
330
3E
100
AcDbEntity
  8
0
  6
Continuous
 62
     4
100
AcDbLine
 10
7.778269632399999
 20
2.0692548766
 30
0.0
 11
7.7290570339
 21
2.0692548766
 31
0.0
  0
LINE
  5
D9
330
3E
100
AcDbEntity
  8
0
  6
Continuous
 62
     4
100
AcDbLine
 10
7.713309002399999
 20
2.0692548766
 30
0.0
 11
7.664096403999999
 21
2.0692548766
 31
0.0
  0
LINE
  5
DA
330
3E
100
AcDbEntity
  8
0
  6
Continuous
 62
     4
100
AcDbLine
 10
7.6483483725
 20
2.0692548766
 30
0.0
 11
7.599135774099999
 21
2.0692548766
 31
0.0
  0
LINE
  5
DB
330
3E
100
AcDbEntity
  8
0
  6
Continuous
 62
     4
100
AcDbLine
 10
8.427875931599999
 20
2.226735191499999
 30
0.0
 11
8.427875931599999
 21
2.0692548766
 31
0.0
  0
LINE
  5
DC
330
3E
100
AcDbEntity
  8
0
  6
Continuous
 62
     4
100
AcDbLine
 10
8.4436239631
 20
2.0692548766
 30
0.0
 11
8.4436239631
 21
2.226735191499999
 31
0.0
  0
LINE
  5
DD
330
3E
100
AcDbEntity
  8
0
  6
Continuous
 62
     4
100
AcDbLine
 10
8.662127900099999
 20
2.0889399159
 30
0.0
 11
8.386537348899999
 21
2.0889399159
 31
0.0
  0
LINE
  5
DE
330
3E
100
AcDbEntity
  8
0
  6
Continuous
 62
     4
100
AcDbLine
 10
7.559765695399999
 20
2.0889399159
 30
0.0
 11
7.835356246499999
 21
2.0889399159
 31
0.0
  0
LINE
  5
DF
330
3E
100
AcDbEntity
  8
0
  6
Continuous
 62
     4
100
AcDbLine
 10
8.492836561499998
 20
2.226735191499999
 30
0.0
 11
8.492836561499998
 21
2.0692548766
 31
0.0
  0
LINE
  5
E0
330
3E
100
AcDbEntity
  8
0
  6
Continuous
 62
     4
100
AcDbLine
 10
8.508584593
 20
2.0692548766
 30
0.0
 11
8.508584593
 21
2.226735191499999
 31
0.0
  0
LINE
  5
E1
330
3E
100
AcDbEntity
  8
0
  6
Continuous
 62
     4
100
AcDbLine
 10
8.5577971914
 20
2.226735191499999
 30
0.0
 11
8.5577971914
 21
2.0692548766
 31
0.0
  0
LINE
  5
E2
330
3E
100
AcDbEntity
  8
0
  6
Continuous
 62
     4
100
AcDbLine
 10
8.573545222899999
 20
2.0692548766
 30
0.0
 11
8.573545222899999
 21
2.226735191499999
 31
0.0
  0
LINE
  5
E3
330
3E
100
AcDbEntity
  8
0
  6
Continuous
 62
     4
100
AcDbLine
 10
8.583387742599999
 20
2.0889399159
 30
0.0
 11
8.583387742599999
 21
1.301538341099999
 31
0.0
  0
LINE
  5
E4
330
3E
100
AcDbEntity
  8
0
  6
Continuous
 62
     7
100
AcDbLine
 10
8.662127900099999
 20
2.226735191499999
 30
0.0
 11
8.6227578213
 21
2.226735191499999
 31
0.0
  0
LINE
  5
E5
330
3E
100
AcDbEntity
  8
0
  6
Continuous
 62
     7
100
AcDbLine
 10
7.599135774099999
 20
2.226735191499999
 30
0.0
 11
7.559765695399999
 21
2.226735191499999
 31
0.0
  0
LINE
  5
E6
330
3E
100
AcDbEntity
  8
0
  6
Continuous
 62
     7
100
AcDbLine
 10
7.664096403999999
 20
2.226735191499999
 30
0.0
 11
7.6483483725
 21
2.226735191499999
 31
0.0
  0
LINE
  5
E7
330
3E
100
AcDbEntity
  8
0
  6
Continuous
 62
     7
100
AcDbLine
 10
7.7290570339
 20
2.226735191499999
 30
0.0
 11
7.713309002399999
 21
2.226735191499999
 31
0.0
  0
LINE
  5
E8
330
3E
100
AcDbEntity
  8
0
  6
Continuous
 62
     7
100
AcDbLine
 10
7.7940176639
 20
2.226735191499999
 30
0.0
 11
7.778269632399999
 21
2.226735191499999
 31
0.0
  0
LINE
  5
E9
330
3E
100
AcDbEntity
  8
0
  6
Continuous
 62
     7
100
AcDbLine
 10
7.858978293799999
 20
2.226735191499999
 30
0.0
 11
7.8432302623
 21
2.226735191499999
 31
0.0
  0
LINE
  5
EA
330
3E
100
AcDbEntity
  8
0
  6
Continuous
 62
     7
100
AcDbLine
 10
7.923938923699999
 20
2.226735191499999
 30
0.0
 11
7.9081908922
 21
2.226735191499999
 31
0.0
  0
LINE
  5
EB
330
3E
100
AcDbEntity
  8
0
  6
Continuous
 62
     7
100
AcDbLine
 10
7.9888995536
 20
2.226735191499999
 30
0.0
 11
7.9731515221
 21
2.226735191499999
 31
0.0
  0
LINE
  5
EC
330
3E
100
AcDbEntity
  8
0
  6
Continuous
 62
     7
100
AcDbLine
 10
8.053860183499999
 20
2.226735191499999
 30
0.0
 11
8.038112152
 21
2.226735191499999
 31
0.0
  0
LINE
  5
ED
330
3E
100
AcDbEntity
  8
0
  6
Continuous
 62
     7
100
AcDbLine
 10
8.118820813500001
 20
2.226735191499999
 30
0.0
 11
8.103072781999999
 21
2.226735191499999
 31
0.0
  0
LINE
  5
EE
330
3E
100
AcDbEntity
  8
0
  6
Continuous
 62
     7
100
AcDbLine
 10
8.1837814434
 20
2.226735191499999
 30
0.0
 11
8.168033411899999
 21
2.226735191499999
 31
0.0
  0
LINE
  5
EF
330
3E
100
AcDbEntity
  8
0
  6
Continuous
 62
     7
100
AcDbLine
 10
8.2487420733
 20
2.226735191499999
 30
0.0
 11
8.232994041799999
 21
2.226735191499999
 31
0.0
  0
LINE
  5
F0
330
3E
100
AcDbEntity
  8
0
  6
Continuous
 62
     7
100
AcDbLine
 10
8.3137027032
 20
2.226735191499999
 30
0.0
 11
8.297954671699999
 21
2.226735191499999
 31
0.0
  0
LINE
  5
F1
330
3E
100
AcDbEntity
  8
0
  6
Continuous
 62
     7
100
AcDbLine
 10
8.378663333099998
 20
2.226735191499999
 30
0.0
 11
8.362915301699999
 21
2.226735191499999
 31
0.0
  0
LINE
  5
F2
330
3E
100
AcDbEntity
  8
0
  6
Continuous
 62
     7
100
AcDbLine
 10
8.4436239631
 20
2.226735191499999
 30
0.0
 11
8.427875931599999
 21
2.226735191499999
 31
0.0
  0
LINE
  5
F3
330
3E
100
AcDbEntity
  8
0
  6
Continuous
 62
     7
100
AcDbLine
 10
8.508584593
 20
2.226735191499999
 30
0.0
 11
8.492836561499998
 21
2.226735191499999
 31
0.0
  0
LINE
  5
F4
330
3E
100
AcDbEntity
  8
0
  6
Continuous
 62
     7
100
AcDbLine
 10
8.573545222899999
 20
2.226735191499999
 30
0.0
 11
8.5577971914
 21
2.226735191499999
 31
0.0
  0
LINE
  5
F5
330
3E
100
AcDbEntity
  8
0
  6
Continuous
 62
     4
100
AcDbLine
 10
7.599135774099999
 20
2.226735191499999
 30
0.0
 11
7.6483483725
 21
2.226735191499999
 31
0.0
  0
LINE
  5
F6
330
3E
100
AcDbEntity
  8
0
  6
Continuous
 62
     4
100
AcDbLine
 10
7.664096403999999
 20
2.226735191499999
 30
0.0
 11
7.713309002399999
 21
2.226735191499999
 31
0.0
  0
LINE
  5
F7
330
3E
100
AcDbEntity
  8
0
  6
Continuous
 62
     4
100
AcDbLine
 10
7.7290570339
 20
2.226735191499999
 30
0.0
 11
7.778269632399999
 21
2.226735191499999
 31
0.0
  0
LINE
  5
F8
330
3E
100
AcDbEntity
  8
0
  6
Continuous
 62
     4
100
AcDbLine
 10
7.7940176639
 20
2.226735191499999
 30
0.0
 11
7.8432302623
 21
2.226735191499999
 31
0.0
  0
LINE
  5
F9
330
3E
100
AcDbEntity
  8
0
  6
Continuous
 62
     4
100
AcDbLine
 10
7.858978293799999
 20
2.226735191499999
 30
0.0
 11
7.9081908922
 21
2.226735191499999
 31
0.0
  0
LINE
  5
FA
330
3E
100
AcDbEntity
  8
0
  6
Continuous
 62
     4
100
AcDbLine
 10
7.923938923699999
 20
2.226735191499999
 30
0.0
 11
7.9731515221
 21
2.226735191499999
 31
0.0
  0
LINE
  5
FB
330
3E
100
AcDbEntity
  8
0
  6
Continuous
 62
     4
100
AcDbLine
 10
7.9888995536
 20
2.226735191499999
 30
0.0
 11
8.038112152
 21
2.226735191499999
 31
0.0
  0
LINE
  5
FC
330
3E
100
AcDbEntity
  8
0
  6
Continuous
 62
     4
100
AcDbLine
 10
8.053860183499999
 20
2.226735191499999
 30
0.0
 11
8.103072781999999
 21
2.226735191499999
 31
0.0
  0
LINE
  5
FD
330
3E
100
AcDbEntity
  8
0
  6
Continuous
 62
     4
100
AcDbLine
 10
8.118820813500001
 20
2.226735191499999
 30
0.0
 11
8.168033411899999
 21
2.226735191499999
 31
0.0
  0
LINE
  5
FE
330
3E
100
AcDbEntity
  8
0
  6
Continuous
 62
     4
100
AcDbLine
 10
8.1837814434
 20
2.226735191499999
 30
0.0
 11
8.232994041799999
 21
2.226735191499999
 31
0.0
  0
LINE
  5
FF
330
3E
100
AcDbEntity
  8
0
  6
Continuous
 62
     4
100
AcDbLine
 10
8.2487420733
 20
2.226735191499999
 30
0.0
 11
8.297954671699999
 21
2.226735191499999
 31
0.0
  0
LINE
  5
100
330
3E
100
AcDbEntity
  8
0
  6
Continuous
 62
     4
100
AcDbLine
 10
8.3137027032
 20
2.226735191499999
 30
0.0
 11
8.362915301699999
 21
2.226735191499999
 31
0.0
  0
LINE
  5
101
330
3E
100
AcDbEntity
  8
0
  6
Continuous
 62
     4
100
AcDbLine
 10
8.378663333099998
 20
2.226735191499999
 30
0.0
 11
8.427875931599999
 21
2.226735191499999
 31
0.0
  0
LINE
  5
102
330
3E
100
AcDbEntity
  8
0
  6
Continuous
 62
     4
100
AcDbLine
 10
8.4436239631
 20
2.226735191499999
 30
0.0
 11
8.492836561499998
 21
2.226735191499999
 31
0.0
  0
LINE
  5
103
330
3E
100
AcDbEntity
  8
0
  6
Continuous
 62
     4
100
AcDbLine
 10
8.508584593
 20
2.226735191499999
 30
0.0
 11
8.5577971914
 21
2.226735191499999
 31
0.0
  0
LINE
  5
104
330
3E
100
AcDbEntity
  8
0
  6
Continuous
 62
     4
100
AcDbLine
 10
8.573545222899999
 20
2.226735191499999
 30
0.0
 11
8.6227578213
 21
2.226735191499999
 31
0.0
  0
LINE
  5
105
330
3E
100
AcDbEntity
  8
0
  6
Continuous
 62
     4
100
AcDbLine
 10
8.6227578213
 20
2.226735191499999
 30
0.0
 11
8.6227578213
 21
2.0692548766
 31
0.0
  0
LINE
  5
106
330
3E
100
AcDbEntity
  8
0
  6
Continuous
 62
     4
100
AcDbLine
 10
8.662127900099999
 20
1.301538341099999
 30
0.0
 11
8.662127900099999
 21
2.0889399159
 31
0.0
  0
LINE
  5
107
330
3E
100
AcDbEntity
  8
0
  6
Continuous
 62
     7
100
AcDbLine
 10
8.662127900099999
 20
2.0889399159
 30
0.0
 11
8.662127900099999
 21
2.226735191499999
 31
0.0
  0
LINE
  5
108
330
3E
100
AcDbEntity
  8
0
  6
Continuous
 62
     7
100
AcDbLine
 10
8.707403490599999
 20
1.813349364799999
 30
0.0
 11
8.707403490599999
 21
1.9196485774
 31
0.0
  0
LINE
  5
109
330
3E
100
AcDbEntity
  8
0
  6
Continuous
 62
     7
100
AcDbLine
 10
9.66483968
 20
1.301538341099999
 30
0.0
 11
9.712083774499999
 21
1.301538341099999
 31
0.0
  0
LINE
  5
10A
330
3E
100
AcDbEntity
  8
0
  6
Continuous
 62
     4
100
AcDbLine
 10
9.66483968
 20
1.301538341099999
 30
0.0
 11
9.66483968
 21
1.813349364799999
 31
0.0
  0
LINE
  5
10B
330
3E
100
AcDbEntity
  8
0
  6
Continuous
 62
     7
100
AcDbLine
 10
9.66483968
 20
1.813349364799999
 30
0.0
 11
9.66483968
 21
1.9196485774
 31
0.0
  0
LINE
  5
10C
330
3E
100
AcDbEntity
  8
0
  6
Continuous
 62
     4
100
AcDbLine
 10
9.66483968
 20
1.9196485774
 30
0.0
 11
9.66483968
 21
2.0889399159
 31
0.0
  0
LINE
  5
10D
330
3E
100
AcDbEntity
  8
0
  6
Continuous
 62
     7
100
AcDbLine
 10
9.66483968
 20
2.0889399159
 30
0.0
 11
9.66483968
 21
2.226735191499999
 31
0.0
  0
LINE
  5
10E
330
3E
100
AcDbEntity
  8
0
  6
Continuous
 62
     7
100
AcDbLine
 10
9.712083774499999
 20
1.301538341099999
 30
0.0
 11
9.712083774499999
 21
2.226735191499999
 31
0.0
  0
LINE
  5
10F
330
3E
100
AcDbEntity
  8
0
  6
Continuous
 62
     7
100
AcDbLine
 10
9.66483968
 20
1.813349364799999
 30
0.0
 11
9.712083774499999
 21
1.813349364799999
 31
0.0
  0
LINE
  5
110
330
3E
100
AcDbEntity
  8
0
  6
Continuous
 62
     7
100
AcDbLine
 10
9.66483968
 20
1.9196485774
 30
0.0
 11
9.712083774499999
 21
1.9196485774
 31
0.0
  0
LINE
  5
111
330
3E
100
AcDbEntity
  8
0
  6
Continuous
 62
     7
100
AcDbLine
 10
9.66483968
 20
2.226735191499999
 30
0.0
 11
9.712083774499999
 21
2.226735191499999
 31
0.0
  0
ARC
  5
112
330
3E
100
AcDbEntity
  8
0
  6
Continuous
 62
     7
100
AcDbCircle
 10
4.5030913829
 20
2.8470267966
 30
0.0
 40
0.1181102362
100
AcDbArc
 50
0.0
 51
90.0
  0
ARC
  5
113
330
3E
100
AcDbEntity
  8
0
  6
Continuous
 62
     7
100
AcDbCircle
 10
4.5030913829
 20
1.744664591899999
 30
0.0
 40
0.1181102362
100
AcDbArc
 50
270.0
 51
360.0
  0
ARC
  5
114
330
3E
100
AcDbEntity
  8
0
  6
Continuous
 62
     7
100
AcDbCircle
 10
3.046398469599999
 20
1.744664591899999
 30
0.0
 40
0.1181102362
100
AcDbArc
 50
180.0
 51
270.0
  0
ARC
  5
115
330
3E
100
AcDbEntity
  8
0
  6
Continuous
 62
     7
100
AcDbCircle
 10
3.046398469599999
 20
2.8470267966
 30
0.0
 40
0.1181102362
100
AcDbArc
 50
90.0
 51
180.0
  0
CIRCLE
  5
116
330
3E
100
AcDbEntity
  8
0
  6
Continuous
 62
     4
100
AcDbCircle
 10
3.007028390799999
 20
2.571436245399999
 30
0.0
 40
0.0984251969
  0
CIRCLE
  5
117
330
3E
100
AcDbEntity
  8
0
  6
Continuous
 62
     4
100
AcDbCircle
 10
4.5424614617
 20
2.571436245399999
 30
0.0
 40
0.0984251969
  0
CIRCLE
  5
118
330
3E
100
AcDbEntity
  8
0
  6
Continuous
 62
     7
100
AcDbCircle
 10
3.007028390799999
 20
2.571436245399999
 30
0.0
 40
0.0452755906
  0
CIRCLE
  5
119
330
3E
100
AcDbEntity
  8
0
  6
Continuous
 62
     7
100
AcDbCircle
 10
4.5424614617
 20
2.571436245399999
 30
0.0
 40
0.0452755906
  0
CIRCLE
  5
11A
330
3E
100
AcDbEntity
  8
0
  6
Continuous
 62
     7
100
AcDbCircle
 10
3.774744926299999
 20
1.7052945131
 30
0.0
 40
0.0452755906
  0
CIRCLE
  5
11B
330
3E
100
AcDbEntity
  8
0
  6
Continuous
 62
     7
100
AcDbCircle
 10
3.085768548299999
 20
2.886396875299999
 30
0.0
 40
0.0354330709
  0
CIRCLE
  5
11C
330
3E
100
AcDbEntity
  8
0
  6
Continuous
 62
     7
100
AcDbCircle
 10
4.5030913829
 20
1.7052945131
 30
0.0
 40
0.0354330709
  0
CIRCLE
  5
11D
330
3E
100
AcDbEntity
  8
0
  6
Continuous
 62
     7
100
AcDbCircle
 10
7.847954671699999
 20
1.498388734799999
 30
0.0
 40
0.0177165354
  0
CIRCLE
  5
11E
330
3E
100
AcDbEntity
  8
0
  6
Continuous
 62
     7
100
AcDbCircle
 10
8.005434986699999
 20
1.498388734799999
 30
0.0
 40
0.0177165354
  0
CIRCLE
  5
11F
330
3E
100
AcDbEntity
  8
0
  6
Continuous
 62
     7
100
AcDbCircle
 10
7.847954671699999
 20
1.4196485774
 30
0.0
 40
0.0177165354
  0
CIRCLE
  5
120
330
3E
100
AcDbEntity
  8
0
  6
Continuous
 62
     7
100
AcDbCircle
 10
8.005434986699999
 20
1.4196485774
 30
0.0
 40
0.0177165354
  0
CIRCLE
  5
121
330
3E
100
AcDbEntity
  8
0
  6
Continuous
 62
     7
100
AcDbCircle
 10
8.3739389237
 20
1.498388734799999
 30
0.0
 40
0.0177165354
  0
CIRCLE
  5
122
330
3E
100
AcDbEntity
  8
0
  6
Continuous
 62
     7
100
AcDbCircle
 10
8.216458608699999
 20
1.498388734799999
 30
0.0
 40
0.0177165354
  0
CIRCLE
  5
123
330
3E
100
AcDbEntity
  8
0
  6
Continuous
 62
     7
100
AcDbCircle
 10
8.3739389237
 20
1.4196485774
 30
0.0
 40
0.0177165354
  0
CIRCLE
  5
124
330
3E
100
AcDbEntity
  8
0
  6
Continuous
 62
     7
100
AcDbCircle
 10
8.216458608699999
 20
1.4196485774
 30
0.0
 40
0.0177165354
  0
ENDBLK
  5
126
330
3E
100
AcDbEntity
  8
0
100
AcDbBlockEnd
  0
BLOCK
  5
21C
330
212
100
AcDbEntity
  8
0
100
AcDbBlockBegin
  2
*D2
 70
     1
 10
0.0
 20
0.0
 30
0.0
  3
*D2
  1

  0
LINE
  5
21F
330
212
100
AcDbEntity
  8
0
 62
     0
370
    -2
100
AcDbLine
 10
267.8340005492376
 20
153.7820174973691
 30
0.0
 11
267.8340005492376
 21
161.5575987538859
 31
0.0
  0
LINE
  5
220
330
212
100
AcDbEntity
  8
0
 62
     0
370
    -2
100
AcDbLine
 10
296.1340005480576
 20
153.7820174973691
 30
0.0
 11
296.1340005480576
 21
161.5575987538859
 31
0.0
  0
LINE
  5
221
330
212
100
AcDbEntity
  8
0
 62
     0
370
    -2
100
AcDbLine
 10
270.3340005492376
 20
160.3075987538859
 30
0.0
 11
293.6340005480576
 21
160.3075987538859
 31
0.0
  0
SOLID
  5
222
330
212
100
AcDbEntity
  8
0
 62
     0
100
AcDbTrace
 10
270.3340005492376
 20
160.7242654205526
 30
0.0
 11
270.3340005492376
 21
159.8909320872193
 31
0.0
 12
267.8340005492376
 22
160.3075987538859
 32
0.0
 13
267.8340005492376
 23
160.3075987538859
 33
0.0
  0
SOLID
  5
223
330
212
100
AcDbEntity
  8
0
 62
     0
100
AcDbTrace
 10
293.6340005480576
 20
159.8909320872193
 30
0.0
 11
293.6340005480576
 21
160.7242654205526
 31
0.0
 12
296.1340005480576
 22
160.3075987538859
 32
0.0
 13
296.1340005480576
 23
160.3075987538859
 33
0.0
  0
MTEXT
  5
224
330
212
100
AcDbEntity
  8
0
 62
     0
100
AcDbMText
 10
281.9840005486476
 20
162.1825987538859
 30
0.0
 40
2.5
 41
0.0
 71
     5
 72
     5
  1
28.3
 73
     1
 44
1.0
  0
POINT
  5
225
330
212
100
AcDbEntity
  8
Defpoints
 62
     0
100
AcDbPoint
 10
267.8340005492376
 20
153.1570174973691
 30
0.0
  0
POINT
  5
226
330
212
100
AcDbEntity
  8
Defpoints
 62
     0
100
AcDbPoint
 10
296.1340005480576
 20
153.1570174973691
 30
0.0
  0
POINT
  5
227
330
212
100
AcDbEntity
  8
Defpoints
 62
     0
100
AcDbPoint
 10
296.1340005480576
 20
160.3075987538859
 30
0.0
  0
ENDBLK
  5
21D
330
212
100
AcDbEntity
  8
0
100
AcDbBlockEnd
  0
ENDSEC
  0
SECTION
  2
ENTITIES
  0
LINE
  5
12C
330
28
100
AcDbEntity
  8
0
  6
Continuous
 62
     7
100
AcDbLine
 10
260.4840005477176
 20
152.3070174981091
 30
0.0
 11
260.4840005477176
 21
124.3070174987291
 31
0.0
  0
LINE
  5
12D
330
28
100
AcDbEntity
  8
0
  6
Continuous
 62
     7
100
AcDbLine
 10
263.4840005497376
 20
121.3070174992491
 30
0.0
 11
300.4840005475576
 21
121.3070174992491
 31
0.0
  0
LINE
  5
12E
330
28
100
AcDbEntity
  8
0
  6
Continuous
 62
     7
100
AcDbLine
 10
267.8340005492376
 20
155.3070174975891
 30
0.0
 11
267.8340005492376
 21
153.1570174973691
 31
0.0
  0
LINE
  5
12F
330
28
100
AcDbEntity
  8
0
  6
Continuous
 62
     4
100
AcDbLine
 10
268.9840005479376
 20
151.1570174994091
 30
0.0
 11
268.9840005479376
 21
153.1570174973691
 31
0.0
  0
LINE
  5
130
330
28
100
AcDbEntity
  8
0
  6
Continuous
 62
     4
100
AcDbLine
 10
270.2340005498375
 20
153.1570174973691
 30
0.0
 11
270.2340005498375
 21
151.1570174994091
 31
0.0
  0
LINE
  5
131
330
28
100
AcDbEntity
  8
0
  6
Continuous
 62
     4
100
AcDbLine
 10
270.6340005473976
 20
151.1570174994091
 30
0.0
 11
270.6340005473976
 21
153.1570174973691
 31
0.0
  0
LINE
  5
132
330
28
100
AcDbEntity
  8
0
  6
Continuous
 62
     4
100
AcDbLine
 10
271.8840005492976
 20
153.1570174973691
 30
0.0
 11
271.8840005492976
 21
151.1570174994091
 31
0.0
  0
LINE
  5
133
330
28
100
AcDbEntity
  8
0
  6
Continuous
 62
     4
100
AcDbLine
 10
272.2840005493976
 20
151.1570174994091
 30
0.0
 11
272.2840005493976
 21
153.1570174973691
 31
0.0
  0
LINE
  5
134
330
28
100
AcDbEntity
  8
0
  6
Continuous
 62
     4
100
AcDbLine
 10
273.5340005487576
 20
153.1570174973691
 30
0.0
 11
273.5340005487576
 21
151.1570174994091
 31
0.0
  0
LINE
  5
135
330
28
100
AcDbEntity
  8
0
  6
Continuous
 62
     4
100
AcDbLine
 10
273.9340005488576
 20
151.1570174994091
 30
0.0
 11
273.9340005488576
 21
153.1570174973691
 31
0.0
  0
LINE
  5
136
330
28
100
AcDbEntity
  8
0
  6
Continuous
 62
     4
100
AcDbLine
 10
275.1840005482176
 20
153.1570174973691
 30
0.0
 11
275.1840005482176
 21
151.1570174994091
 31
0.0
  0
LINE
  5
137
330
28
100
AcDbEntity
  8
0
  6
Continuous
 62
     4
100
AcDbLine
 10
275.5840005483176
 20
151.1570174994091
 30
0.0
 11
275.5840005483176
 21
153.1570174973691
 31
0.0
  0
LINE
  5
138
330
28
100
AcDbEntity
  8
0
  6
Continuous
 62
     4
100
AcDbLine
 10
276.8340005476776
 20
153.1570174973691
 30
0.0
 11
276.8340005476776
 21
151.1570174994091
 31
0.0
  0
LINE
  5
139
330
28
100
AcDbEntity
  8
0
  6
Continuous
 62
     4
100
AcDbLine
 10
277.2340005477776
 20
151.1570174994091
 30
0.0
 11
277.2340005477776
 21
153.1570174973691
 31
0.0
  0
LINE
  5
13A
330
28
100
AcDbEntity
  8
0
  6
Continuous
 62
     4
100
AcDbLine
 10
278.4840005496776
 20
153.1570174973691
 30
0.0
 11
278.4840005496776
 21
151.1570174994091
 31
0.0
  0
LINE
  5
13B
330
28
100
AcDbEntity
  8
0
  6
Continuous
 62
     4
100
AcDbLine
 10
278.8840005497776
 20
151.1570174994091
 30
0.0
 11
278.8840005497776
 21
153.1570174973691
 31
0.0
  0
LINE
  5
13C
330
28
100
AcDbEntity
  8
0
  6
Continuous
 62
     4
100
AcDbLine
 10
280.1340005491375
 20
153.1570174973691
 30
0.0
 11
280.1340005491375
 21
151.1570174994091
 31
0.0
  0
LINE
  5
13D
330
28
100
AcDbEntity
  8
0
  6
Continuous
 62
     4
100
AcDbLine
 10
280.5340005492376
 20
151.1570174994091
 30
0.0
 11
280.5340005492376
 21
153.1570174973691
 31
0.0
  0
LINE
  5
13E
330
28
100
AcDbEntity
  8
0
  6
Continuous
 62
     4
100
AcDbLine
 10
281.7840005485976
 20
153.1570174973691
 30
0.0
 11
281.7840005485976
 21
151.1570174994091
 31
0.0
  0
LINE
  5
13F
330
28
100
AcDbEntity
  8
0
  6
Continuous
 62
     4
100
AcDbLine
 10
282.1840005486976
 20
151.1570174994091
 30
0.0
 11
282.1840005486976
 21
153.1570174973691
 31
0.0
  0
LINE
  5
140
330
28
100
AcDbEntity
  8
0
  6
Continuous
 62
     4
100
AcDbLine
 10
283.4340005480576
 20
153.1570174973691
 30
0.0
 11
283.4340005480576
 21
151.1570174994091
 31
0.0
  0
LINE
  5
141
330
28
100
AcDbEntity
  8
0
  6
Continuous
 62
     4
100
AcDbLine
 10
283.8340005481576
 20
151.1570174994091
 30
0.0
 11
283.8340005481576
 21
153.1570174973691
 31
0.0
  0
LINE
  5
142
330
28
100
AcDbEntity
  8
0
  6
Continuous
 62
     4
100
AcDbLine
 10
285.0840005475176
 20
153.1570174973691
 30
0.0
 11
285.0840005475176
 21
151.1570174994091
 31
0.0
  0
LINE
  5
143
330
28
100
AcDbEntity
  8
0
  6
Continuous
 62
     4
100
AcDbLine
 10
285.4840005476176
 20
151.1570174994091
 30
0.0
 11
285.4840005476176
 21
153.1570174973691
 31
0.0
  0
LINE
  5
144
330
28
100
AcDbEntity
  8
0
  6
Continuous
 62
     4
100
AcDbLine
 10
286.7340005495176
 20
153.1570174973691
 30
0.0
 11
286.7340005495176
 21
151.1570174994091
 31
0.0
  0
LINE
  5
145
330
28
100
AcDbEntity
  8
0
  6
Continuous
 62
     4
100
AcDbLine
 10
287.1340005496176
 20
151.1570174994091
 30
0.0
 11
287.1340005496176
 21
153.1570174973691
 31
0.0
  0
LINE
  5
146
330
28
100
AcDbEntity
  8
0
  6
Continuous
 62
     4
100
AcDbLine
 10
288.3840005489776
 20
153.1570174973691
 30
0.0
 11
288.3840005489776
 21
151.1570174994091
 31
0.0
  0
LINE
  5
147
330
28
100
AcDbEntity
  8
0
  6
Continuous
 62
     4
100
AcDbLine
 10
288.7840005490776
 20
151.1570174994091
 30
0.0
 11
288.7840005490776
 21
153.1570174973691
 31
0.0
  0
LINE
  5
148
330
28
100
AcDbEntity
  8
0
  6
Continuous
 62
     4
100
AcDbLine
 10
290.0340005484376
 20
153.1570174973691
 30
0.0
 11
290.0340005484376
 21
151.1570174994091
 31
0.0
  0
LINE
  5
149
330
28
100
AcDbEntity
  8
0
  6
Continuous
 62
     4
100
AcDbLine
 10
290.4340005485376
 20
151.1570174994091
 30
0.0
 11
290.4340005485376
 21
153.1570174973691
 31
0.0
  0
LINE
  5
14A
330
28
100
AcDbEntity
  8
0
  6
Continuous
 62
     4
100
AcDbLine
 10
291.6840005478976
 20
153.1570174973691
 30
0.0
 11
291.6840005478976
 21
151.1570174994091
 31
0.0
  0
LINE
  5
14B
330
28
100
AcDbEntity
  8
0
  6
Continuous
 62
     4
100
AcDbLine
 10
292.0840005479976
 20
151.1570174994091
 30
0.0
 11
292.0840005479976
 21
153.1570174973691
 31
0.0
  0
LINE
  5
14C
330
28
100
AcDbEntity
  8
0
  6
Continuous
 62
     4
100
AcDbLine
 10
293.3340005498976
 20
153.1570174973691
 30
0.0
 11
293.3340005498976
 21
151.1570174994091
 31
0.0
  0
LINE
  5
14D
330
28
100
AcDbEntity
  8
0
  6
Continuous
 62
     4
100
AcDbLine
 10
293.7340005474576
 20
151.1570174994091
 30
0.0
 11
293.7340005474576
 21
153.1570174973691
 31
0.0
  0
LINE
  5
14E
330
28
100
AcDbEntity
  8
0
  6
Continuous
 62
     4
100
AcDbLine
 10
294.9840005493576
 20
153.1570174973691
 30
0.0
 11
294.9840005493576
 21
151.1570174994091
 31
0.0
  0
LINE
  5
14F
330
28
100
AcDbEntity
  8
0
  6
Continuous
 62
     4
100
AcDbLine
 10
294.9840005493576
 20
151.1570174994091
 30
0.0
 11
293.7340005474576
 21
151.1570174994091
 31
0.0
  0
LINE
  5
150
330
28
100
AcDbEntity
  8
0
  6
Continuous
 62
     4
100
AcDbLine
 10
293.3340005498976
 20
151.1570174994091
 30
0.0
 11
292.0840005479976
 21
151.1570174994091
 31
0.0
  0
LINE
  5
151
330
28
100
AcDbEntity
  8
0
  6
Continuous
 62
     4
100
AcDbLine
 10
291.6840005478976
 20
151.1570174994091
 30
0.0
 11
290.4340005485376
 21
151.1570174994091
 31
0.0
  0
LINE
  5
152
330
28
100
AcDbEntity
  8
0
  6
Continuous
 62
     4
100
AcDbLine
 10
290.0340005484376
 20
151.1570174994091
 30
0.0
 11
288.7840005490776
 21
151.1570174994091
 31
0.0
  0
LINE
  5
153
330
28
100
AcDbEntity
  8
0
  6
Continuous
 62
     4
100
AcDbLine
 10
288.3840005489776
 20
151.1570174994091
 30
0.0
 11
287.1340005496176
 21
151.1570174994091
 31
0.0
  0
LINE
  5
154
330
28
100
AcDbEntity
  8
0
  6
Continuous
 62
     4
100
AcDbLine
 10
286.7340005495176
 20
151.1570174994091
 30
0.0
 11
285.4840005476176
 21
151.1570174994091
 31
0.0
  0
LINE
  5
155
330
28
100
AcDbEntity
  8
0
  6
Continuous
 62
     4
100
AcDbLine
 10
285.0840005475176
 20
151.1570174994091
 30
0.0
 11
283.8340005481576
 21
151.1570174994091
 31
0.0
  0
LINE
  5
156
330
28
100
AcDbEntity
  8
0
  6
Continuous
 62
     4
100
AcDbLine
 10
283.4340005480576
 20
151.1570174994091
 30
0.0
 11
282.1840005486976
 21
151.1570174994091
 31
0.0
  0
LINE
  5
157
330
28
100
AcDbEntity
  8
0
  6
Continuous
 62
     4
100
AcDbLine
 10
281.7840005485976
 20
151.1570174994091
 30
0.0
 11
280.5340005492376
 21
151.1570174994091
 31
0.0
  0
LINE
  5
158
330
28
100
AcDbEntity
  8
0
  6
Continuous
 62
     4
100
AcDbLine
 10
280.1340005491375
 20
151.1570174994091
 30
0.0
 11
278.8840005497776
 21
151.1570174994091
 31
0.0
  0
LINE
  5
159
330
28
100
AcDbEntity
  8
0
  6
Continuous
 62
     4
100
AcDbLine
 10
278.4840005496776
 20
151.1570174994091
 30
0.0
 11
277.2340005477776
 21
151.1570174994091
 31
0.0
  0
LINE
  5
15A
330
28
100
AcDbEntity
  8
0
  6
Continuous
 62
     4
100
AcDbLine
 10
276.8340005476776
 20
151.1570174994091
 30
0.0
 11
275.5840005483176
 21
151.1570174994091
 31
0.0
  0
LINE
  5
15B
330
28
100
AcDbEntity
  8
0
  6
Continuous
 62
     4
100
AcDbLine
 10
275.1840005482176
 20
151.1570174994091
 30
0.0
 11
273.9340005488576
 21
151.1570174994091
 31
0.0
  0
LINE
  5
15C
330
28
100
AcDbEntity
  8
0
  6
Continuous
 62
     4
100
AcDbLine
 10
273.5340005487576
 20
151.1570174994091
 30
0.0
 11
272.2840005493976
 21
151.1570174994091
 31
0.0
  0
LINE
  5
15D
330
28
100
AcDbEntity
  8
0
  6
Continuous
 62
     4
100
AcDbLine
 10
271.8840005492976
 20
151.1570174994091
 30
0.0
 11
270.6340005473976
 21
151.1570174994091
 31
0.0
  0
LINE
  5
15E
330
28
100
AcDbEntity
  8
0
  6
Continuous
 62
     4
100
AcDbLine
 10
270.2340005498375
 20
151.1570174994091
 30
0.0
 11
268.9840005479376
 21
151.1570174994091
 31
0.0
  0
LINE
  5
15F
330
28
100
AcDbEntity
  8
0
  6
Continuous
 62
     7
100
AcDbLine
 10
296.1340005480576
 20
155.3070174975891
 30
0.0
 11
296.1340005480576
 21
153.1570174973691
 31
0.0
  0
LINE
  5
160
330
28
100
AcDbEntity
  8
0
  6
Continuous
 62
     7
100
AcDbLine
 10
267.8340005492376
 20
153.1570174973691
 30
0.0
 11
268.9840005479376
 21
153.1570174973691
 31
0.0
  0
LINE
  5
161
330
28
100
AcDbEntity
  8
0
  6
Continuous
 62
     4
100
AcDbLine
 10
268.9840005479376
 20
153.1570174973691
 30
0.0
 11
270.2340005498375
 21
153.1570174973691
 31
0.0
  0
LINE
  5
162
330
28
100
AcDbEntity
  8
0
  6
Continuous
 62
     7
100
AcDbLine
 10
270.2340005498375
 20
153.1570174973691
 30
0.0
 11
270.6340005473976
 21
153.1570174973691
 31
0.0
  0
LINE
  5
163
330
28
100
AcDbEntity
  8
0
  6
Continuous
 62
     4
100
AcDbLine
 10
270.6340005473976
 20
153.1570174973691
 30
0.0
 11
271.8840005492976
 21
153.1570174973691
 31
0.0
  0
LINE
  5
164
330
28
100
AcDbEntity
  8
0
  6
Continuous
 62
     7
100
AcDbLine
 10
271.8840005492976
 20
153.1570174973691
 30
0.0
 11
272.2840005493976
 21
153.1570174973691
 31
0.0
  0
LINE
  5
165
330
28
100
AcDbEntity
  8
0
  6
Continuous
 62
     4
100
AcDbLine
 10
272.2840005493976
 20
153.1570174973691
 30
0.0
 11
273.5340005487576
 21
153.1570174973691
 31
0.0
  0
LINE
  5
166
330
28
100
AcDbEntity
  8
0
  6
Continuous
 62
     7
100
AcDbLine
 10
273.5340005487576
 20
153.1570174973691
 30
0.0
 11
273.9340005488576
 21
153.1570174973691
 31
0.0
  0
LINE
  5
167
330
28
100
AcDbEntity
  8
0
  6
Continuous
 62
     4
100
AcDbLine
 10
273.9340005488576
 20
153.1570174973691
 30
0.0
 11
275.1840005482176
 21
153.1570174973691
 31
0.0
  0
LINE
  5
168
330
28
100
AcDbEntity
  8
0
  6
Continuous
 62
     7
100
AcDbLine
 10
275.1840005482176
 20
153.1570174973691
 30
0.0
 11
275.5840005483176
 21
153.1570174973691
 31
0.0
  0
LINE
  5
169
330
28
100
AcDbEntity
  8
0
  6
Continuous
 62
     4
100
AcDbLine
 10
275.5840005483176
 20
153.1570174973691
 30
0.0
 11
276.8340005476776
 21
153.1570174973691
 31
0.0
  0
LINE
  5
16A
330
28
100
AcDbEntity
  8
0
  6
Continuous
 62
     7
100
AcDbLine
 10
276.8340005476776
 20
153.1570174973691
 30
0.0
 11
277.2340005477776
 21
153.1570174973691
 31
0.0
  0
LINE
  5
16B
330
28
100
AcDbEntity
  8
0
  6
Continuous
 62
     4
100
AcDbLine
 10
277.2340005477776
 20
153.1570174973691
 30
0.0
 11
278.4840005496776
 21
153.1570174973691
 31
0.0
  0
LINE
  5
16C
330
28
100
AcDbEntity
  8
0
  6
Continuous
 62
     7
100
AcDbLine
 10
278.4840005496776
 20
153.1570174973691
 30
0.0
 11
278.8840005497776
 21
153.1570174973691
 31
0.0
  0
LINE
  5
16D
330
28
100
AcDbEntity
  8
0
  6
Continuous
 62
     4
100
AcDbLine
 10
278.8840005497776
 20
153.1570174973691
 30
0.0
 11
280.1340005491375
 21
153.1570174973691
 31
0.0
  0
LINE
  5
16E
330
28
100
AcDbEntity
  8
0
  6
Continuous
 62
     7
100
AcDbLine
 10
280.1340005491375
 20
153.1570174973691
 30
0.0
 11
280.5340005492376
 21
153.1570174973691
 31
0.0
  0
LINE
  5
16F
330
28
100
AcDbEntity
  8
0
  6
Continuous
 62
     4
100
AcDbLine
 10
280.5340005492376
 20
153.1570174973691
 30
0.0
 11
281.7840005485976
 21
153.1570174973691
 31
0.0
  0
LINE
  5
170
330
28
100
AcDbEntity
  8
0
  6
Continuous
 62
     7
100
AcDbLine
 10
281.7840005485976
 20
153.1570174973691
 30
0.0
 11
282.1840005486976
 21
153.1570174973691
 31
0.0
  0
LINE
  5
171
330
28
100
AcDbEntity
  8
0
  6
Continuous
 62
     4
100
AcDbLine
 10
282.1840005486976
 20
153.1570174973691
 30
0.0
 11
283.4340005480576
 21
153.1570174973691
 31
0.0
  0
LINE
  5
172
330
28
100
AcDbEntity
  8
0
  6
Continuous
 62
     7
100
AcDbLine
 10
283.4340005480576
 20
153.1570174973691
 30
0.0
 11
283.8340005481576
 21
153.1570174973691
 31
0.0
  0
LINE
  5
173
330
28
100
AcDbEntity
  8
0
  6
Continuous
 62
     4
100
AcDbLine
 10
283.8340005481576
 20
153.1570174973691
 30
0.0
 11
285.0840005475176
 21
153.1570174973691
 31
0.0
  0
LINE
  5
174
330
28
100
AcDbEntity
  8
0
  6
Continuous
 62
     7
100
AcDbLine
 10
285.0840005475176
 20
153.1570174973691
 30
0.0
 11
285.4840005476176
 21
153.1570174973691
 31
0.0
  0
LINE
  5
175
330
28
100
AcDbEntity
  8
0
  6
Continuous
 62
     4
100
AcDbLine
 10
285.4840005476176
 20
153.1570174973691
 30
0.0
 11
286.7340005495176
 21
153.1570174973691
 31
0.0
  0
LINE
  5
176
330
28
100
AcDbEntity
  8
0
  6
Continuous
 62
     7
100
AcDbLine
 10
286.7340005495176
 20
153.1570174973691
 30
0.0
 11
287.1340005496176
 21
153.1570174973691
 31
0.0
  0
LINE
  5
177
330
28
100
AcDbEntity
  8
0
  6
Continuous
 62
     4
100
AcDbLine
 10
287.1340005496176
 20
153.1570174973691
 30
0.0
 11
288.3840005489776
 21
153.1570174973691
 31
0.0
  0
LINE
  5
178
330
28
100
AcDbEntity
  8
0
  6
Continuous
 62
     7
100
AcDbLine
 10
288.3840005489776
 20
153.1570174973691
 30
0.0
 11
288.7840005490776
 21
153.1570174973691
 31
0.0
  0
LINE
  5
179
330
28
100
AcDbEntity
  8
0
  6
Continuous
 62
     4
100
AcDbLine
 10
288.7840005490776
 20
153.1570174973691
 30
0.0
 11
290.0340005484376
 21
153.1570174973691
 31
0.0
  0
LINE
  5
17A
330
28
100
AcDbEntity
  8
0
  6
Continuous
 62
     7
100
AcDbLine
 10
290.0340005484376
 20
153.1570174973691
 30
0.0
 11
290.4340005485376
 21
153.1570174973691
 31
0.0
  0
LINE
  5
17B
330
28
100
AcDbEntity
  8
0
  6
Continuous
 62
     4
100
AcDbLine
 10
290.4340005485376
 20
153.1570174973691
 30
0.0
 11
291.6840005478976
 21
153.1570174973691
 31
0.0
  0
LINE
  5
17C
330
28
100
AcDbEntity
  8
0
  6
Continuous
 62
     7
100
AcDbLine
 10
291.6840005478976
 20
153.1570174973691
 30
0.0
 11
292.0840005479976
 21
153.1570174973691
 31
0.0
  0
LINE
  5
17D
330
28
100
AcDbEntity
  8
0
  6
Continuous
 62
     4
100
AcDbLine
 10
292.0840005479976
 20
153.1570174973691
 30
0.0
 11
293.3340005498976
 21
153.1570174973691
 31
0.0
  0
LINE
  5
17E
330
28
100
AcDbEntity
  8
0
  6
Continuous
 62
     7
100
AcDbLine
 10
293.3340005498976
 20
153.1570174973691
 30
0.0
 11
293.7340005474576
 21
153.1570174973691
 31
0.0
  0
LINE
  5
17F
330
28
100
AcDbEntity
  8
0
  6
Continuous
 62
     4
100
AcDbLine
 10
293.7340005474576
 20
153.1570174973691
 30
0.0
 11
294.9840005493576
 21
153.1570174973691
 31
0.0
  0
LINE
  5
180
330
28
100
AcDbEntity
  8
0
  6
Continuous
 62
     7
100
AcDbLine
 10
294.9840005493576
 20
153.1570174973691
 30
0.0
 11
296.1340005480576
 21
153.1570174973691
 31
0.0
  0
LINE
  5
181
330
28
100
AcDbEntity
  8
0
  6
Continuous
 62
     7
100
AcDbLine
 10
300.4840005475576
 20
155.3070174975891
 30
0.0
 11
296.1340005480576
 21
155.3070174975891
 31
0.0
  0
LINE
  5
182
330
28
100
AcDbEntity
  8
0
  6
Continuous
 62
     7
100
AcDbLine
 10
267.8340005492376
 20
155.3070174975891
 30
0.0
 11
263.4840005497376
 21
155.3070174975891
 31
0.0
  0
LINE
  5
183
330
28
100
AcDbEntity
  8
0
  6
Continuous
 62
     7
100
AcDbLine
 10
303.4840005495776
 20
124.3070174987291
 30
0.0
 11
303.4840005495776
 21
152.3070174981091
 31
0.0
  0
LINE
  5
184
330
28
100
AcDbEntity
  8
0
  6
Continuous
 62
     7
100
AcDbLine
 10
334.7108125916376
 20
121.3070174992491
 30
0.0
 11
335.9108125919375
 21
121.3070174992491
 31
0.0
  0
LINE
  5
185
330
28
100
AcDbEntity
  8
0
  6
Continuous
 62
     7
100
AcDbLine
 10
334.7108125916376
 20
124.3070174987291
 30
0.0
 11
335.9108125919375
 21
124.3070174987291
 31
0.0
  0
LINE
  5
186
330
28
100
AcDbEntity
  8
0
  6
Continuous
 62
     7
100
AcDbLine
 10
334.7108125916376
 20
121.3070174992491
 30
0.0
 11
334.7108125916376
 21
144.1026333125491
 31
0.0
  0
LINE
  5
187
330
28
100
AcDbEntity
  8
0
  6
Continuous
 62
     4
100
AcDbLine
 10
334.7108125916376
 20
144.1026333125491
 30
0.0
 11
334.7108125916376
 21
146.5114016827091
 31
0.0
  0
LINE
  5
188
330
28
100
AcDbEntity
  8
0
  6
Continuous
 62
     7
100
AcDbLine
 10
334.7108125916376
 20
146.5114016827091
 30
0.0
 11
334.7108125916376
 21
155.3070174975891
 31
0.0
  0
LINE
  5
189
330
28
100
AcDbEntity
  8
0
  6
Continuous
 62
     7
100
AcDbLine
 10
335.9108125919375
 20
121.3070174992491
 30
0.0
 11
335.9108125919375
 21
155.3070174975891
 31
0.0
  0
LINE
  5
18A
330
28
100
AcDbEntity
  8
0
  6
Continuous
 62
     7
100
AcDbLine
 10
334.7108125916376
 20
152.3070174981091
 30
0.0
 11
335.9108125919375
 21
152.3070174981091
 31
0.0
  0
LINE
  5
18B
330
28
100
AcDbEntity
  8
0
  6
Continuous
 62
     7
100
AcDbLine
 10
334.7108125916376
 20
155.3070174975891
 30
0.0
 11
335.9108125919375
 21
155.3070174975891
 31
0.0
  0
LINE
  5
18C
330
28
100
AcDbEntity
  8
0
  6
Continuous
 62
     7
100
AcDbLine
 10
376.9735280838176
 20
128.7516107304291
 30
0.0
 11
376.9735280838176
 21
126.0516107303891
 31
0.0
  0
LINE
  5
18D
330
28
100
AcDbEntity
  8
0
  6
Continuous
 62
     7
100
AcDbLine
 10
378.1235280850576
 20
136.5516107285691
 30
0.0
 11
378.1235280850576
 21
133.0516107283291
 31
0.0
  0
LINE
  5
18E
330
28
100
AcDbEntity
  8
0
  6
Continuous
 62
     4
100
AcDbLine
 10
378.1235280850576
 20
113.0516107284091
 30
0.0
 11
378.1235280850576
 21
133.0516107283291
 31
0.0
  0
LINE
  5
18F
330
28
100
AcDbEntity
  8
0
  6
Continuous
 62
     4
100
AcDbLine
 10
379.1235280840376
 20
132.5516107301091
 30
0.0
 11
379.1235280840376
 21
136.5516107285691
 31
0.0
  0
LINE
  5
190
330
28
100
AcDbEntity
  8
0
  6
Continuous
 62
     1
100
AcDbLine
 10
380.1235280830176
 20
131.7909400733568
 30
0.0
 11
380.1235280830176
 21
113.0516107284091
 31
0.0
  0
LINE
  5
191
330
28
100
AcDbEntity
  8
0
  6
Continuous
 62
     4
100
AcDbLine
 10
380.3735280833976
 20
136.5516107285691
 30
0.0
 11
380.3735280833976
 21
132.5516107301091
 31
0.0
  0
LINE
  5
192
330
28
100
AcDbEntity
  8
0
  6
Continuous
 62
     4
100
AcDbLine
 10
380.7735280834976
 20
132.5516107301091
 30
0.0
 11
380.7735280834976
 21
136.5516107285691
 31
0.0
  0
LINE
  5
193
330
28
100
AcDbEntity
  8
0
  6
Continuous
 62
     7
100
AcDbLine
 10
404.1235280839376
 20
113.0516107284091
 30
0.0
 11
380.1235280830176
 21
113.0516107284091
 31
0.0
  0
LINE
  5
194
330
28
100
AcDbEntity
  8
0
  6
Continuous
 62
     4
100
AcDbLine
 10
380.1235280830176
 20
113.0516107284091
 30
0.0
 11
378.1235280850576
 21
113.0516107284091
 31
0.0
  0
LINE
  5
195
330
28
100
AcDbEntity
  8
0
  6
Continuous
 62
     4
100
AcDbLine
 10
404.1235280839376
 20
113.0516107284091
 30
0.0
 11
406.1235280844376
 21
113.0516107284091
 31
0.0
  0
LINE
  5
196
330
28
100
AcDbEntity
  8
0
  6
Continuous
 62
     4
100
AcDbLine
 10
382.0235280828576
 20
136.5516107285691
 30
0.0
 11
382.0235280828576
 21
132.5516107301091
 31
0.0
  0
LINE
  5
197
330
28
100
AcDbEntity
  8
0
  6
Continuous
 62
     4
100
AcDbLine
 10
382.4235280829576
 20
132.5516107301091
 30
0.0
 11
382.4235280829576
 21
136.5516107285691
 31
0.0
  0
LINE
  5
198
330
28
100
AcDbEntity
  8
0
  6
Continuous
 62
     4
100
AcDbLine
 10
383.6735280848576
 20
136.5516107285691
 30
0.0
 11
383.6735280848576
 21
132.5516107301091
 31
0.0
  0
LINE
  5
199
330
28
100
AcDbEntity
  8
0
  6
Continuous
 62
     4
100
AcDbLine
 10
384.0735280849576
 20
132.5516107301091
 30
0.0
 11
384.0735280849576
 21
136.5516107285691
 31
0.0
  0
LINE
  5
19B
330
28
100
AcDbEntity
  8
0
  6
Continuous
 62
     4
100
AcDbLine
 10
385.3235280843176
 20
136.5516107285691
 30
0.0
 11
385.3235280843176
 21
132.5516107301091
 31
0.0
  0
LINE
  5
19C
330
28
100
AcDbEntity
  8
0
  6
Continuous
 62
     4
100
AcDbLine
 10
385.7235280844176
 20
132.5516107301091
 30
0.0
 11
385.7235280844176
 21
136.5516107285691
 31
0.0
  0
LINE
  5
19D
330
28
100
AcDbEntity
  8
0
  6
Continuous
 62
     4
100
AcDbLine
 10
386.9735280837776
 20
136.5516107285691
 30
0.0
 11
386.9735280837776
 21
132.5516107301091
 31
0.0
  0
LINE
  5
19E
330
28
100
AcDbEntity
  8
0
  6
Continuous
 62
     4
100
AcDbLine
 10
387.3735280838776
 20
132.5516107301091
 30
0.0
 11
387.3735280838776
 21
136.5516107285691
 31
0.0
  0
LINE
  5
19F
330
28
100
AcDbEntity
  8
0
  6
Continuous
 62
     4
100
AcDbLine
 10
388.6235280832376
 20
136.5516107285691
 30
0.0
 11
388.6235280832376
 21
132.5516107301091
 31
0.0
  0
LINE
  5
1A0
330
28
100
AcDbEntity
  8
0
  6
Continuous
 62
     4
100
AcDbLine
 10
389.0235280833376
 20
132.5516107301091
 30
0.0
 11
389.0235280833376
 21
136.5516107285691
 31
0.0
  0
LINE
  5
1A1
330
28
100
AcDbEntity
  8
0
  6
Continuous
 62
     4
100
AcDbLine
 10
390.2735280826976
 20
136.5516107285691
 30
0.0
 11
390.2735280826976
 21
132.5516107301091
 31
0.0
  0
LINE
  5
1A2
330
28
100
AcDbEntity
  8
0
  6
Continuous
 62
     4
100
AcDbLine
 10
390.6735280827976
 20
132.5516107301091
 30
0.0
 11
390.6735280827976
 21
136.5516107285691
 31
0.0
  0
LINE
  5
1A3
330
28
100
AcDbEntity
  8
0
  6
Continuous
 62
     4
100
AcDbLine
 10
391.9235280846976
 20
136.5516107285691
 30
0.0
 11
391.9235280846976
 21
132.5516107301091
 31
0.0
  0
LINE
  5
1A4
330
28
100
AcDbEntity
  8
0
  6
Continuous
 62
     4
100
AcDbLine
 10
392.3235280847976
 20
132.5516107301091
 30
0.0
 11
392.3235280847976
 21
136.5516107285691
 31
0.0
  0
LINE
  5
1A5
330
28
100
AcDbEntity
  8
0
  6
Continuous
 62
     7
100
AcDbLine
 10
376.9735280838176
 20
126.0516107303891
 30
0.0
 11
378.1235280850576
 21
126.0516107303891
 31
0.0
  0
LINE
  5
1A6
330
28
100
AcDbEntity
  8
0
  6
Continuous
 62
     7
100
AcDbLine
 10
406.1235280844376
 20
126.0516107303891
 30
0.0
 11
407.2735280831375
 21
126.0516107303891
 31
0.0
  0
LINE
  5
1A7
330
28
100
AcDbEntity
  8
0
  6
Continuous
 62
     4
100
AcDbLine
 10
393.5735280841576
 20
136.5516107285691
 30
0.0
 11
393.5735280841576
 21
132.5516107301091
 31
0.0
  0
LINE
  5
1A8
330
28
100
AcDbEntity
  8
0
  6
Continuous
 62
     4
100
AcDbLine
 10
393.9735280842576
 20
132.5516107301091
 30
0.0
 11
393.9735280842576
 21
136.5516107285691
 31
0.0
  0
LINE
  5
1A9
330
28
100
AcDbEntity
  8
0
  6
Continuous
 62
     4
100
AcDbLine
 10
395.2235280836175
 20
136.5516107285691
 30
0.0
 11
395.2235280836175
 21
132.5516107301091
 31
0.0
  0
LINE
  5
1AA
330
28
100
AcDbEntity
  8
0
  6
Continuous
 62
     4
100
AcDbLine
 10
395.6235280837176
 20
132.5516107301091
 30
0.0
 11
395.6235280837176
 21
136.5516107285691
 31
0.0
  0
LINE
  5
1AB
330
28
100
AcDbEntity
  8
0
  6
Continuous
 62
     7
100
AcDbLine
 10
407.2735280831375
 20
128.7516107304291
 30
0.0
 11
406.1235280844376
 21
128.7516107304291
 31
0.0
  0
LINE
  5
1AC
330
28
100
AcDbEntity
  8
0
  6
Continuous
 62
     7
100
AcDbLine
 10
378.1235280850576
 20
128.7516107304291
 30
0.0
 11
376.9735280838176
 21
128.7516107304291
 31
0.0
  0
LINE
  5
1AD
330
28
100
AcDbEntity
  8
0
  6
Continuous
 62
     4
100
AcDbLine
 10
396.8735280830775
 20
136.5516107285691
 30
0.0
 11
396.8735280830775
 21
132.5516107301091
 31
0.0
  0
LINE
  5
1AE
330
28
100
AcDbEntity
  8
0
  6
Continuous
 62
     4
100
AcDbLine
 10
397.2735280831776
 20
132.5516107301091
 30
0.0
 11
397.2735280831776
 21
136.5516107285691
 31
0.0
  0
LINE
  5
1B1
330
28
100
AcDbEntity
  8
0
  6
Continuous
 62
     4
100
AcDbLine
 10
398.5235280850776
 20
136.5516107285691
 30
0.0
 11
398.5235280850776
 21
132.5516107301091
 31
0.0
  0
LINE
  5
1B2
330
28
100
AcDbEntity
  8
0
  6
Continuous
 62
     4
100
AcDbLine
 10
398.9235280826375
 20
132.5516107301091
 30
0.0
 11
398.9235280826375
 21
136.5516107285691
 31
0.0
  0
LINE
  5
1B4
330
28
100
AcDbEntity
  8
0
  6
Continuous
 62
     4
100
AcDbLine
 10
405.1235280829176
 20
132.5516107301091
 30
0.0
 11
403.8735280835576
 21
132.5516107301091
 31
0.0
  0
LINE
  5
1B5
330
28
100
AcDbEntity
  8
0
  6
Continuous
 62
     4
100
AcDbLine
 10
403.4735280834576
 20
132.5516107301091
 30
0.0
 11
402.2235280840975
 21
132.5516107301091
 31
0.0
  0
LINE
  5
1B6
330
28
100
AcDbEntity
  8
0
  6
Continuous
 62
     4
100
AcDbLine
 10
401.8235280839975
 20
132.5516107301091
 30
0.0
 11
400.5735280846375
 21
132.5516107301091
 31
0.0
  0
LINE
  5
1B7
330
28
100
AcDbEntity
  8
0
  6
Continuous
 62
     4
100
AcDbLine
 10
400.1735280845375
 20
132.5516107301091
 30
0.0
 11
398.9235280826375
 21
132.5516107301091
 31
0.0
  0
LINE
  5
1B8
330
28
100
AcDbEntity
  8
0
  6
Continuous
 62
     4
100
AcDbLine
 10
398.5235280850776
 20
132.5516107301091
 30
0.0
 11
397.2735280831776
 21
132.5516107301091
 31
0.0
  0
LINE
  5
1B9
330
28
100
AcDbEntity
  8
0
  6
Continuous
 62
     4
100
AcDbLine
 10
396.8735280830775
 20
132.5516107301091
 30
0.0
 11
395.6235280837176
 21
132.5516107301091
 31
0.0
  0
LINE
  5
1BA
330
28
100
AcDbEntity
  8
0
  6
Continuous
 62
     4
100
AcDbLine
 10
395.2235280836175
 20
132.5516107301091
 30
0.0
 11
393.9735280842576
 21
132.5516107301091
 31
0.0
  0
LINE
  5
1BB
330
28
100
AcDbEntity
  8
0
  6
Continuous
 62
     4
100
AcDbLine
 10
393.5735280841576
 20
132.5516107301091
 30
0.0
 11
392.3235280847976
 21
132.5516107301091
 31
0.0
  0
LINE
  5
1BC
330
28
100
AcDbEntity
  8
0
  6
Continuous
 62
     4
100
AcDbLine
 10
391.9235280846976
 20
132.5516107301091
 30
0.0
 11
390.6735280827976
 21
132.5516107301091
 31
0.0
  0
LINE
  5
1BD
330
28
100
AcDbEntity
  8
0
  6
Continuous
 62
     4
100
AcDbLine
 10
390.2735280826976
 20
132.5516107301091
 30
0.0
 11
389.0235280833376
 21
132.5516107301091
 31
0.0
  0
LINE
  5
1BE
330
28
100
AcDbEntity
  8
0
  6
Continuous
 62
     4
100
AcDbLine
 10
388.6235280832376
 20
132.5516107301091
 30
0.0
 11
387.3735280838776
 21
132.5516107301091
 31
0.0
  0
LINE
  5
1BF
330
28
100
AcDbEntity
  8
0
  6
Continuous
 62
     4
100
AcDbLine
 10
386.9735280837776
 20
132.5516107301091
 30
0.0
 11
385.7235280844176
 21
132.5516107301091
 31
0.0
  0
LINE
  5
1C0
330
28
100
AcDbEntity
  8
0
  6
Continuous
 62
     4
100
AcDbLine
 10
385.3235280843176
 20
132.5516107301091
 30
0.0
 11
384.0735280849576
 21
132.5516107301091
 31
0.0
  0
LINE
  5
1C1
330
28
100
AcDbEntity
  8
0
  6
Continuous
 62
     4
100
AcDbLine
 10
383.6735280848576
 20
132.5516107301091
 30
0.0
 11
382.4235280829576
 21
132.5516107301091
 31
0.0
  0
LINE
  5
1C2
330
28
100
AcDbEntity
  8
0
  6
Continuous
 62
     4
100
AcDbLine
 10
382.0235280828576
 20
132.5516107301091
 30
0.0
 11
380.7735280834976
 21
132.5516107301091
 31
0.0
  0
LINE
  5
1C3
330
28
100
AcDbEntity
  8
0
  6
Continuous
 62
     4
100
AcDbLine
 10
380.3735280833976
 20
132.5516107301091
 30
0.0
 11
379.1235280840376
 21
132.5516107301091
 31
0.0
  0
LINE
  5
1C4
330
28
100
AcDbEntity
  8
0
  6
Continuous
 62
     4
100
AcDbLine
 10
400.1735280845375
 20
136.5516107285691
 30
0.0
 11
400.1735280845375
 21
132.5516107301091
 31
0.0
  0
LINE
  5
1C5
330
28
100
AcDbEntity
  8
0
  6
Continuous
 62
     4
100
AcDbLine
 10
400.5735280846375
 20
132.5516107301091
 30
0.0
 11
400.5735280846375
 21
136.5516107285691
 31
0.0
  0
LINE
  5
1C8
330
28
100
AcDbEntity
  8
0
  6
Continuous
 62
     4
100
AcDbLine
 10
401.8235280839975
 20
136.5516107285691
 30
0.0
 11
401.8235280839975
 21
132.5516107301091
 31
0.0
  0
LINE
  5
1C9
330
28
100
AcDbEntity
  8
0
  6
Continuous
 62
     4
100
AcDbLine
 10
402.2235280840975
 20
132.5516107301091
 30
0.0
 11
402.2235280840975
 21
136.5516107285691
 31
0.0
  0
LINE
  5
1CA
330
28
100
AcDbEntity
  8
0
  6
Continuous
 62
     4
100
AcDbLine
 10
403.4735280834576
 20
136.5516107285691
 30
0.0
 11
403.4735280834576
 21
132.5516107301091
 31
0.0
  0
LINE
  5
1CB
330
28
100
AcDbEntity
  8
0
  6
Continuous
 62
     4
100
AcDbLine
 10
403.8735280835576
 20
132.5516107301091
 30
0.0
 11
403.8735280835576
 21
136.5516107285691
 31
0.0
  0
LINE
  5
1CC
330
28
100
AcDbEntity
  8
0
  6
Continuous
 62
     1
100
AcDbLine
 10
404.1235280839375
 20
131.7909400733568
 30
0.0
 11
404.1235280839376
 21
113.0516107284091
 31
0.0
  0
LINE
  5
1CD
330
28
100
AcDbEntity
  8
0
  6
Continuous
 62
     7
100
AcDbLine
 10
406.1235280844376
 20
136.5516107285691
 30
0.0
 11
405.1235280829176
 21
136.5516107285691
 31
0.0
  0
LINE
  5
1CE
330
28
100
AcDbEntity
  8
0
  6
Continuous
 62
     7
100
AcDbLine
 10
379.1235280840376
 20
136.5516107285691
 30
0.0
 11
378.1235280850576
 21
136.5516107285691
 31
0.0
  0
LINE
  5
1CF
330
28
100
AcDbEntity
  8
0
  6
Continuous
 62
     7
100
AcDbLine
 10
380.7735280834976
 20
136.5516107285691
 30
0.0
 11
380.3735280833976
 21
136.5516107285691
 31
0.0
  0
LINE
  5
1D0
330
28
100
AcDbEntity
  8
0
  6
Continuous
 62
     7
100
AcDbLine
 10
382.4235280829576
 20
136.5516107285691
 30
0.0
 11
382.0235280828576
 21
136.5516107285691
 31
0.0
  0
LINE
  5
1D1
330
28
100
AcDbEntity
  8
0
  6
Continuous
 62
     7
100
AcDbLine
 10
384.0735280849576
 20
136.5516107285691
 30
0.0
 11
383.6735280848576
 21
136.5516107285691
 31
0.0
  0
LINE
  5
1D2
330
28
100
AcDbEntity
  8
0
  6
Continuous
 62
     7
100
AcDbLine
 10
385.7235280844176
 20
136.5516107285691
 30
0.0
 11
385.3235280843176
 21
136.5516107285691
 31
0.0
  0
LINE
  5
1D3
330
28
100
AcDbEntity
  8
0
  6
Continuous
 62
     7
100
AcDbLine
 10
387.3735280838776
 20
136.5516107285691
 30
0.0
 11
386.9735280837776
 21
136.5516107285691
 31
0.0
  0
LINE
  5
1D4
330
28
100
AcDbEntity
  8
0
  6
Continuous
 62
     7
100
AcDbLine
 10
389.0235280833376
 20
136.5516107285691
 30
0.0
 11
388.6235280832376
 21
136.5516107285691
 31
0.0
  0
LINE
  5
1D5
330
28
100
AcDbEntity
  8
0
  6
Continuous
 62
     7
100
AcDbLine
 10
390.6735280827976
 20
136.5516107285691
 30
0.0
 11
390.2735280826976
 21
136.5516107285691
 31
0.0
  0
LINE
  5
1D6
330
28
100
AcDbEntity
  8
0
  6
Continuous
 62
     7
100
AcDbLine
 10
392.3235280847976
 20
136.5516107285691
 30
0.0
 11
391.9235280846976
 21
136.5516107285691
 31
0.0
  0
LINE
  5
1D7
330
28
100
AcDbEntity
  8
0
  6
Continuous
 62
     7
100
AcDbLine
 10
393.9735280842576
 20
136.5516107285691
 30
0.0
 11
393.5735280841576
 21
136.5516107285691
 31
0.0
  0
LINE
  5
1D8
330
28
100
AcDbEntity
  8
0
  6
Continuous
 62
     7
100
AcDbLine
 10
395.6235280837176
 20
136.5516107285691
 30
0.0
 11
395.2235280836175
 21
136.5516107285691
 31
0.0
  0
LINE
  5
1D9
330
28
100
AcDbEntity
  8
0
  6
Continuous
 62
     7
100
AcDbLine
 10
397.2735280831776
 20
136.5516107285691
 30
0.0
 11
396.8735280830775
 21
136.5516107285691
 31
0.0
  0
LINE
  5
1DA
330
28
100
AcDbEntity
  8
0
  6
Continuous
 62
     7
100
AcDbLine
 10
398.9235280826375
 20
136.5516107285691
 30
0.0
 11
398.5235280850776
 21
136.5516107285691
 31
0.0
  0
LINE
  5
1DB
330
28
100
AcDbEntity
  8
0
  6
Continuous
 62
     7
100
AcDbLine
 10
400.5735280846375
 20
136.5516107285691
 30
0.0
 11
400.1735280845375
 21
136.5516107285691
 31
0.0
  0
LINE
  5
1DC
330
28
100
AcDbEntity
  8
0
  6
Continuous
 62
     7
100
AcDbLine
 10
402.2235280840975
 20
136.5516107285691
 30
0.0
 11
401.8235280839975
 21
136.5516107285691
 31
0.0
  0
LINE
  5
1DD
330
28
100
AcDbEntity
  8
0
  6
Continuous
 62
     7
100
AcDbLine
 10
403.8735280835576
 20
136.5516107285691
 30
0.0
 11
403.4735280834576
 21
136.5516107285691
 31
0.0
  0
LINE
  5
1DE
330
28
100
AcDbEntity
  8
0
  6
Continuous
 62
     4
100
AcDbLine
 10
379.1235280840376
 20
136.5516107285691
 30
0.0
 11
380.3735280833976
 21
136.5516107285691
 31
0.0
  0
LINE
  5
1DF
330
28
100
AcDbEntity
  8
0
  6
Continuous
 62
     4
100
AcDbLine
 10
380.7735280834976
 20
136.5516107285691
 30
0.0
 11
382.0235280828576
 21
136.5516107285691
 31
0.0
  0
LINE
  5
1E0
330
28
100
AcDbEntity
  8
0
  6
Continuous
 62
     4
100
AcDbLine
 10
382.4235280829576
 20
136.5516107285691
 30
0.0
 11
383.6735280848576
 21
136.5516107285691
 31
0.0
  0
LINE
  5
1E1
330
28
100
AcDbEntity
  8
0
  6
Continuous
 62
     4
100
AcDbLine
 10
384.0735280849576
 20
136.5516107285691
 30
0.0
 11
385.3235280843176
 21
136.5516107285691
 31
0.0
  0
LINE
  5
1E2
330
28
100
AcDbEntity
  8
0
  6
Continuous
 62
     4
100
AcDbLine
 10
385.7235280844176
 20
136.5516107285691
 30
0.0
 11
386.9735280837776
 21
136.5516107285691
 31
0.0
  0
LINE
  5
1E3
330
28
100
AcDbEntity
  8
0
  6
Continuous
 62
     4
100
AcDbLine
 10
387.3735280838776
 20
136.5516107285691
 30
0.0
 11
388.6235280832376
 21
136.5516107285691
 31
0.0
  0
LINE
  5
1E4
330
28
100
AcDbEntity
  8
0
  6
Continuous
 62
     4
100
AcDbLine
 10
389.0235280833376
 20
136.5516107285691
 30
0.0
 11
390.2735280826976
 21
136.5516107285691
 31
0.0
  0
LINE
  5
1E5
330
28
100
AcDbEntity
  8
0
  6
Continuous
 62
     4
100
AcDbLine
 10
390.6735280827976
 20
136.5516107285691
 30
0.0
 11
391.9235280846976
 21
136.5516107285691
 31
0.0
  0
LINE
  5
1E6
330
28
100
AcDbEntity
  8
0
  6
Continuous
 62
     4
100
AcDbLine
 10
392.3235280847976
 20
136.5516107285691
 30
0.0
 11
393.5735280841576
 21
136.5516107285691
 31
0.0
  0
LINE
  5
1E7
330
28
100
AcDbEntity
  8
0
  6
Continuous
 62
     4
100
AcDbLine
 10
393.9735280842576
 20
136.5516107285691
 30
0.0
 11
395.2235280836175
 21
136.5516107285691
 31
0.0
  0
LINE
  5
1E8
330
28
100
AcDbEntity
  8
0
  6
Continuous
 62
     4
100
AcDbLine
 10
395.6235280837176
 20
136.5516107285691
 30
0.0
 11
396.8735280830775
 21
136.5516107285691
 31
0.0
  0
LINE
  5
1E9
330
28
100
AcDbEntity
  8
0
  6
Continuous
 62
     4
100
AcDbLine
 10
397.2735280831776
 20
136.5516107285691
 30
0.0
 11
398.5235280850776
 21
136.5516107285691
 31
0.0
  0
LINE
  5
1EA
330
28
100
AcDbEntity
  8
0
  6
Continuous
 62
     4
100
AcDbLine
 10
398.9235280826375
 20
136.5516107285691
 30
0.0
 11
400.1735280845375
 21
136.5516107285691
 31
0.0
  0
LINE
  5
1EB
330
28
100
AcDbEntity
  8
0
  6
Continuous
 62
     4
100
AcDbLine
 10
400.5735280846375
 20
136.5516107285691
 30
0.0
 11
401.8235280839975
 21
136.5516107285691
 31
0.0
  0
LINE
  5
1EC
330
28
100
AcDbEntity
  8
0
  6
Continuous
 62
     4
100
AcDbLine
 10
402.2235280840975
 20
136.5516107285691
 30
0.0
 11
403.4735280834576
 21
136.5516107285691
 31
0.0
  0
LINE
  5
1ED
330
28
100
AcDbEntity
  8
0
  6
Continuous
 62
     4
100
AcDbLine
 10
403.8735280835576
 20
136.5516107285691
 30
0.0
 11
405.1235280829176
 21
136.5516107285691
 31
0.0
  0
LINE
  5
1EE
330
28
100
AcDbEntity
  8
0
  6
Continuous
 62
     4
100
AcDbLine
 10
405.1235280829176
 20
136.5516107285691
 30
0.0
 11
405.1235280829176
 21
132.5516107301091
 31
0.0
  0
LINE
  5
1EF
330
28
100
AcDbEntity
  8
0
  6
Continuous
 62
     4
100
AcDbLine
 10
406.1235280844376
 20
113.0516107284091
 30
0.0
 11
406.1235280844376
 21
133.0516107283291
 31
0.0
  0
LINE
  5
1F0
330
28
100
AcDbEntity
  8
0
  6
Continuous
 62
     7
100
AcDbLine
 10
406.1235280844376
 20
133.0516107283291
 30
0.0
 11
406.1235280844376
 21
136.5516107285691
 31
0.0
  0
LINE
  5
1F1
330
28
100
AcDbEntity
  8
0
  6
Continuous
 62
     7
100
AcDbLine
 10
407.2735280831375
 20
126.0516107303891
 30
0.0
 11
407.2735280831375
 21
128.7516107304291
 31
0.0
  0
LINE
  5
1F2
330
28
100
AcDbEntity
  8
0
  6
Continuous
 62
     7
100
AcDbLine
 10
431.5924072938976
 20
113.0516107284091
 30
0.0
 11
432.7924072941975
 21
113.0516107284091
 31
0.0
  0
LINE
  5
1F3
330
28
100
AcDbEntity
  8
0
  6
Continuous
 62
     4
100
AcDbLine
 10
431.5924072938976
 20
113.0516107284091
 30
0.0
 11
431.5924072938976
 21
126.0516107303891
 31
0.0
  0
LINE
  5
1F4
330
28
100
AcDbEntity
  8
0
  6
Continuous
 62
     7
100
AcDbLine
 10
431.5924072938976
 20
126.0516107303891
 30
0.0
 11
431.5924072938976
 21
128.7516107304291
 31
0.0
  0
LINE
  5
1F5
330
28
100
AcDbEntity
  8
0
  6
Continuous
 62
     4
100
AcDbLine
 10
431.5924072938976
 20
128.7516107304291
 30
0.0
 11
431.5924072938976
 21
133.0516107283291
 31
0.0
  0
LINE
  5
1F6
330
28
100
AcDbEntity
  8
0
  6
Continuous
 62
     7
100
AcDbLine
 10
431.5924072938976
 20
133.0516107283291
 30
0.0
 11
431.5924072938976
 21
136.5516107285691
 31
0.0
  0
LINE
  5
1F7
330
28
100
AcDbEntity
  8
0
  6
Continuous
 62
     7
100
AcDbLine
 10
432.7924072941975
 20
113.0516107284091
 30
0.0
 11
432.7924072941975
 21
136.5516107285691
 31
0.0
  0
LINE
  5
1F8
330
28
100
AcDbEntity
  8
0
  6
Continuous
 62
     7
100
AcDbLine
 10
431.5924072938976
 20
126.0516107303891
 30
0.0
 11
432.7924072941975
 21
126.0516107303891
 31
0.0
  0
LINE
  5
1F9
330
28
100
AcDbEntity
  8
0
  6
Continuous
 62
     7
100
AcDbLine
 10
431.5924072938976
 20
128.7516107304291
 30
0.0
 11
432.7924072941975
 21
128.7516107304291
 31
0.0
  0
LINE
  5
1FA
330
28
100
AcDbEntity
  8
0
  6
Continuous
 62
     7
100
AcDbLine
 10
431.5924072938976
 20
136.5516107285691
 30
0.0
 11
432.7924072941975
 21
136.5516107285691
 31
0.0
  0
ARC
  5
1FB
330
28
100
AcDbEntity
  8
0
  6
Continuous
 62
     7
100
AcDbCircle
 10
300.4840005475576
 20
152.3070174981091
 30
0.0
 40
2.999999999479999
100
AcDbArc
 50
0.0
 51
90.0
  0
ARC
  5
1FC
330
28
100
AcDbEntity
  8
0
  6
Continuous
 62
     7
100
AcDbCircle
 10
300.4840005475576
 20
124.3070174987291
 30
0.0
 40
2.999999999479999
100
AcDbArc
 50
270.0
 51
0.0
  0
ARC
  5
1FD
330
28
100
AcDbEntity
  8
0
  6
Continuous
 62
     7
100
AcDbCircle
 10
263.4840005497376
 20
124.3070174987291
 30
0.0
 40
2.999999999479999
100
AcDbArc
 50
180.0
 51
270.0
  0
ARC
  5
1FE
330
28
100
AcDbEntity
  8
0
  6
Continuous
 62
     7
100
AcDbCircle
 10
263.4840005497376
 20
152.3070174981091
 30
0.0
 40
2.999999999479999
100
AcDbArc
 50
90.0
 51
180.0
  0
CIRCLE
  5
1FF
330
28
100
AcDbEntity
  8
0
  6
Continuous
 62
     4
100
AcDbCircle
 10
262.4840005482176
 20
145.3070174976291
 30
0.0
 40
2.500000001259999
  0
CIRCLE
  5
200
330
28
100
AcDbEntity
  8
0
  6
Continuous
 62
     4
100
AcDbCircle
 10
301.4840005490776
 20
145.3070174976291
 30
0.0
 40
2.500000001259999
  0
CIRCLE
  5
201
330
28
100
AcDbEntity
  8
0
  6
Continuous
 62
     7
100
AcDbCircle
 10
262.4840005482176
 20
145.3070174976291
 30
0.0
 40
1.150000001239999
  0
CIRCLE
  5
202
330
28
100
AcDbEntity
  8
0
  6
Continuous
 62
     7
100
AcDbCircle
 10
301.4840005490776
 20
145.3070174976291
 30
0.0
 40
1.150000001239999
  0
CIRCLE
  5
203
330
28
100
AcDbEntity
  8
0
  6
Continuous
 62
     7
100
AcDbCircle
 10
281.9840005499176
 20
123.3070174972091
 30
0.0
 40
1.150000001239999
  0
CIRCLE
  5
204
330
28
100
AcDbEntity
  8
0
  6
Continuous
 62
     7
100
AcDbCircle
 10
264.4840005487176
 20
153.3070174970891
 30
0.0
 40
0.9000000008599998
  0
CIRCLE
  5
205
330
28
100
AcDbEntity
  8
0
  6
Continuous
 62
     7
100
AcDbCircle
 10
300.4840005475576
 20
123.3070174972091
 30
0.0
 40
0.9000000008599998
  0
CIRCLE
  5
206
330
28
100
AcDbEntity
  8
0
  6
Continuous
 62
     7
100
AcDbCircle
 10
385.4435280830776
 20
118.0516107283891
 30
0.0
 40
0.4499999991600001
  0
CIRCLE
  5
207
330
28
100
AcDbEntity
  8
0
  6
Continuous
 62
     7
100
AcDbCircle
 10
389.4435280840776
 20
118.0516107283891
 30
0.0
 40
0.4499999991600001
  0
CIRCLE
  5
208
330
28
100
AcDbEntity
  8
0
  6
Continuous
 62
     7
100
AcDbCircle
 10
385.4435280830776
 20
116.0516107304291
 30
0.0
 40
0.4499999991600001
  0
CIRCLE
  5
209
330
28
100
AcDbEntity
  8
0
  6
Continuous
 62
     7
100
AcDbCircle
 10
389.4435280840776
 20
116.0516107304291
 30
0.0
 40
0.4499999991600001
  0
CIRCLE
  5
20A
330
28
100
AcDbEntity
  8
0
  6
Continuous
 62
     7
100
AcDbCircle
 10
398.8035280838776
 20
118.0516107283891
 30
0.0
 40
0.4499999991600001
  0
CIRCLE
  5
20B
330
28
100
AcDbEntity
  8
0
  6
Continuous
 62
     7
100
AcDbCircle
 10
394.8035280828776
 20
118.0516107283891
 30
0.0
 40
0.4499999991600001
  0
CIRCLE
  5
20C
330
28
100
AcDbEntity
  8
0
  6
Continuous
 62
     7
100
AcDbCircle
 10
398.8035280838776
 20
116.0516107304291
 30
0.0
 40
0.4499999991600001
  0
CIRCLE
  5
20D
330
28
100
AcDbEntity
  8
0
  6
Continuous
 62
     7
100
AcDbCircle
 10
394.8035280828776
 20
116.0516107304291
 30
0.0
 40
0.4499999991600001
  0
CIRCLE
  5
232
330
28
100
AcDbEntity
  8
0
  6
Continuous
 62
     4
100
AcDbCircle
 10
281.9840005499176
 20
123.3070174972091
 30
0.0
 40
2.500000001259999
  0
LINE
  5
27B
330
28
100
AcDbEntity
  8
DEFAULT_2
  6
ByBlock
 62
     1
100
AcDbLine
 10
276.7340005495577
 20
128.7070174972891
 30
0.0
 11
277.9340005498577
 21
128.7070174972891
 31
0.0
  0
LINE
  5
27C
330
28
100
AcDbEntity
  8
DEFAULT_2
  6
ByBlock
 62
     1
100
AcDbLine
 10
286.0340005474375
 20
128.7070174972891
 30
0.0
 11
287.2340005477377
 21
128.7070174972891
 31
0.0
  0
LINE
  5
27E
330
28
100
AcDbEntity
  8
DEFAULT_2
  6
ByBlock
 62
     1
100
AcDbLine
 10
275.7340005480377
 20
148.9070174985291
 30
0.0
 11
275.7340005480377
 21
129.7070174988091
 31
0.0
  0
LINE
  5
27F
330
28
100
AcDbEntity
  8
DEFAULT_2
  6
ByBlock
 62
     1
100
AcDbLine
 10
278.9340005488377
 20
129.7070174988091
 30
0.0
 11
278.9340005488377
 21
148.9070174985291
 31
0.0
  0
LINE
  5
280
330
28
100
AcDbEntity
  8
DEFAULT_2
  6
ByBlock
 62
     1
100
AcDbLine
 10
285.0340005484576
 20
148.9070174985291
 30
0.0
 11
285.0340005484576
 21
129.7070174988091
 31
0.0
  0
LINE
  5
281
330
28
100
AcDbEntity
  8
DEFAULT_2
  6
ByBlock
 62
     1
100
AcDbLine
 10
288.2340005492577
 20
129.7070174988091
 30
0.0
 11
288.2340005492577
 21
148.9070174985291
 31
0.0
  0
LINE
  5
285
330
28
100
AcDbEntity
  8
DEFAULT_2
  6
ByBlock
 62
     1
100
AcDbLine
 10
287.2340005477377
 20
149.9070174975091
 30
0.0
 11
286.0340005474375
 21
149.9070174975091
 31
0.0
  0
LINE
  5
286
330
28
100
AcDbEntity
  8
DEFAULT_2
  6
ByBlock
 62
     1
100
AcDbLine
 10
277.9340005498577
 20
149.9070174975091
 30
0.0
 11
276.7340005495577
 21
149.9070174975091
 31
0.0
  0
CIRCLE
  5
293
330
28
100
AcDbEntity
  8
DEFAULT_2
  6
ByBlock
 62
     1
100
AcDbCircle
 10
264.4840005487176
 20
153.3070174970891
 30
0.0
 40
2.0000000005
  0
ARC
  5
297
330
28
100
AcDbEntity
  8
DEFAULT_2
  6
ByBlock
 62
     1
100
AcDbCircle
 10
287.2340005477377
 20
129.7070174988091
 30
0.0
 40
0.9999999989799999
100
AcDbArc
 50
270.0
 51
0.0
  0
ARC
  5
298
330
28
100
AcDbEntity
  8
DEFAULT_2
  6
ByBlock
 62
     1
100
AcDbCircle
 10
287.2340005477377
 20
148.9070174985291
 30
0.0
 40
0.9999999989799999
100
AcDbArc
 50
0.0
 51
90.0
  0
ARC
  5
299
330
28
100
AcDbEntity
  8
DEFAULT_2
  6
ByBlock
 62
     1
100
AcDbCircle
 10
286.0340005474375
 20
148.9070174985291
 30
0.0
 40
0.9999999989799999
100
AcDbArc
 50
90.0
 51
180.0
  0
ARC
  5
29A
330
28
100
AcDbEntity
  8
DEFAULT_2
  6
ByBlock
 62
     1
100
AcDbCircle
 10
286.0340005474375
 20
129.7070174988091
 30
0.0
 40
0.9999999989799999
100
AcDbArc
 50
180.0
 51
270.0
  0
ARC
  5
29B
330
28
100
AcDbEntity
  8
DEFAULT_2
  6
ByBlock
 62
     1
100
AcDbCircle
 10
277.9340005498577
 20
148.9070174985291
 30
0.0
 40
0.9999999989799999
100
AcDbArc
 50
0.0
 51
90.0
  0
ARC
  5
29C
330
28
100
AcDbEntity
  8
DEFAULT_2
  6
ByBlock
 62
     1
100
AcDbCircle
 10
276.7340005495577
 20
148.9070174985291
 30
0.0
 40
0.9999999989799999
100
AcDbArc
 50
90.0
 51
180.0
  0
ARC
  5
29D
330
28
100
AcDbEntity
  8
DEFAULT_2
  6
ByBlock
 62
     1
100
AcDbCircle
 10
276.7340005495577
 20
129.7070174988091
 30
0.0
 40
0.9999999989799999
100
AcDbArc
 50
180.0
 51
270.0
  0
ARC
  5
29E
330
28
100
AcDbEntity
  8
DEFAULT_2
  6
ByBlock
 62
     1
100
AcDbCircle
 10
277.9340005498577
 20
129.7070174988091
 30
0.0
 40
0.9999999989799999
100
AcDbArc
 50
270.0
 51
0.0
  0
MULTILEADER
  5
2A4
330
28
100
AcDbEntity
  8
0
 92
      556
310
2C020000120000000C00000016000000000000C00C00000013000000993A0000B00000000B000000D05AB8C58EBD6E40F9C0E44C3E806240000000000000000000000000000000000000000000000000000000000000F03F000000000000F03F0000000000000000000000000000000028D4DAB1B3C3E629B2BBD2AAB7C5D6
310
C3D4AABCFE7D00292F1400000001000000000000000000E03F000000000000F03F0000000000000000000000000000F03F0000000000000000000000000000000000000000CBCECCE5002F0000000000000C00000010000000000000000C00000016000000000000C00C00000013000000112700003C000000060000000200
310
000020555D1589AE6F40D2431225C189624000000000000000003403A5F603A36F40D2431225C189624000000000000000000C00000010000000000000000C00000013000000010000000C000000140000000100000054000000070000000300000097B346C7CD7870407E5D4A6DA1F962400000000000000000F19BCC06AF
310
7B70405ECAA79197FA624000000000000000007BED6A8B1D7970408D805284D0F7624000000000000000000C00000014000000010000000C00000013000000891300003C000000060000000200000089D058A9F5787040056FCEF8B8F86240000000000000000020555D1589AE6F40D2431225C18962400000000000000000
310
0C000000130000009A3A00000C00000016000000000000C00C00000012000000FF7F00000C00000017000000FFFFFFFF
100
AcDbMLeader
300
CONTEXT_DATA{
 40
1.0
 10
245.9864560424604
 20
148.3048272473084
 30
0.0
 41
0.5
140
0.18
145
0.09
174
     1
175
     1
176
     2
177
     0
290
     1
304
{\fSimSun|b0|i0|c134|p2;()}
 11
0.0
 21
0.0
 31
1.0
340
11
 12
253.0042338202382
 22
148.5909383584195
 32
0.0
 13
1.0
 23
0.0
 33
0.0
 42
0.0
 43
0.0
 44
1.0
 45
1.0
170
     1
 90
-1073741824
171
     3
172
     5
 91
-1073741824
141
0.0
 92
        0
291
     0
292
     0
173
     0
293
     0
142
0.0
143
0.0
294
     0
295
     0
296
     0
110
263.7302310936494
120
151.8310020711096
130
0.0
111
1.0
121
0.0
131
0.0
112
0.0
122
1.0
132
0.0
297
     0
302
LEADER{
290
     1
291
     1
 10
253.4542338202382
 20
148.3048272473084
 30
0.0
 11
-1.0
 21
0.0
 31
0.0
 90
        0
 40
0.3599999999999998
304
LEADER_LINE{
 10
263.7302310936494
 20
151.8310020711096
 30
0.0
 91
        0
305
}
303
}
301
}
340
23
 90
 17122304
170
     1
 91
-1056964608
341
14
171
    -2
290
     0
291
     1
 41
0.36
 42
0.18
172
     2
343
11
173
     1
 95
        1
174
     1
175
     2
 92
-1056964608
292
     0
 93
-1056964608
 10
1.0
 20
1.0
 30
1.0
 43
0.0
176
     0
293
     0
294
     0
178
     0
179
     3
 45
1.0
1001
ACAD_MLEADERVER
1070
     2
  0
MULTILEADER
  5
2BD
330
28
100
AcDbEntity
  8
0
 92
      548
310
24020000120000000C00000016000000000000C00C00000013000000993A0000A80000000B000000C9C4D9AF20856F40A3A2F224E1DF6040000000000000000000000000000000000000000000000000000000000000F03F000000000000F03F00000000000000000000000000000000B2BBD2AAB7C5D6C3D4AABCFE7D001B
310
0E0C00000001000000000000000000E03F000000000000F03F0000000000000000000000000000F03F0000000000000000000000000000000000000000CBCECCE500CFD07E0072CD7E0C00000010000000000000000C00000016000000000000C00C00000013000000112700003C0000000600000002000000B5DC91A78A0D
310
70407C2520FD63E960400000000000000000BFB33518C80770407C2520FD63E9604000000000000000000C00000010000000000000000C00000013000000010000000C0000001400000001000000540000000700000003000000D3582243455E7040480392C7F9EA6140000000000000000086112BB736607040407D358655
310
EF614000000000000000007A2A4B15155F70405E23EF6AF3E9614000000000000000000C00000014000000010000000C00000013000000891300003C0000000600000002000000A6C1362CAD5E70405393409976EA61400000000000000000B5DC91A78A0D70407C2520FD63E9604000000000000000000C00000013000000
310
9A3A00000C00000016000000000000C00C00000012000000FF7F00000C00000017000000FFFFFFFF
100
AcDbMLeader
300
CONTEXT_DATA{
 40
1.0
 10
252.1091289910174
 20
135.2934556606159
 30
0.0
 41
0.5
140
0.18
145
0.09
174
     1
175
     1
176
     2
177
     0
290
     1
304
{\fSimSun|b0|i0|c134|p2;}
 11
0.0
 21
0.0
 31
1.0
340
11
 12
256.3963512132396
 22
135.579566771727
 32
0.0
 13
1.0
 23
0.0
 33
0.0
 42
0.0
 43
0.0
 44
0.36
 45
1.0
170
     1
 90
-1073741824
171
     3
172
     5
 91
-1073741824
141
0.0
 92
        0
291
     0
292
     0
173
     0
293
     0
142
0.0
143
0.0
294
     0
295
     0
296
     0
110
262.0133582765924
120
143.4791899723732
130
0.0
111
1.0
121
0.0
131
0.0
112
0.0
122
1.0
132
0.0
297
     0
302
LEADER{
290
     1
291
     1
 10
256.8463512132396
 20
135.2934556606159
 30
0.0
 11
-1.0
 21
0.0
 31
0.0
 90
        0
 40
0.3599999999999998
304
LEADER_LINE{
 10
262.0133582765924
 20
143.4791899723732
 30
0.0
 91
        0
305
}
303
}
301
}
340
23
 90
 17122304
170
     1
 91
-1056964608
341
14
171
    -2
290
     0
291
     1
 41
0.36
 42
0.18
172
     2
343
11
173
     1
 95
        1
174
     1
175
     2
 92
-1056964608
292
     0
 93
-1056964608
 10
1.0
 20
1.0
 30
1.0
 43
0.0
176
     0
293
     0
294
     0
178
     0
179
     3
 45
1.0
1001
ACAD_MLEADERVER
1070
     2
  0
CIRCLE
  5
2C7
330
28
100
AcDbEntity
  8
DEFAULT_2
  6
ByBlock
 62
     1
100
AcDbCircle
 10
300.4840005475576
 20
123.3070174972091
 30
0.0
 40
2.0000000005
  0
MULTILEADER
  5
2C8
330
28
100
AcDbEntity
  8
0
 92
      556
310
2C020000120000000C00000016000000000000C00C00000013000000993A0000B00000000B000000AF82E92A87117340BBD83C7830D65D40000000000000000000000000000000000000000000000000000000000000F03F000000000000F03F0000000000000000000000000000000028D4DAB1B3C3E629B2BBD2AAB7C5D6
310
C3D4AABCFE7D00292F1400000001000000000000000000E03F000000000000F03F0000000000000000000000000000F03F0000000000000000000000000000000000000000CBCECCE5002F0000000000000C00000010000000000000000C00000016000000000000C00C00000013000000112700003C000000060000000200
310
000043C1D2BEC50C73406BDE972836E95D40000000000000000039EA2E4E881273406BDE972836E95D4000000000000000000C00000010000000000000000C00000013000000010000000C0000001400000001000000540000000700000003000000920AAA4623BE7240771A4A57DB6E5E4000000000000000003A4CCC06AF
310
BB7240B9B54F232F755E400000000000000000F405C8A684BE7240D8BF85EC61725E4000000000000000000C00000014000000010000000C00000013000000891300003C00000006000000020000004308B9F653BE724027EDE7A19E705E40000000000000000043C1D2BEC50C73406BDE972836E95D400000000000000000
310
0C000000130000009A3A00000C00000016000000000000C00C00000012000000FF7F00000C00000017000000FFFFFFFF
100
AcDbMLeader
300
CONTEXT_DATA{
 40
1.0
 10
305.1582776863684
 20
119.6439305766195
 30
0.0
 41
0.5
140
0.18
145
0.09
174
     1
175
     1
176
     0
177
     0
290
     1
304
{\fSimSun|b0|i0|c134|p2;()}
 11
0.0
 21
0.0
 31
1.0
340
11
 12
305.2482776863684
 22
119.9300416877306
 32
0.0
 13
1.0
 23
0.0
 33
0.0
 42
0.0
 43
0.0
 44
1.0
 45
1.0
170
     1
 90
-1073741824
171
     1
172
     5
 91
-1073741824
141
0.0
 92
        0
291
     0
292
     0
173
     0
293
     0
142
0.0
143
0.0
294
     0
295
     0
296
     0
110
299.7302310924894
120
121.8310020712296
130
0.0
111
1.0
121
0.0
131
0.0
112
0.0
122
1.0
132
0.0
297
     0
302
LEADER{
290
     1
291
     1
 10
304.7982776863684
 20
119.6439305766195
 30
0.0
 11
1.0
 21
0.0
 31
0.0
 90
        0
 40
0.3599999999999998
304
LEADER_LINE{
 10
299.7302310924894
 20
121.8310020712296
 30
0.0
 91
        0
305
}
303
}
301
}
340
23
 90
 17122304
170
     1
 91
-1056964608
341
14
171
    -2
290
     0
291
     1
 41
0.36
 42
0.18
172
     2
343
11
173
     1
 95
        1
174
     1
175
     2
 92
-1056964608
292
     0
 93
-1056964608
 10
1.0
 20
1.0
 30
1.0
 43
0.0
176
     0
293
     0
294
     0
178
     0
179
     3
 45
1.0
1001
ACAD_MLEADERVER
1070
     2
  0
MULTILEADER
  5
2D1
330
28
100
AcDbEntity
  8
0
 92
      552
310
28020000120000000C00000016000000000000C00C00000013000000993A0000AC0000000B00000018BBED68633672402E10913B8B1C6040000000000000000000000000000000000000000000000000000000000000F03F000000000000F03F0000000000000000000000000000000028D4DAB1B3C3E629CFDEB8DF302E34
310
6D6D7D00FE1100000001000000000000000000E03F000000000000F03F0000000000000000000000000000F03F0000000000000000000000000000000000000000CBCECCE500CECCE5002F00000C00000010000000000000000C00000016000000000000C00C00000013000000112700003C0000000600000002000000ACF9
310
D6FCA1317240C8A92AD5242660400000000000000000A222338C64377240C8A92AD52426604000000000000000000C00000010000000000000000C00000013000000010000000C0000001400000001000000540000000700000003000000FB42AE84FFE27140CFC7836CF76860400000000000000000A384D0448BE0714070
310
958652216C604000000000000000005D3ECCE460E37140809A21B7BA6A604000000000000000000C00000014000000010000000C00000013000000891300003C0000000600000002000000AC40BD3430E3714027B1D211D96960400000000000000000ACF9D6FCA1317240C8A92AD52426604000000000000000000C000000
310
130000009A3A00000C00000016000000000000C00C00000012000000FF7F00000C00000017000000FFFFFFFF
100
AcDbMLeader
300
CONTEXT_DATA{
 40
1.0
 10
291.4620477673981
 20
129.1919961770311
 30
0.0
 41
0.5
140
0.18
145
0.09
174
     1
175
     1
176
     0
177
     0
290
     1
304
{\fSimSun|b0|i0|c134|p2;()0.4mm}
 11
0.0
 21
0.0
 31
1.0
340
11
 12
291.5520477673981
 22
129.4781072881422
 32
0.0
 13
1.0
 23
0.0
 33
0.0
 42
0.0
 43
0.0
 44
1.0
 45
1.0
170
     1
 90
-1073741824
171
     1
172
     5
 91
-1073741824
141
0.0
 92
        0
291
     0
292
     0
173
     0
293
     0
142
0.0
143
0.0
294
     0
295
     0
296
     0
110
286.034001173519
120
131.3790676716412
130
0.0
111
1.0
121
0.0
131
0.0
112
0.0
122
1.0
132
0.0
297
     0
302
LEADER{
290
     1
291
     1
 10
291.102047767398
 20
129.1919961770311
 30
0.0
 11
1.0
 21
0.0
 31
0.0
 90
        0
 40
0.3599999999999998
304
LEADER_LINE{
 10
286.034001173519
 20
131.3790676716412
 30
0.0
 91
        0
305
}
303
}
301
}
340
23
 90
 17122304
170
     1
 91
-1056964608
341
14
171
    -2
290
     0
291
     1
 41
0.36
 42
0.18
172
     2
343
11
173
     1
 95
        1
174
     1
175
     2
 92
-1056964608
292
     0
 93
-1056964608
 10
1.0
 20
1.0
 30
1.0
 43
0.0
176
     0
293
     0
294
     0
178
     0
179
     1
 45
1.0
1001
ACAD_MLEADERVER
1070
     2
  0
LWPOLYLINE
  5
2DA
330
28
100
AcDbEntity
  8
0
 62
     1
100
AcDbPolyline
 90
        4
 70
     1
 43
0.0
 10
385.1661376384017
 20
128.8122541141688
 10
399.1602855761704
 20
128.8122541141688
 10
399.1602855761704
 20
130.5038858545042
 10
385.1661376384017
 20
130.5038858545042
  0
MULTILEADER
  5
2DB
330
28
100
AcDbEntity
  8
0
 92
      548
310
24020000120000000C00000016000000000000C00C00000013000000993A0000A80000000B000000B6D893F310E87740B0302E469D3A5E40000000000000000000000000000000000000000000000000000000000000F03F000000000000F03F00000000000000000000000000000000B2BBD2AAB7C5D6C3D4AABCFE7D001B
310
0E0C00000001000000000000000000E03F000000000000F03F0000000000000000000000000000F03F0000000000000000000000000000000000000000CBCECCE500CFD07E0072CD7E0C00000010000000000000000C00000016000000000000C00C00000013000000112700003C000000060000000200000006D338430B33
310
7840603689F6A24D5E40000000000000000010AADCB3482D7840603689F6A24D5E4000000000000000000C00000010000000000000000C00000013000000010000000C0000001400000001000000540000000700000003000000234FC9DEC5837840F978B645672860400000000000000000D607D252B7857840F1F25904C3
310
2C60400000000000000000CA20F2B0958478400F9913E96027604000000000000000000C00000014000000010000000C00000013000000891300003C0000000600000002000000F6B7DDC72D84784004096517E4276040000000000000000006D338430B337840603689F6A24D5E4000000000000000000C00000013000000
310
9A3A00000C00000016000000000000C00C00000012000000FF7F00000C00000017000000FFFFFFFF
100
AcDbMLeader
300
CONTEXT_DATA{
 40
1.0
 10
382.453027432519
 20
121.2130714740719
 30
0.0
 41
0.5
140
0.18
145
0.09
174
     1
175
     1
176
     2
177
     0
290
     1
304
{\fSimSun|b0|i0|c134|p2;}
 11
0.0
 21
0.0
 31
1.0
340
11
 12
386.7402496547412
 22
121.4991825851831
 32
0.0
 13
1.0
 23
0.0
 33
0.0
 42
0.0
 43
0.0
 44
0.36
 45
1.0
170
     1
 90
-1073741824
171
     3
172
     5
 91
-1073741824
141
0.0
 92
        0
291
     0
292
     0
173
     0
293
     0
142
0.0
143
0.0
294
     0
295
     0
296
     0
110
392.357256718094
120
129.3988057858292
130
0.0
111
1.0
121
0.0
131
0.0
112
0.0
122
1.0
132
0.0
297
     0
302
LEADER{
290
     1
291
     1
 10
387.1902496547413
 20
121.2130714740719
 30
0.0
 11
-1.0
 21
0.0
 31
0.0
 90
        0
 40
0.3599999999999998
304
LEADER_LINE{
 10
392.357256718094
 20
129.3988057858292
 30
0.0
 91
        0
305
}
303
}
301
}
340
23
 90
 17122304
170
     1
 91
-1056964608
341
14
171
    -2
290
     0
291
     1
 41
0.36
 42
0.18
172
     2
343
11
173
     1
 95
        1
174
     1
175
     2
 92
-1056964608
292
     0
 93
-1056964608
 10
1.0
 20
1.0
 30
1.0
 43
0.0
176
     0
293
     0
294
     0
178
     0
179
     3
 45
1.0
1001
ACAD_MLEADERVER
1070
     2
  0
LINE
  5
2DC
330
28
100
AcDbEntity
  8
0
 62
     1
100
AcDbLine
 10
406.1235280844376
 20
131.7909400733568
 30
0.0
 11
404.1235280839376
 21
131.7909400733568
 31
0.0
  0
LINE
  5
2DD
330
28
100
AcDbEntity
  8
0
 62
     1
100
AcDbLine
 10
380.1235280830176
 20
131.7909400733568
 30
0.0
 11
378.1235280850576
 21
131.7909400733568
 31
0.0
  0
MULTILEADER
  5
2E6
330
28
100
AcDbEntity
  8
0
 92
      548
310
24020000120000000C00000016000000000000C00C00000013000000993A0000A80000000B00000072649365E61B7740D82D4EA9E7F95A40000000000000000000000000000000000000000000000000000000000000F03F000000000000F03F00000000000000000000000000000000B2BBD2AAB7C5D6C3D4AABCFE7D001B
310
0E0C00000001000000000000000000E03F000000000000F03F0000000000000000000000000000F03F0000000000000000000000000000000000000000CBCECCE500CFD07E0072CD7E0C00000010000000000000000C00000016000000000000C00C00000013000000112700003C0000000600000002000000C25E38B5E066
310
77408833A959ED0C5B400000000000000000CC35DC251E6177408833A959ED0C5B4000000000000000000C00000010000000000000000C00000013000000010000000C0000001400000001000000540000000700000003000000DFDAC8509BB777401BEF8CEE18105D4000000000000000009293D1C48CB977400AE3D36BD0
310
185D40000000000000000086ACF1226BB87740462F47350C0E5D4000000000000000000C00000014000000010000000C00000013000000891300003C0000000600000002000000B243DD3903B87740310FEA91120F5D400000000000000000C25E38B5E06677408833A959ED0C5B4000000000000000000C00000013000000
310
9A3A00000C00000016000000000000C00C00000012000000FF7F00000C00000017000000FFFFFFFF
100
AcDbMLeader
300
CONTEXT_DATA{
 40
1.0
 10
369.6926381028242
 20
108.2019867088658
 30
0.0
 41
0.5
140
0.18
145
0.09
174
     1
175
     1
176
     2
177
     0
290
     1
304
{\fSimSun|b0|i0|c134|p2;}
 11
0.0
 21
0.0
 31
1.0
340
11
 12
373.9798603250464
 22
108.4880978199769
 32
0.0
 13
1.0
 23
0.0
 33
0.0
 42
0.0
 43
0.0
 44
0.36
 45
1.0
170
     1
 90
-1073741824
171
     3
172
     5
 91
-1073741824
141
0.0
 92
        0
291
     0
292
     0
173
     0
293
     0
142
0.0
143
0.0
294
     0
295
     0
296
     0
110
379.5968673883991
120
116.387721020623
130
0.0
111
1.0
121
0.0
131
0.0
112
0.0
122
1.0
132
0.0
297
     0
302
LEADER{
290
     1
291
     1
 10
374.4298603250464
 20
108.2019867088658
 30
0.0
 11
-1.0
 21
0.0
 31
0.0
 90
        0
 40
0.3599999999999998
304
LEADER_LINE{
 10
379.5968673883991
 20
116.387721020623
 30
0.0
 91
        0
305
}
303
}
301
}
340
23
 90
 17122304
170
     1
 91
-1056964608
341
14
171
    -2
290
     0
291
     1
 41
0.36
 42
0.18
172
     2
343
11
173
     1
 95
        1
174
     1
175
     2
 92
-1056964608
292
     0
 93
-1056964608
 10
1.0
 20
1.0
 30
1.0
 43
0.0
176
     0
293
     0
294
     0
178
     0
179
     3
 45
1.0
1001
ACAD_MLEADERVER
1070
     2
  0
ENDSEC
  0
SECTION
  2
OBJECTS
  0
DICTIONARY
  5
C
330
0
100
AcDbDictionary
281
     1
  3
ACAD_COLOR
350
1F
  3
ACAD_GROUP
350
D
  3
ACAD_LAYOUT
350
1A
  3
ACAD_MATERIAL
350
1B
  3
ACAD_MLEADERSTYLE
350
22
  3
ACAD_MLINESTYLE
350
17
  3
ACAD_PLOTSETTINGS
350
19
  3
ACAD_PLOTSTYLENAME
350
E
  3
ACAD_TABLESTYLE
350
20
  3
ACDBHEADERROUNDTRIPXREC
350
2EF
  3
AcDbVariableDictionary
350
2E7
  3
DWGPROPS
350
2EE
  0
DICTIONARY
  5
20E
330
28
100
AcDbDictionary
280
     1
281
     1
  3
ACAD_SORTENTS
360
20F
  0
DICTIONARY
  5
1F
102
{ACAD_REACTORS
330
C
102
}
330
C
100
AcDbDictionary
281
     1
  0
DICTIONARY
  5
D
102
{ACAD_REACTORS
330
C
102
}
330
C
100
AcDbDictionary
281
     1
  0
DICTIONARY
  5
1A
102
{ACAD_REACTORS
330
C
102
}
330
C
100
AcDbDictionary
281
     1
  3
Model
350
2B
  3
1
350
27
  3
2
350
2F
  0
DICTIONARY
  5
1B
102
{ACAD_REACTORS
330
C
102
}
330
C
100
AcDbDictionary
281
     1
  3
ByBlock
350
1D
  3
ByLayer
350
1C
  3
Global
350
1E
  0
DICTIONARY
  5
22
102
{ACAD_REACTORS
330
C
102
}
330
C
100
AcDbDictionary
281
     1
  3
Standard
350
23
  0
DICTIONARY
  5
17
102
{ACAD_REACTORS
330
C
102
}
330
C
100
AcDbDictionary
281
     1
  3
Standard
350
18
  0
DICTIONARY
  5
19
102
{ACAD_REACTORS
330
C
102
}
330
C
100
AcDbDictionary
281
     1
  0
ACDBDICTIONARYWDFLT
  5
E
102
{ACAD_REACTORS
330
C
102
}
330
C
100
AcDbDictionary
281
     1
  3
Normal
350
F
100
AcDbDictionaryWithDefault
340
F
  0
DICTIONARY
  5
20
102
{ACAD_REACTORS
330
C
102
}
330
C
100
AcDbDictionary
281
     1
  3
Standard
350
21
  0
DICTIONARY
  5
2EF
102
{ACAD_REACTORS
330
C
102
}
330
C
100
AcDbDictionary
281
     1
  0
DICTIONARY
  5
2E7
102
{ACAD_REACTORS
330
C
102
}
330
C
100
AcDbDictionary
281
     1
  3
CMLEADERSTYLE
350
2E9
  3
CTABLESTYLE
350
2E8
  3
DIMASSOC
350
2EB
  3
HIDETEXT
350
2EA
  3
PROJECTNAME
350
2EC
  0
XRECORD
  5
2EE
102
{ACAD_REACTORS
330
C
102
}
330
C
100
AcDbXrecord
280
     1
  1
DWGPROPS COOKIE
  2

  3

  4

  6

  7

  8
Administrator
  9

300
=
301
=
302
=
303
=
304
=
305
=
306
=
307
=
308
=
309
=
 40
0.0038552314814815
 41
2458025.444219155
 42
2458025.448074259
  1

 90
        0
  0
SORTENTSTABLE
  5
20F
102
{ACAD_REACTORS
330
20E
102
}
330
20E
100
AcDbSortentsTable
330
28
331
206
  5
206
331
1E4
  5
1E4
331
1CA
  5
1CA
331
1A8
  5
1A8
331
1F5
  5
1F5
331
1DB
  5
1DB
331
1B9
  5
1B9
331
197
  5
197
331
175
  5
175
331
15B
  5
15B
331
139
  5
139
331
186
  5
186
331
14A
  5
14A
331
204
  5
204
331
1E2
  5
1E2
331
1C8
  5
1C8
331
1F3
  5
1F3
331
1D9
  5
1D9
331
1B7
  5
1B7
331
195
  5
195
331
173
  5
173
331
159
  5
159
331
1A6
  5
1A6
331
184
  5
184
331
148
  5
148
331
137
  5
137
331
202
  5
202
331
1E0
  5
1E0
331
1F1
  5
1F1
331
1D7
  5
1D7
331
1B5
  5
1B5
331
193
  5
193
331
171
  5
171
331
157
  5
157
331
1A4
  5
1A4
331
182
  5
182
331
146
  5
146
331
135
  5
135
331
200
  5
200
331
1EF
  5
1EF
331
1D5
  5
1D5
331
191
  5
191
331
16F
  5
16F
331
155
  5
155
331
1C4
  5
1C4
331
1A2
  5
1A2
331
180
  5
180
331
166
  5
166
331
144
  5
144
331
133
  5
133
331
1ED
  5
1ED
331
1D3
  5
1D3
331
1B1
  5
1B1
331
18F
  5
18F
331
16D
  5
16D
331
153
  5
153
331
1FE
  5
1FE
331
1C2
  5
1C2
331
1A0
  5
1A0
331
17E
  5
17E
331
164
  5
164
331
142
  5
142
331
131
  5
131
331
20D
  5
20D
331
1EB
  5
1EB
331
1D1
  5
1D1
331
18D
  5
18D
331
16B
  5
16B
331
151
  5
151
331
1FC
  5
1FC
331
1C0
  5
1C0
331
19E
  5
19E
331
17C
  5
17C
331
162
  5
162
331
140
  5
140
331
12F
  5
12F
331
20B
  5
20B
331
1E9
  5
1E9
331
1CF
  5
1CF
331
1AD
  5
1AD
331
18B
  5
18B
331
169
  5
169
331
1FA
  5
1FA
331
1BE
  5
1BE
331
19C
  5
19C
331
17A
  5
17A
331
160
  5
160
331
13E
  5
13E
331
14F
  5
14F
331
12D
  5
12D
331
209
  5
209
331
1E7
  5
1E7
331
1CD
  5
1CD
331
1AB
  5
1AB
331
189
  5
189
331
1F8
  5
1F8
331
1DE
  5
1DE
331
1BC
  5
1BC
331
178
  5
178
331
15E
  5
15E
331
13C
  5
13C
331
14D
  5
14D
331
207
  5
207
331
1E5
  5
1E5
331
1CB
  5
1CB
331
1A9
  5
1A9
331
1F6
  5
1F6
331
1DC
  5
1DC
331
1BA
  5
1BA
331
198
  5
198
331
176
  5
176
331
15C
  5
15C
331
13A
  5
13A
331
187
  5
187
331
14B
  5
14B
331
205
  5
205
331
1E3
  5
1E3
331
1C9
  5
1C9
331
1F4
  5
1F4
331
1DA
  5
1DA
331
1B8
  5
1B8
331
196
  5
196
331
174
  5
174
331
15A
  5
15A
331
1A7
  5
1A7
331
185
  5
185
331
149
  5
149
331
138
  5
138
331
203
  5
203
331
1E1
  5
1E1
331
1F2
  5
1F2
331
1D8
  5
1D8
331
1B6
  5
1B6
331
194
  5
194
331
172
  5
172
331
158
  5
158
331
1A5
  5
1A5
331
183
  5
183
331
147
  5
147
331
136
  5
136
331
201
  5
201
331
1F0
  5
1F0
331
1D6
  5
1D6
331
1B4
  5
1B4
331
192
  5
192
331
170
  5
170
331
156
  5
156
331
1C5
  5
1C5
331
1A3
  5
1A3
331
181
  5
181
331
167
  5
167
331
145
  5
145
331
134
  5
134
331
1EE
  5
1EE
331
1D4
  5
1D4
331
1B2
  5
1B2
331
190
  5
190
331
16E
  5
16E
331
154
  5
154
331
1FF
  5
1FF
331
1C3
  5
1C3
331
1A1
  5
1A1
331
17F
  5
17F
331
165
  5
165
331
143
  5
143
331
132
  5
132
331
1EC
  5
1EC
331
1D2
  5
1D2
331
18E
  5
18E
331
16C
  5
16C
331
152
  5
152
331
1FD
  5
1FD
331
1C1
  5
1C1
331
19F
  5
19F
331
17D
  5
17D
331
163
  5
163
331
141
  5
141
331
130
  5
130
331
20C
  5
20C
331
1EA
  5
1EA
331
1D0
  5
1D0
331
1AE
  5
1AE
331
18C
  5
18C
331
16A
  5
16A
331
150
  5
150
331
1FB
  5
1FB
331
1BF
  5
1BF
331
19D
  5
19D
331
17B
  5
17B
331
161
  5
161
331
13F
  5
13F
331
12E
  5
12E
331
20A
  5
20A
331
1E8
  5
1E8
331
1CE
  5
1CE
331
1AC
  5
1AC
331
18A
  5
18A
331
168
  5
168
331
1F9
  5
1F9
331
1DF
  5
1DF
331
1BD
  5
1BD
331
19B
  5
19B
331
179
  5
179
331
15F
  5
15F
331
13D
  5
13D
331
14E
  5
14E
331
12C
  5
12C
331
208
  5
208
331
1E6
  5
1E6
331
1CC
  5
1CC
331
1AA
  5
1AA
331
188
  5
188
331
1F7
  5
1F7
331
1DD
  5
1DD
331
1BB
  5
1BB
331
199
  5
199
331
177
  5
177
331
15D
  5
15D
331
13B
  5
13B
331
14C
  5
14C
  0
LAYOUT
  5
2B
102
{ACAD_XDICTIONARY
360
2F3
102
}
102
{ACAD_REACTORS
330
1A
102
}
330
1A
100
AcDbPlotSettings
  1

  2

  4

  6

 40
0.0
 41
0.0
 42
0.0
 43
0.0
 44
0.0
 45
0.0
 46
0.0
 47
0.0
 48
0.0
 49
0.0
140
0.0
141
0.0
142
1.0
143
1.0
 70
  1712
 72
     0
 73
     0
 74
     0
  7

 75
     0
147
1.0
148
0.0
149
0.0
100
AcDbLayout
  1
Model
 70
     1
 71
     0
 10
0.0
 20
0.0
 11
12.0
 21
9.0
 12
0.0
 22
0.0
 32
0.0
 14
0.0
 24
0.0
 34
0.0
 15
0.0
 25
0.0
 35
0.0
146
0.0
 13
0.0
 23
0.0
 33
0.0
 16
1.0
 26
0.0
 36
0.0
 17
0.0
 27
1.0
 37
0.0
 76
     0
330
28
  0
LAYOUT
  5
27
102
{ACAD_XDICTIONARY
360
2F1
102
}
102
{ACAD_REACTORS
330
1A
102
}
330
1A
100
AcDbPlotSettings
  1

  2

  4

  6

 40
0.0
 41
0.0
 42
0.0
 43
0.0
 44
0.0
 45
0.0
 46
0.0
 47
0.0
 48
0.0
 49
0.0
140
0.0
141
0.0
142
1.0
143
1.0
 70
   688
 72
     0
 73
     0
 74
     5
  7

 75
    16
147
1.0
148
0.0
149
0.0
100
AcDbLayout
  1
1
 70
     1
 71
     1
 10
0.0
 20
0.0
 11
420.0
 21
297.0
 12
0.0
 22
0.0
 32
0.0
 14
1.000000000000000E+20
 24
1.000000000000000E+20
 34
1.000000000000000E+20
 15
-1.000000000000000E+20
 25
-1.000000000000000E+20
 35
-1.000000000000000E+20
146
0.0
 13
0.0
 23
0.0
 33
0.0
 16
1.0
 26
0.0
 36
0.0
 17
0.0
 27
1.0
 37
0.0
 76
     0
330
24
  0
LAYOUT
  5
2F
102
{ACAD_XDICTIONARY
360
2F5
102
}
102
{ACAD_REACTORS
330
1A
102
}
330
1A
100
AcDbPlotSettings
  1

  2

  4

  6

 40
0.0
 41
0.0
 42
0.0
 43
0.0
 44
0.0
 45
0.0
 46
0.0
 47
0.0
 48
0.0
 49
0.0
140
0.0
141
0.0
142
1.0
143
1.0
 70
   688
 72
     0
 73
     0
 74
     5
  7

 75
    16
147
1.0
148
0.0
149
0.0
100
AcDbLayout
  1
2
 70
     1
 71
     2
 10
0.0
 20
0.0
 11
12.0
 21
9.0
 12
0.0
 22
0.0
 32
0.0
 14
0.0
 24
0.0
 34
0.0
 15
0.0
 25
0.0
 35
0.0
146
0.0
 13
0.0
 23
0.0
 33
0.0
 16
1.0
 26
0.0
 36
0.0
 17
0.0
 27
1.0
 37
0.0
 76
     0
330
2C
  0
MATERIAL
  5
1D
102
{ACAD_REACTORS
330
1B
102
}
330
1B
100
AcDbMaterial
  1
ByBlock
  2

  0
MATERIAL
  5
1C
102
{ACAD_REACTORS
330
1B
102
}
330
1B
100
AcDbMaterial
  1
ByLayer
  2

  0
MATERIAL
  5
1E
102
{ACAD_REACTORS
330
1B
102
}
330
1B
100
AcDbMaterial
  1
Global
  2

  0
MLEADERSTYLE
  5
23
102
{ACAD_REACTORS
330
22
102
}
330
22
100
AcDbMLeaderStyle
170
     2
171
     1
172
     0
 90
        2
 40
0.0
 41
0.0
173
     1
 91
-1056964608
340
14
 92
       -2
290
     1
 42
0.09
291
     1
 43
0.36
  3
Standard
341
0
 44
0.18
300

342
11
174
     1
178
     1
175
     1
176
     0
 93
-1056964608
 45
0.18
292
     0
297
     0
 46
0.18
343
0
 94
-1056964608
 47
1.0
 49
1.0
140
1.0
293
     1
141
0.0
294
     1
177
     0
142
1.0
295
     0
296
     0
143
0.125
1001
ACAD_MLEADERVER
1070
     2
  0
MLINESTYLE
  5
18
102
{ACAD_REACTORS
330
17
102
}
330
17
100
AcDbMlineStyle
  2
STANDARD
 70
     0
  3

 62
   256
 51
90.0
 52
90.0
 71
     2
 49
0.5
 62
   256
  6
BYLAYER
 49
-0.5
 62
   256
  6
BYLAYER
  0
ACDBPLACEHOLDER
  5
F
102
{ACAD_REACTORS
330
E
102
}
330
E
  0
TABLESTYLE
  5
21
102
{ACAD_REACTORS
330
20
102
}
330
20
100
AcDbTableStyle
  3
Standard
 70
     0
 71
     0
 40
1.5
 41
1.5
280
     0
281
     0
  7
Standard
140
4.5
170
     2
 62
     0
 63
   257
283
     0
274
    -2
284
     1
 64
     0
275
    -2
285
     1
 65
     0
276
    -2
286
     1
 66
     0
277
    -2
287
     1
 67
     0
278
    -2
288
     1
 68
     0
279
    -2
289
     1
 69
     0
  7
Standard
140
6.0
170
     5
 62
     0
 63
   257
283
     0
274
    -2
284
     1
 64
     0
275
    -2
285
     1
 65
     0
276
    -2
286
     1
 66
     0
277
    -2
287
     1
 67
     0
278
    -2
288
     1
 68
     0
279
    -2
289
     1
 69
     0
  7
Standard
140
4.5
170
     5
 62
     0
 63
   257
283
     0
274
    -2
284
     1
 64
     0
275
    -2
285
     1
 65
     0
276
    -2
286
     1
 66
     0
277
    -2
287
     1
 67
     0
278
    -2
288
     1
 68
     0
279
    -2
289
     1
 69
     0
  0
DICTIONARYVAR
  5
2E9
102
{ACAD_REACTORS
330
2E7
102
}
330
2E7
100
DictionaryVariables
280
     0
  1
STANDARD
  0
DICTIONARYVAR
  5
2E8
102
{ACAD_REACTORS
330
2E7
102
}
330
2E7
100
DictionaryVariables
280
     0
  1
STANDARD
  0
DICTIONARYVAR
  5
2EB
102
{ACAD_REACTORS
330
2E7
102
}
330
2E7
100
DictionaryVariables
280
     0
  1
2
  0
DICTIONARYVAR
  5
2EA
102
{ACAD_REACTORS
330
2E7
102
}
330
2E7
100
DictionaryVariables
280
     0
  1
1
  0
DICTIONARYVAR
  5
2EC
102
{ACAD_REACTORS
330
2E7
102
}
330
2E7
100
DictionaryVariables
280
     0
  1

  0
DICTIONARY
  5
2F3
330
2B
100
AcDbDictionary
280
     1
281
     1
  3
ACAD_XREC_ROUNDTRIP
360
2F4
  0
DICTIONARY
  5
2F1
330
27
100
AcDbDictionary
280
     1
281
     1
  3
ACAD_XREC_ROUNDTRIP
360
2F2
  0
DICTIONARY
  5
2F5
330
2F
100
AcDbDictionary
280
     1
281
     1
  3
ACAD_XREC_ROUNDTRIP
360
2F6
  0
XRECORD
  5
2F4
102
{ACAD_REACTORS
330
2F3
102
}
330
2F3
100
AcDbXrecord
280
     1
102
SHADEPLOT
 70
     0
102
SHADEPLOTRESLEVEL
 70
     2
102
SHADEPLOTCUSTOMDPI
 70
   300
  0
XRECORD
  5
2F2
102
{ACAD_REACTORS
330
2F1
102
}
330
2F1
100
AcDbXrecord
280
     1
102
SHADEPLOT
 70
     0
102
SHADEPLOTRESLEVEL
 70
     2
102
SHADEPLOTCUSTOMDPI
 70
   300
  0
XRECORD
  5
2F6
102
{ACAD_REACTORS
330
2F5
102
}
330
2F5
100
AcDbXrecord
280
     1
102
SHADEPLOT
 70
     0
102
SHADEPLOTRESLEVEL
 70
     2
102
SHADEPLOTCUSTOMDPI
 70
   300
  0
ENDSEC
  0
EOF
